<?xml version="1.0" encoding="utf-8"?>
<!-- Generator: Adobe Illustrator 16.0.0, SVG Export Plug-In . SVG Version: 6.00 Build 0)  -->
<!DOCTYPE svg PUBLIC "-//W3C//DTD SVG 1.1//EN" "http://www.w3.org/Graphics/SVG/1.1/DTD/svg11.dtd">
<svg version="1.1" id="Layer_1" xmlns="http://www.w3.org/2000/svg" xmlns:xlink="http://www.w3.org/1999/xlink" x="0px" y="0px"
	 width="420px" height="380px" viewBox="0 0 420 380" style="enable-background:new 0 0 420 380;" xml:space="preserve" opacity="0.2">
<path style="fill-rule:evenodd;clip-rule:evenodd;" d="M410.59,199.003c-0.438-2.562-0.833-5.132-1.232-7.7
	c-0.224-1.438-0.224-2.945-0.681-4.302c-0.419-1.24-0.471-2.429-0.424-3.676c0.093-2.512,0.017-5.009-0.593-7.467
	c-0.426-1.72-0.887-3.435-1.2-5.177c-0.368-2.048-0.396-4.175-0.922-6.175c-1.112-4.222-2.45-8.385-3.705-12.568
	c-0.206-0.687-0.461-1.357-0.651-1.913c0.025-0.047,0.053-0.092,0.078-0.139c-0.678-0.819-1.124-1.848-1.227-2.977
	c-0.058-0.239-0.122-0.477-0.198-0.711c-0.037-0.107-0.344-0.865-0.295-0.788c-0.31-0.678-0.631-1.352-0.945-2.028
	c-0.521-1.117-1.221-2.451-1.499-3.783c-2.952-4.419-5.825-8.938-10.582-11.765c-0.039-3.022,1.301-5.545,2.05-8.218
	c0.724-2.583,1.114-5.256,1.949-8.024c0.247-0.012,0.477-0.004,0.71,0c-0.279-1.932-0.027-3.935,0.4-5.834
	c0.088-0.389,0.186-0.775,0.282-1.162c-0.142-0.864-0.079-1.765,0.177-2.597c-0.137-0.054-0.277-0.11-0.43-0.16
	c-0.108-0.555-0.299-1.057-0.288-1.553c0.056-2.335-0.556-4.547-1.182-6.757c-0.779-2.753-2.016-5.248-4.168-7.216
	c-0.538-0.492-1.017-1.052-1.557-1.542c-0.453-0.412-0.723-0.872-0.852-1.391c-1.262-0.595-2.354-1.464-3.316-2.481
	c-0.007-0.007-0.011-0.012-0.018-0.019c-0.947-0.18-1.818-0.607-2.471-1.281c-0.424-0.095-0.806-0.263-1.151-0.482
	c-0.618,0.001-1.163,0.006-1.696-0.003c-0.722-0.011-1.45-0.111-2.163-0.038c-1.025,0.105-2.037,0.475-3.054,0.476
	c-1.334,0-2.667-0.249-4.121-0.403c-0.96-1.891-1.798-3.549-2.641-5.206c-0.265-0.522-0.416-0.912-0.454-1.247
	c-0.133-0.107-0.274-0.21-0.39-0.326c-1.978-1.977-2.493-5.186-3.453-7.707c-0.101-0.263-0.163-0.521-0.21-0.775
	c-0.023,0-0.045-0.003-0.067-0.003c-0.069-0.858-0.137-1.58-0.187-2.303c-0.244-3.534-0.457-7.071-0.745-10.603
	c-0.061-0.741,0.135-1.337,0.513-1.862c-0.546-0.365-1.049-0.83-1.466-1.427c-1.272-1.822-2.517-3.683-4.024-5.324
	c-0.75-0.816-2.348-2.944-3.492-3.032c-2.37-0.183-3.856-1.677-4.473-3.455c-0.008,0.009-0.016,0.018-0.023,0.027
	c-0.364-0.064-0.784-0.083-1.163-0.218c-4.531-1.606-8.84-0.826-12.969,1.304c-1.836,0.946-3.55,2.127-5.442,3.279
	c-2.051-1.101-4.184-2.174-6.243-3.374c-1.698-0.989-3.407-1.421-5.382-1.041c-1.631,0.313-3.318,0.319-4.969,0.55
	c-1.626,0.227-3.234,0.566-4.973,0.878c-0.827-1.867-1.418-3.796-2.474-5.422c-1.059-1.63-2.581-2.958-4.069-4.608
	c0.025-0.465,0.102-1.186,0.097-1.906c-0.022-3.236-0.647-6.233-3.431-8.342c-1.606-1.218-3.441-2.012-5.386-2.34
	c-4.625-0.78-6.151-0.026-9.663,2.831c-1.127,0.917-2.224,2.155-3.25,3.188c-0.428,0.43-1.643,1.755-1.875,2.312
	c-0.599,1.432-0.814,2.32-0.812,3.812c0.681,1.295,0.438,2.191,0.519,3.826c0.064,1.29,0.769,2.573-0.083,4.09
	c-0.646-0.286-1.184-0.534-1.729-0.763c-1.012-0.424-1.839-0.112-2.502,0.693c-0.329,0.4-0.677,0.816-0.881,1.284
	c-0.788,1.807-1.834,3.5-2.187,5.501c-0.212,1.205-0.719,2.357-1.064,3.444c-0.435,0.039-0.675,0.135-0.835,0.06
	c-0.464-0.219-0.927-0.467-1.336-0.774c-3.32-2.491-6.875-3.376-10.855-1.708c-0.957,0.401-1.93,0.69-3.035,0.438
	c-1.071-0.244-2.047,0.25-2.931,0.842c-1.504,1.006-2.671,2.314-3.5,3.932c-2.444,4.771-3.468,9.808-2.802,15.144
	c0.111,0.891-0.172,1.559-0.513,2.35c-1.068,2.483-2.123,4.998-2.873,7.589c-0.573,1.983-0.848,4.092-0.491,6.195
	c0.157,0.931,1.213,1.629,1.817,1.038c1.075-1.053,2.352-0.301,3.495-0.664c1.012-3.091,1.502-6.319,3.464-9.037
	c5.847,2.134,11.352,2.216,16.245-1.909c0.266,0.198,0.488,0.28,0.565,0.434c1.064,2.144,2.115,4.294,3.157,6.449
	c0.406,0.841,0.728,1.73,1.189,2.539c0.389,0.68,1.557,0.748,1.822,0.047c0.494-1.306,1.627-1.799,2.562-2.284
	c0.147-1.692,0.418-3.145,0.365-4.586c-0.075-2.094-0.323-4.185-2.551-5.322c-1.075-0.548-2.079-1.241-3.058-1.835
	c1.35-2.317,2.481-4.354,2.773-6.909l-0.342-4.877c0.146-1.376-0.748-2.76-0.182-4.176c1.14-0.865,1.156,1.069,2.161,0.688
	c0.149-0.141,0.466-0.31,0.584-0.568c1.035-2.27,1.944-4.606,3.796-6.399c0.193-0.188,0.156-0.594,0.275-0.879
	c0.513-1.225,1.06-1.422,2.034-0.417c1.058,1.095,2.311,1.421,3.681,1.364c2.039-0.084,4.053,0.135,6.137-0.28
	c1.736-0.347,3.166-0.877,4.311-2.108c0.801-0.863,1.707-1.446,2.698-1.898c0.873,0.633,0.796,1.337,0.318,1.963
	c-0.567,0.744-1.223,1.43-1.903,2.074c-2.753,2.604-4.811,5.761-7.021,8.794c-0.426,0.583-0.843,1.234-1.03,1.917
	c-0.827,3.014-1.741,6.019-2.299,9.086c-0.65,3.582-0.895,7.235-1.441,10.837c-0.659,4.344-1.078,8.701-1.07,13.094
	c0.011,5.648,0.327,11.28,1.997,16.711c0.755,2.454,0.736,4.655-0.638,6.841c-0.441,0.701-0.741,1.491-1.114,2.236
	c-1.721,3.447-3.681,6.798-5.115,10.361c-2.527,6.283-4.565,12.746-5.891,19.411c-0.323,1.635-0.703,3.264-1.169,4.863
	c-0.218,0.748-0.701,1.42-1.063,2.127c-0.179-1.984-1.189-3.282-2.598-4.413c-0.463-0.373-0.786-0.975-1.052-1.53
	c-0.604-1.258-1.508-2.244-2.571-3.108c-1.36-1.103-2.721-2.206-4.124-3.343c0.736-1.097,1.616-2.03,2.063-3.138
	c1.559-3.862,3.314-7.641,4.619-11.613c0.873-2.655,1.187-5.292,0.839-8.013c-0.279-2.188-0.063-4.361-0.097-6.539
	c-0.048-3.186,0.469-6.348,0.041-9.562c-0.282-2.119-1.171-3.823-2.55-5.189c-0.983-0.975-1.765-1.996-2.359-3.259
	c-0.811-0.263-1.601-0.515-2.388-0.775c-1.688-0.556-3.416-1.072-4.786-2.243c-1.084-0.925-2.299-1.362-3.658-1.615
	c-1.122-0.209-2.234-0.503-3.326-0.844c-2.424-0.757-4.711-0.662-6.837,0.875c-0.736,0.532-1.515,1.004-2.278,1.507
	c-0.667-0.945-0.377-1.744-0.157-2.536c0.322-1.16,0.332-2.445-0.294-3.35c-1.352-1.958-1.631-4.267-2.479-6.38
	c-0.967-2.412-1.872-4.839-3.779-6.752c0.206-1.214,0.403-2.336,0.589-3.463c0.173-1.06,0.231-2.19-0.609-2.943
	c-1.712-1.534-1.473-3.822-2.384-5.65c0.232-1.484-0.433-2.597-1.395-3.649c-0.69-0.756-1.273-1.618-1.843-2.475
	c-0.317-0.478-0.508-1.041-0.746-1.545c0.256-0.156,0.343-0.256,0.427-0.254c0.311,0.012,0.62,0.043,0.928,0.091
	c1.964,0.308,2.76-0.091,3.414-1.75c0.152-0.386,0.257-0.792,0.354-1.197c0.992-4.187,2.656-8.118,4.547-11.961
	c0.206-0.419,0.613-0.74,1.06-1.262c1.501,1.25,2.865,2.354,4.194,3.498c1.916,1.65,4.116,2.416,6.642,2.207
	c1.654-0.138,3.312-0.461,4.96-0.403c2.273,0.079,4.049-0.397,5.159-2.62c0.368-0.736,1.086-1.517,2.312-1.511
	c0.226,0.576,0.526,1.122,0.651,1.707c0.393,1.836,0.706,3.688,1.074,5.531c0.543,2.72,2.572,3.414,4.967,2.76
	c0.973-0.265,1.906-0.679,2.934-1.054c0.863-1.438,1.138-3.013,0.66-4.731c-0.163-0.591-0.108-1.239-0.198-1.855
	c-0.461-3.201-0.946-6.388-2.318-9.382c-0.685-1.495-1.759-2.264-3.302-2.513c-0.307-0.049-0.632,0.014-0.938-0.037
	c-1.379-0.228-1.854-0.758-1.562-2.12c0.3-1.397-0.074-2.609-0.379-3.949c-0.794-3.48-3.089-6.096-4.772-9.06
	c-0.34-0.599-0.999-1.05-1.583-1.469c-1.269-0.914-2.615-1.718-3.869-2.648c-1.477-1.096-2.907-2.029-4.819-0.913
	c-0.406,0.237-1.033,0.066-1.538,0.177c-0.811,0.177-1.689,0.283-2.388,0.684c-1.707,0.98-3.354,2.073-4.968,3.203
	c-0.488,0.342-0.83,0.924-1.167,1.442c-1.404,2.154-1.999,4.571-2.21,7.097c-0.284,3.429-0.54,6.862-0.82,10.442
	c-0.601,0.475-1.281,0.949-1.885,1.505c-0.912,0.84-2.026,1.596-2.605,2.638c-2.021,3.636-3.863,7.374-5.748,11.085
	c-0.363,0.716-0.062,1.715-0.94,2.239c-1.893,0.321-3.713-0.237-5.533-0.639c-1.4-0.31-2.687-0.196-3.928,0.508
	c-0.271,0.155-0.504,0.456-0.816,0.465c-1.424,0.039-0.987,0.039-2.799,0.602c-1.088,0.338-4.56,4.084-5.812,4.125
	c-1.159,1.342-1.166-0.196-1.624,1.685c-0.395,1.612,0,0-0.531,1.576c-1.138,3.375-1.935,6.813-2.018,10.392
	c-0.017,0.73-0.124,1.474-0.022,2.187c0.231,1.624-0.386,2.842-1.583,3.854c-0.238,0.201-0.42,0.467-0.659,0.669
	c-2.812,2.395-4.882,5.375-6.857,8.457c-0.996,1.556-2.279,2.927-3.418,4.363c-3.229-0.561-6.229-0.167-9.207,0.384
	c-1.978,0.366-3.847,0.631-5.755-0.48c-1.117-0.65-2.495-0.507-3.453,0.569c-2.556,2.871-5.486,5.468-6.893,9.207
	c-0.141,0.376-0.431,0.699-0.736,1.179c-1.766-1.398-3.282-2.926-4.709-4.525c0.716-0.992,1.565-1.808,1.979-2.806
	c1.623-3.913,2.292-8,1.683-12.228c-0.102-0.699-0.427-1.382-0.736-2.032c-0.531-1.116-1.259-2.153-1.676-3.307
	c-1.071-2.969-3.475-4.586-5.999-6.051c-0.661-0.383-1.603-0.374-2.417-0.384c-1.666-0.021-3.297,0.003-4.961-0.406
	c-1.277-0.313-2.691-0.12-4.04-0.062c-0.369,0.015-0.779,0.296-1.075,0.562c-0.698,0.625-1.398,1.266-1.991,1.989
	c-1.482,1.809-2.729,3.847-2.64,6.215c0.113,3.003-0.167,6.06,0.803,9.005c0.476,1.445,0.773,2.944,0.867,4.459
	c-1.115,0.292-2.076,0.402-2.901,0.796c-0.883,0.422-1.637,1.113-2.576,1.777c-0.268-0.596-0.485-0.946-0.586-1.327
	c-0.478-1.815-0.897-3.646-1.385-5.458c-1.287-4.778-3.211-9.223-6.426-13.085c-1.585-1.903-3.382-3.271-5.667-4.246
	c-1.832-0.782-3.364-0.929-4.946,0.334c-0.095,0.075-0.364-0.067-0.76-0.154c-0.093-0.729-0.174-1.535-0.302-2.333
	c-0.131-0.815-0.076-1.792-0.516-2.396c-0.926-1.272-1.325-2.441-0.795-4.013c0.245-0.725-0.078-1.645-0.155-2.475
	c-0.232-2.504-1.054-4.844-1.878-7.204c-1.489-4.264-3.292-8.3-6.858-11.286c-0.318-0.266-0.567-0.613-0.865-0.904
	c-1.514-1.48-3.584-2.045-5.289-3.213c-2.559-0.042-4.818-1.268-7.23-1.89c-1.711-0.441-3.309-0.397-4.89,0.249
	c-1.538,0.628-3.071,1.254-4.326,2.447c-2.19,2.083-4.475,4.063-6.704,6.105c-0.379,0.35-0.752,0.747-1,1.194
	c-1.461,2.643-2.999,5.253-4.284,7.982c-1.071,2.272-1.623,4.744-1.516,7.289c0.028,0.682,0.181,1.589,0.633,1.973
	c0.885,0.751,0.78,1.602,0.792,2.539c0.028,2.084-0.07,4.195,0.224,6.245c0.514,3.595,1.284,7.152,1.944,10.712
	c-0.958,2.672-2.013,5.384-2.896,8.15c-0.282,0.884-0.544,1.777-0.794,2.672c0.147,2.975-0.291,5.793-1.665,7.962
	c-0.248,1.653-0.484,3.309-0.826,4.942c-0.496,2.377-0.724,4.748-0.558,7.153c0.173,2.496,0.394,4.989,0.648,7.478
	c0.697,6.847,1.092,13.729,2.42,20.501c0.235,1.205,0.386,2.425,0.615,3.886c-2.341-1.573-4.379-3.166-6.619-4.388
	c-2.333-1.273-4.862-2.189-7.437-3.318c0.061-0.078,0.101-0.155,0.156-0.232c-0.857,0.237-1.77,0.28-2.632,0.075
	c-1.412-0.336-2.823-0.269-4.239-0.27c0.111,0.206,0.224,0.416,0.333,0.619c-1.613,1.178-3.25,2.283-4.777,3.524
	c-0.851,0.695-1.754,1.061-2.805,1.25c-3.535,0.637-5.926,2.975-7.906,5.704c-2.656,3.663-4.358,7.822-5.489,12.185
	c-1.027,3.962-1.652,7.984-0.554,12.051c0.597,2.208,1.158,4.443,1.988,6.568c0.614,1.573,0.796,2.918-0.067,4.456
	c-0.71,1.263-1.248,2.651-1.674,4.041c-1.466,4.784-2.783,9.611-3.682,14.538c-1.16,6.352-2.453,12.684-3.25,19.101
	c-1.16,9.334-1.277,18.724-1.589,28.104c-0.082,2.455,0.428,4.758,1.462,6.973c0.758,1.622,1.243,1.808,2.875,1.013
	c1.288-0.626,2.494-1.505,4.097-0.887c1.415,0.546,2.844-1.321,2.302-2.755c-0.332-0.877-0.69-1.744-1.055-2.607
	c-0.409-0.965-0.717-1.925-0.696-3.014c0.069-3.649,0.09-7.291,0.374-10.939c0.376-4.883,0.628-9.774,1.225-14.638
	c0.228-1.858,0.403-3.733,0.781-5.563c0.631-3.056,1.341-6.09,1.419-9.231c0.015-0.616,0.165-1.238,0.322-1.84
	c0.738-2.812,1.444-5.637,2.272-8.423c0.65-2.186,1.448-4.327,2.221-6.474c0.085-0.235,0.443-0.371,0.713-0.584
	c1.952,0.825,3.812,1.83,5.796,2.391c2.091,0.59,4.303,0.756,6.46,1.109c0.205,0.033,0.417,0.062,0.612,0.13
	c1.049,0.372,2.069,0.222,3.047-0.211c1.906-0.844,3.833-1.655,5.681-2.616c1.654-0.86,2.947-2.294,4.245-3.555
	c2.925-2.842,5.343-6.194,6.688-10.09c1.835-5.309,3.837-10.575,4.822-16.154c0.318-1.803,0.323-3.507-0.145-5.247
	c-0.271-1.007-0.537-2.016-0.767-3.033c-0.302-1.332-0.241-2.642,0.264-4.023c0.961,0.086,1.831,0.165,2.814,0.253
	c-0.203,1.785-0.273,3.564-0.633,5.283c-0.432,2.062-0.529,4.128-0.574,6.214c-0.024,1.146-0.024,2.299-0.154,3.436
	c-0.189,1.664-0.392,3.303-0.055,4.983c0.109,0.546-0.021,1.315-0.349,1.746c-2.43,3.177-3.866,6.896-5.672,10.398
	c-2.627,5.093-4.851,10.383-6.62,15.851c-0.897,2.774-1.987,5.496-2.737,8.308c-1.022,3.824-1.863,7.702-2.663,11.58
	c-0.546,2.651-1.12,5.331-1.276,8.021c-0.508,8.75-0.921,17.507-1.188,26.269c-0.175,5.731-0.028,11.473-0.036,17.209
	c0,0.521,0,1.057-0.124,1.556c-0.384,1.554-0.33,3.098-0.096,4.661c0.092,0.613,0.119,1.246,0.091,1.866
	c-0.078,1.767-0.237,3.529-0.293,5.295c-0.088,2.713,0.076,5.448-0.217,8.136c-0.365,3.341,0.486,6.417,1.443,9.51
	c0.332,1.075,0.985,1.825,2.259,1.788c0.408-0.011,0.819,0.116,1.194,0.177c1.052-0.562,2.053-1.098,3.054-1.632
	c0.875,0.04,1.572,1.122,2.745,0.409c-0.224-0.694-0.377-1.388-0.663-2.021c-0.873-1.936-1.326-3.967-1.296-6.075
	c0.069-4.902,0.203-9.803,0.312-14.704c0.032-1.458,0.274-2.951,0.042-4.366c-0.242-1.476-0.277-2.864,0.01-4.325
	c0.22-1.118,0.262-2.283,0.278-3.428c0.048-3.536,0.053-7.071,0.061-10.608c0.004-2.188-0.032-4.377-0.021-6.566
	c0.003-0.619,0.096-1.239,0.156-1.857c0.141-1.446,0.381-2.891,0.409-4.34c0.079-4.157,0.02-8.303,0.361-12.466
	c0.598-7.305,1.951-14.459,3.528-21.589c1.244-5.621,3.291-10.981,5.364-16.327c0.638-1.646,1.529-3.197,2.36-4.761
	c0.21-0.395,0.358-1.034,1.262-0.836c0.472,1.029,0.966,2.158,1.503,3.266c0.5,1.03,0.928,2.125,1.594,3.04
	c1.715,2.354,3.536,4.632,5.34,6.922c0.247,0.312,0.597,0.616,0.963,0.749c2.516,0.916,4.813,2.303,7.633,2.527
	c8.399,0.669,15.931-1.202,22.352-6.851c1.565-1.377,3.147-2.737,4.703-4.124c5.02-4.475,9.438-9.44,12.538-15.472
	c0.465-0.907,0.896-1.842,1.89-2.534c0.299,0.394,0.612,0.681,0.771,1.037c1.448,3.234,3.009,6.427,4.26,9.736
	c1.584,4.188,2.912,8.472,4.336,12.719c0.131,0.393,0.182,0.815,0.242,1.227c0.466,3.191,0.866,6.394,1.4,9.573
	c0.534,3.178,0.838,6.411,2.33,9.376c0.45,0.897,0.498,2.015,0.646,3.043c0.285,1.959,0.542,3.923,0.748,5.891
	c0.251,2.385,0.449,4.775,0.645,7.166c0.119,1.456,0.107,2.923,0.291,4.368c0.859,6.761,1.053,13.521,0.223,20.297
	c-0.712,5.814-0.836,11.657-0.818,17.507c0.003,1.038-0.094,2.086-0.253,3.111c-0.064,0.412-0.023,1.067-0.723,1.115
	c-0.186-0.168-0.404-0.273-0.478-0.443c-1.109-2.573-2.196-5.157-3.298-7.733c-0.122-0.286-0.276-0.566-0.459-0.816
	c-1.477-2.021-2.79-4.196-4.499-5.999c-1.58-1.666-1.858-3.383-1.347-5.423c0.176-0.705,0.441-1.389,0.624-2.094
	c0.663-2.555,0.923-5.173,0.501-7.76c-0.481-2.957-1.604-5.777-2.8-8.498c-2.026-4.605-5.713-7.9-9.542-11.001
	c-0.554-0.449-1.259-0.761-1.943-0.988c-3.723-1.237-7.299-3.146-11.43-2.571c-2.984-0.851-5.333,0.408-7.333,2.404
	c-2.135,2.134-4.126,4.414-6.166,6.644c-0.205,0.225-0.332,0.529-0.456,0.813c-0.708,1.62-1.542,3.2-2.073,4.877
	c-1.227,3.87-2.694,7.671-3.387,11.702c-0.302,1.767-0.481,3.466-0.134,5.264c0.396,2.045,0.625,4.159-0.868,5.985
	c-0.186,0.228-0.224,0.58-0.311,0.88c-1.575,5.393-3.388,10.669-3.902,16.381c-0.719,8-1.496,15.996-1.943,24.014
	c-0.19,3.42,0.2,6.874,0.361,10.311c0.024,0.511,0.257,1.009,0.368,1.517c0.469,2.135,0.968,4.263,1.382,6.408
	c0.413,2.138,0.681,4.309,1.62,6.381c1.144,0.258,2.24,0.506,3.306,0.747c0.456-0.401,0.835-0.734,1.231-1.082
	c0.461,0.157,1.185,0.588,1.351,0.43c0.835-0.792,1.732-0.233,2.708-0.253c0.009-1.101-0.226-2.081-0.547-3.083
	c-0.959-2.99-1.575-6.08-1.783-9.195c-0.445-6.638-0.95-13.281-0.101-19.942c0.686-5.377,1.118-10.788,1.819-16.163
	c0.346-2.652,1.043-5.259,1.634-8.139c0.602,0.266,1.144,0.353,1.45,0.668c1.539,1.578,3.383,2.736,5.137,4.035
	c2.287,1.695,4.767,2.163,7.37,1.446c1.949-0.537,3.884-0.659,5.857-0.756c0.821-0.04,1.766,0.034,2.431-0.34
	c2.619-1.475,5.5-2.562,7.582-4.886c0.311-0.347,0.78-0.552,1.364-0.951c0.895,1.377,1.795,2.533,2.449,3.814
	c1.375,2.69,2.618,5.448,3.924,8.175c1.98,4.133,3.965,8.262,5.955,12.391c1.606,3.332,2.175,6.95,2.89,10.526
	c0.367,1.839,0.613,3.705,1.052,5.526c0.59,2.454,0.937,2.67,3.734,2.854c-0.042,0.597,0.009,1.218-0.144,1.784
	c-0.943,3.529-1.521,7.129-2.054,10.733c-0.564,3.818-1.06,7.646-1.547,11.474c-0.092,0.717-0.011,1.456,0.001,2.185
	c0.071,4.277,0.101,8.556,0.227,12.832c0.211,7.189,0.482,14.377,0.734,21.563c0.01,0.312,0.082,0.621,0.106,0.934
	c0.206,2.598,0.363,5.199,0.627,7.791c0.126,1.231,0.371,2.469,0.718,3.658c0.256,0.875,1.011,1.355,1.965,1.08
	c1.316-0.38,2.456,0.379,3.808,0.264c1.465-1.063,3.567-1.514,4.164-3.873c-0.062-0.331-0.076-0.877-0.271-1.347
	c-0.811-1.96-1.021-4.011-1.122-6.101c-0.084-1.768-0.286-3.529-0.429-5.293c-0.218-2.697-0.577-5.395-0.604-8.094
	c-0.024-2.285-0.093-4.561-0.177-6.843c-0.211-5.727-0.409-11.464-0.047-17.197c0.079-1.248,0.043-2.504,0.159-3.747
	c0.336-3.626,0.34-7.286,1.153-10.866c0.577-2.537,1.089-5.09,1.606-7.641c0.372-1.836,0.602-3.706,1.069-5.516
	c1.904-7.364,3.794-14.734,5.853-22.057c1.127-4.007,2.576-7.925,3.892-11.879c0.293-0.881,0.64-1.742,1.77-2.136
	c0.221,0.869,0.522,1.654,0.607,2.462c0.32,3.007,0.511,6.025,0.861,9.027c0.314,2.708,0.992,5.344,2.322,7.747
	c2.1,3.792,4.884,7.087,8.467,9.463c2.294,1.521,5.036,2.407,7.646,3.396c1.346,0.511,2.837,0.648,4.271,0.907
	c2.042,0.369,4.079,0.815,6.139,0.998c1.543,0.136,3.119-0.097,4.681-0.157c1.846-0.07,3.706,0.124,5.354-1.131
	c0.616-0.469,1.572-0.505,2.38-0.707c1.991-0.496,3.833-1.312,5.519-2.479c-0.022-0.004-0.044-0.008-0.066-0.013
	c-0.083,0.029-0.167,0.058-0.251,0.086c-0.01-0.046-0.019-0.092-0.028-0.138c0.093,0.017,0.187,0.034,0.279,0.052
	c0.062-0.021,0.123-0.042,0.185-0.062c-0.038,0.027-0.079,0.049-0.118,0.075c0.04,0.008,0.081,0.015,0.121,0.022
	c0.126-0.359,0.143-0.854,0.394-1.052c0.812-0.643,1.668-1.258,2.583-1.737c3.963-2.074,6.845-5.377,9.898-8.506
	c1.829-1.874,3.324-4.011,5.032-5.971c2.411-2.766,4.431-5.77,6.298-8.915c0.878-1.479,1.6-3.126,3.037-4.357
	c1.71,1.798,2.534,3.963,3.488,6.027c2.402,5.198,4.309,10.619,6.971,15.705c0.144,0.274,0.312,0.592,0.298,0.881
	c-0.086,1.839,0.854,3.42,1.283,5.125c0.377,1.498,0.911,3.051,1.776,4.306c0.744,1.079,1.209,2.18,1.464,3.392
	c1.052,5.003,1.985,10.031,2.149,15.155c0.117,3.646,0.198,7.298,0.111,10.942c-0.122,5.108-0.052,10.226-0.749,15.312
	c-0.382,2.788-0.688,5.602-0.786,8.411c-0.096,2.722-0.554,5.374-0.898,8.058c-0.381,2.983-0.319,6.03-0.331,9.049
	c-0.004,1.021,0.269,2.101,1.671,2.468c1.969-1.371,4.259-1.882,6.741-1.548c0.777-1.262,0.687-2.542,0.782-3.757
	c0.308-3.833,0.494-7.678,0.849-11.507c0.47-5.082,1.068-10.151,1.581-15.229c0.126-1.243,0.019-2.515,0.208-3.743
	c0.803-5.187,0.683-10.42,0.646-15.625c-0.035-5.099-0.612-10.185-1.285-15.258c-0.685-5.172-2.318-10.106-3.411-15.173
	c-0.13-0.604-0.411-1.178-0.65-1.755c-0.758-1.823-1.725-3.585-2.258-5.47c-1.967-6.957-4.979-13.457-8.368-19.802
	c-0.883-1.654-1.88-3.248-2.825-4.87c-0.703-1.206-1.568-2.198-3.026-2.524c-0.386-0.085-0.728-0.375-1.291-0.682
	c0.11-1.09,0.255-2.213,0.327-3.34c0.206-3.221,0.565-6.445,0.526-9.663c-0.054-4.485-0.273-8.99-2.621-13.051
	c-0.356-0.618-0.527-1.351-0.745-2.043c-0.508-1.613-1.308-3.037-2.453-4.3c-2.733-3.011-5.359-6.121-8.152-9.074
	c-1.06-1.117-2.394-2.017-3.716-2.831c-1.948-1.199-3.98-2.27-6.009-3.332c-5.311-2.784-10.793-2.799-16.345-0.849
	c-2.262,0.795-4.469,1.746-6.708,2.604c-0.375,0.145-0.819,0.254-0.962-0.349c2.384-1.954,2.318-1.961,2.636-5.458
	c0.13-1.431,0.33-2.977,0.981-4.215c2.104-3.991,2.417-8.639,4.746-12.528c0.206-0.344,0.26-0.792,0.333-1.202
	c0.778-4.352,2.742-8.23,4.694-12.116c0.779-0.125,0.519-1.599,1.301-1.724l0.95-1.205c0.202-0.185,0.489-0.341,0.658-0.594
	c0.414-0.622,0.707-0.992,1-2.751c0.156-0.937-0.195-1.67,0.155-2.401c1.124-2.342,2.156-4.757,3.551-6.935
	c2.81-4.384,5.812-8.643,8.312-13.225c0.43-0.788,0.875-1.67,2.031-2.02c0.457,0.262,0.98,0.582,1.52,0.87
	c1.468,0.785,2.87,1.784,4.43,2.289c3.855,1.247,7.775,2.553,11.772,0.382c0.179-0.097,0.423-0.074,0.597-0.177
	c0.615-0.366,1.245-0.72,1.807-1.158c0.46-0.359,0.83-0.833,1.354-1.373c0.93,0.752,1.875,1.281,2.499,2.066
	c1.291,1.627,2.559,3.306,3.569,5.114c2.137,3.818,4.066,7.751,6.157,11.596c0.603,1.109,0.582,2.18,0.362,3.325
	c-0.65,3.377-1.374,6.741-1.924,10.134c-0.631,3.902-1.237,7.818-1.612,11.751c-0.405,4.256-0.437,8.545-0.808,12.805
	c-0.272,3.122-0.634,6.214,0.111,9.319c0.167,0.699,0.111,1.457,0.113,2.187c0.022,5.324,0.096,10.647,0.032,15.972
	c-0.083,6.888-0.314,13.773-0.406,20.661c-0.034,2.499,0.172,5.001,0.234,7.502c0.036,1.502,0.73,2.54,1.943,3.229
	c0.609-0.17,1.104-0.418,1.598-0.419c0.809-0.001,1.617,0.159,2.382,0.245c0.481-0.623,0.91-1.192,1.355-1.75
	c0.769-0.966,1.755-3.88,1.489-4.906c-0.664-2.567-0.507-5.185-0.472-7.773c0.06-4.38,0.406-8.757,0.487-13.137
	c0.089-4.905,0.02-9.813,0.011-14.722c-0.005-3.131,0.337-6.318-0.135-9.379c-0.509-3.294,0.116-6.434,0.264-9.642
	c0.019-0.412-0.117-0.83-0.106-1.245c0.062-2.396,0.048-4.802,0.244-7.188c0.299-3.631,0.864-7.244,1.102-10.877
	c0.26-3.96,1.517-7.752,1.779-11.703c0.026-0.397,0.312-0.77,0.428-1.168c0.204-0.7,0.396-1.404,0.55-2.116
	c0.749-3.454,0.933-7.033,2.343-10.34c0.118-0.278,0.225-0.646,0.141-0.912c-0.532-1.72,0.066-3.321,0.572-4.882
	c1.087-3.359,1.082-7.002,2.719-10.208c1.704-6.72,4.536-12.974,7.906-18.999c0.281-0.502,0.78-0.883,1.21-1.355
	c0.65,0.468,1.137,0.86,1.665,1.189c2.831,1.769,5.621,3.624,9.059,4.048c1.964,0.243,3.916,0.617,5.888,0.773
	c2.483,0.197,4.979,0.276,7.472,0.308c0.692,0.009,1.503-0.162,2.064-0.541c1.958-1.319,3.886-2.593,6.201-3.314
	c1.301-0.406,2.52-1.231,3.513-2.378c0.938-1.083,2.247-1.799,2.98-3.146c0.665-1.224,1.744-2.039,3.213-2.232
	c0.395-0.052,0.765-0.282,1.285-0.485c-0.558-1.703,0.85-2.592,1.483-3.829c0.793-1.544,2.146-1.832,3.725-1.851
	c1.367,0.775,2.377,1.914,3.164,3.318c1.18,2.104,2.077,4.299,2.751,6.621c1.897,6.51,3.764,13.034,5.875,19.476
	c2.509,7.656,4.387,15.429,5.316,23.438c0.373,3.207,0.837,6.41,1.419,9.584c0.509,2.772,1.022,5.525,1.146,8.354
	c0.116,2.706,0.085,5.489,0.734,8.084c0.958,3.831,0.748,7.682,0.8,11.512c0.089,6.458-0.405,12.927-0.251,19.381
	c0.202,8.376-1.132,16.643-1.355,24.979c-0.02,0.719-0.328,1.424-0.404,2.145c-0.167,1.563-0.112,3.091,1.093,4.449
	c0.549-0.163,1.032-0.312,1.519-0.452c2.029-0.579,3.53-1.664,4.092-3.857c0.228-0.888,0.812-1.678,1.181-2.535
	c0.283-0.662,0.59-1.344,0.696-2.045c0.201-1.338,0.293-2.693,0.383-4.047c0.211-3.227,0.352-6.459,0.599-9.684
	c0.469-6.138,0.927-12.263,0.894-18.439c-0.035-6.246-0.286-12.502,0.08-18.75c0.056-0.928-0.066-1.873-0.172-2.802
	c-0.198-1.757-0.483-3.506-0.661-5.265c-0.302-3.003-0.858-5.989-0.691-9.03c0.019-0.306-0.075-0.619-0.126-0.929
	c-0.332-2.059-0.601-4.129-1.015-6.171c-0.451-2.23-0.515-4.562-1.748-6.608c-0.289-0.478-0.409-1.262-0.229-1.771
	c0.39-1.108,0.099-1.96-0.368-2.962c-0.669-1.436,0.064-2.261,1.679-2.449c3.931-0.46,7.85-1.026,11.776-1.528
	c2.65-0.34,4.623-1.712,6.23-3.799c0.679-0.882,1.165-2.005,2.408-2.488c2.328,1.182,3.819,3.103,4.756,5.511
	c0.34,0.874,0.51,1.855,1.018,2.616c1.873,2.811,2.713,6.091,4.256,9.046c0.972,1.861,1.617,3.794,1.747,5.928
	c0.075,1.229,0.438,2.463,0.813,3.65c0.688,2.182,1.366,4.377,2.257,6.48c0.938,2.216,0.502,4.739,1.718,6.882
	c0.221,0.387-0.029,1.025-0.007,1.545c0.067,1.565,0.031,3.147,0.271,4.686c0.577,3.704,1.358,7.377,1.929,11.083
	c0.757,4.93,1.943,9.813,1.706,14.864c-0.042,0.896-0.253,1.877,0.599,2.868c0.582-0.141,1.271-0.245,1.911-0.478
	c1.357-0.493,2.494-1.417,3.966-1.765c1.431-0.337,2.152-1.562,2.216-3.078C410.921,205.243,411.124,202.119,410.59,199.003z
	 M261.072,57.225c-1.706,2.813-3.892,5.085-7.084,6.248c-1.062,0.387-2.035,0.317-3.011-0.132c-2.195-1.007-3.755-3.973-2.936-6.229
	c0.766-2.112,1.327-4.386,2.953-6.1c0.566-0.598,1.094-1.286,1.777-1.708c3.023-1.875,5.129-1.352,7.037,1.17
	c1.179,1.557,1.498,3.389,1.69,5.444C261.394,56.253,261.331,56.798,261.072,57.225z M283.575,34.1
	c-0.945-3.182-3.773-5.5-3.263-8.225c0.092-0.493,1.222-2.368,1.562-2.688c0.322-0.304,2.732-0.542,3.188-0.5
	c0.312,0.029,2.987,1.694,3.375,2.25C290.349,27.677,286.176,30.925,283.575,34.1z M238.575,15.898
	c0.326-2.026,1.128-3.986,1.826-5.938c0.424-1.18,1.801-1.476,2.846-0.682c1.258,0.958,2.272,2.141,2.954,3.576
	c2.093,4.408,2.436,8.966,1.15,13.664c-0.261,0.952-0.705,1.725-1.9,2.191c-2.772-1.508-5.051-3.71-6.506-6.67
	C237.989,20.096,238.251,17.916,238.575,15.898z M54.792,152.513c-0.281,2.045-0.874,4.07-1.538,6.034
	c-1.064,3.146-2.23,6.267-3.509,9.332c-0.553,1.325-1.431,2.536-2.284,3.708c-0.753,1.034-1.862,1.731-3.115,1.946
	c-4.266,0.731-8.111,0.096-10.871-3.678c-0.427-0.584-0.856-1.167-1.382-1.883c0.304-0.577,0.501-0.935,0.679-1.303
	c0.038-0.078,0.005-0.189,0.005-0.339c-2.221-1.067-3.676-2.801-4.446-5.193c-1.345-4.173-1.678-8.34-0.244-12.551
	c0.4-1.176,0.776-2.362,1.258-3.504c0.36-0.856,0.831-1.56,1.921-1.839c1.373-0.353,2.118-1.642,2.909-2.72
	c1.072-1.459,2.33-2.631,3.98-3.403c0.429-0.201,0.923-0.584,1.073-0.998c0.407-1.119,1.202-1.225,2.213-1.232
	c4.536-0.031,7.67,2.555,10.144,5.855C54.146,144.157,55.385,148.182,54.792,152.513z M120.67,244.628
	c0,0.56-0.072,1.069-0.247,1.512c-0.03,0.119-0.059,0.238-0.099,0.356c-0.251,0.728-0.546,1.438-0.812,2.161
	c-0.041,0.2-0.067,0.396-0.125,0.602c-0.209,0.745-0.451,1.47-0.563,2.237c-0.164,1.128-0.852,2.032-1.767,2.661
	c0.013,0.018,0.022,0.03,0.035,0.048c-0.703,1.045-1.206,1.964-1.872,2.741c-1.072,1.25-2.502,1.967-4.155,1.758
	c-1.954-0.246-3.934-0.546-5.797-1.146c-1.24-0.4-2.317-1.341-3.427-2.098c-0.421-0.287-0.683-0.804-1.099-1.104
	c-3.257-2.362-4.152-5.844-4.534-9.552c-0.321-3.122-0.303-6.211,0.666-9.273c0.607-1.914,1.356-3.701,2.523-5.331
	c1.212-1.693,2.385-3.416,3.55-5.143c0.598-0.885,1.482-1.197,2.44-1.097c3.775,0.4,7.001,1.941,9.448,4.899
	c2.916,3.523,4.643,7.641,5.697,12.036C120.82,242.083,120.67,243.381,120.67,244.628z M203.144,56.872
	c1.053-2.451,2.298-4.872,4.578-6.582c1.713-1.285,3.686-1.527,5.396-0.36c4.124,2.812,6.603,6.565,6.775,11.668
	c0.021,0.624,0.106,1.245,0.16,1.824c-0.196,4.505-2.667,8.502-6.575,10.244c-1.385,0.618-2.876,0.542-4.29,0.129
	c-1.509-0.443-2.86-1.233-4.016-2.337c-0.698-0.667-1.225-1.416-1.42-2.371c-0.481-2.34-1.177-4.666-1.358-7.032
	C202.262,60.343,202.473,58.432,203.144,56.872z M160.213,107.6c0.601-3.066,1.21-6.13,1.792-9.199
	c0.472-2.492,1.543-4.787,2.86-6.866c1.31-2.066,3.519-3.238,5.943-3.765c2.76-0.599,5.562-0.848,8.39-0.764
	c3.378,0.1,6.072,1.643,7.923,4.332c1.465,2.127,2.613,4.503,3.676,6.87c1.845,4.107,1.917,8.482,1.501,12.875
	c-0.216,2.281-0.522,4.556-0.837,6.826c-0.482,3.467-1.653,6.756-3.742,9.508c-2.066,2.721-4.446,5.289-7.367,7.143
	c-2.133,1.354-4.63,1.955-7.169,1.813c-3.061-0.171-5.929-1.071-8.474-2.88c-1.292-0.92-2.441-1.927-3.203-3.356
	c-0.388-0.729-0.993-1.34-1.402-2.059c-0.401-0.707-0.883-1.461-0.974-2.235c-0.276-2.371-0.382-4.762-0.476-6.045
	C158.688,114.922,159.493,111.267,160.213,107.6z M137.845,72.131c0.414-1.164,0.655-2.392,0.933-3.599
	c0.199-0.869,0.706-1.473,1.633-2.06c1.613,0.194,2.933,0.799,3.729,2.125c1.751,2.916,2.661,6.088,2.208,9.499
	c-0.344,2.571-2.798,3.88-5.091,2.853c-0.461-0.208-0.939-0.498-1.263-0.876C138.024,77.776,136.718,75.299,137.845,72.131z
	 M69.814,50.601c0.12-3.618,0.939-7.161,2.547-10.478c0.54-1.112,0.961-2.311,1.22-3.517c0.2-0.929,0.655-1.558,1.439-1.89
	c1.812-0.769,3.631-1.564,5.515-2.117c1.307-0.382,2.636-0.109,3.888,0.65c2.194,1.331,3.893,3.025,5.109,5.327
	c1.956,3.702,3.758,7.443,4.404,11.619c0.745,4.819,2.129,9.555,1.954,14.921c0.416,3.656-0.623,7.43-2.449,11.023
	c-0.468,0.919-1.056,1.781-1.631,2.641c-1.932,2.885-4.731,3.547-7.948,2.989c-1.872-0.324-3.6-1.074-5.085-2.264
	c-2.138-1.713-3.85-3.741-4.915-6.338C70.897,65.925,69.556,58.385,69.814,50.601z M120.575,134.389
	c0.094,8.442-1.498,17.021-4.467,25.334c-1.158,3.241-2.824,6.27-4.828,9.091c-3.472,4.888-7.833,8.906-12.41,12.719
	c-2.934,2.446-6.372,3.163-9.986,2.52c-2.464-0.439-4.617-1.873-6.604-3.425c-3.533-2.763-5.389-6.562-6.542-10.769
	c-0.276-1.003-0.475-2.04-0.578-3.075c-0.966-9.684-1.388-19.361,0.884-28.942c1.811-7.636,4.258-15.053,8.217-21.874
	c1.196-2.061,2.729-3.926,4.114-5.876c1.248-1.759,3.142-2.706,4.885-3.832c2.101-1.357,4.23-2.672,6.363-3.981
	c2.419-1.485,4.896-1.624,7.408-0.222c1.092,0.611,2.178,1.23,3.263,1.85c3.191,1.818,4.892,4.86,6.081,8.089
	c1.328,3.608,2.283,7.364,3.229,11.099C120.506,126.652,120.656,130.312,120.575,134.389z M121.031,92.156
	c-1.277,2.74-1.199,5.835-2.042,8.617c-0.445,0-0.695,0.079-0.836-0.012c-1.915-1.244-3.811-2.516-5.718-3.77
	c-1.884-1.239-4.038-1.717-6.215-1.913c-1.958-0.175-3.945-0.037-6.051-0.037c-0.459-1.158-1.202-2.12-2.532-2.382
	c-1.167-0.23-2.283,0.01-3.333,0.532c-1.888,0.938-3.563,2.196-4.954,3.762c-3.04,3.423-6.075,6.857-8.962,10.408
	c-1.304,1.604-2.276,3.482-3.352,5.265c-3.736,6.198-6.541,12.791-8.354,19.801c-0.129,0.5-0.348,0.981-0.571,1.448
	c-0.074,0.156-0.295,0.241-0.579,0.457c-0.215-0.623-0.527-1.184-0.596-1.774c-0.491-4.239-0.974-8.48-1.376-12.729
	c-0.413-4.35-0.77-8.706-1.079-13.065c-0.35-4.899-0.291-9.789,0.611-14.643c0.438-2.354,0.792-4.722,1.239-7.074
	c0.11-0.578,0.428-1.117,0.665-1.708c2.012,0.565,3.438,1.806,4.869,2.995c1.864,1.548,3.909,2.671,6.171,3.584
	c4.944,1.994,9.376,0.89,13.675-1.715c0.354-0.214,0.626-0.57,0.99-0.761c4.111-2.172,6.22-6,8.237-9.907
	c0.286-0.554,0.524-1.137,0.841-1.673c1.179-1.991,2.009-4.113,2.58-6.352c0.25-0.978,0.611-1.929,1.022-3.202
	c0.636,0.607,1.113,0.97,1.474,1.425c3.19,4.022,5.833,8.374,7.747,13.148c0.23,0.575,0.342,1.198,0.536,1.79
	c0.876,2.672,1.747,5.346,2.657,8.006c0.159,0.466,0.494,0.87,0.791,1.377c0.851-0.335,1.583-0.623,2.459-0.966
	C121.046,91.576,121.143,91.916,121.031,92.156z M141.792,154.773c-0.964,2.406-2.015,4.776-3.154,7.463
	c-0.465-0.63-0.813-0.972-1.005-1.389c-0.522-1.135-0.958-2.309-1.468-3.449c-0.345-0.771-0.827-1.428-1.654-1.795
	c-2.068-0.919-4.119-1.877-6.271-2.863c-0.222-2.257,0.386-4.517,0.884-6.708c1.408-6.191,1.249-12.433,0.967-18.677
	c-0.101-2.269-0.685-4.522-1.139-6.765c-0.371-1.831-0.837-3.643-1.328-5.445c-0.657-2.419-1.566-4.732-2.8-6.933
	c-0.862-1.535-1.516-3.189-2.214-4.811c-0.1-0.232,0.077-0.582,0.129-0.9c0.551,0.042,1.038,0.08,1.505,0.116
	c1.444-2.01,2.262-4.244,2.727-6.613c0.287-1.463,0.907-2.722,1.834-3.907c0.953-1.22,1.753-2.573,2.505-3.931
	c0.429-0.774,0.953-1.345,1.895-1.765c2.251,0.981,4.273,2.197,6.458,2.721c2.19,0.524,4.547,0.358,7.058,0.508
	c0.261,0.51,0.619,1.12,0.892,1.766c0.283,0.669,0.405,1.414,0.739,2.05c0.732,1.396,1.325,2.814,1.5,4.405
	c0.065,0.6,0.367,1.184,0.62,1.749c0.207,0.464,0.971,0.549,1.333,0.138c0.395-0.446,0.719-0.955,1.071-1.432
	c0.755,0.334,0.501,0.928,0.445,1.367c-0.558,4.341-1.175,8.674-1.733,13.016c-0.451,3.512-0.986,7.022-1.213,10.552
	c-0.139,2.164,0.075,4.387,0.419,6.536c0.296,1.845,0.297,3.482-0.857,5.047c-0.488,0.661-0.811,1.46-1.118,2.232
	C146.466,142.958,144.153,148.875,141.792,154.773z M206.337,213.453c4.397-0.004,8.724,0.489,12.893,2.063
	c1.1,0.416,2.087,0.887,2.945,1.682c4.406,4.073,7.94,8.661,10.348,14.295c2.301,5.383,2.696,10.854,2.6,16.5
	c-0.146,8.533-3.336,16.026-7.979,22.998c-3.01,4.518-6.579,8.59-10.188,12.635c-3.61,4.047-7.996,6.64-13.361,7.462
	c-4.621,0.708-9.162,0.269-13.533-1.41c-1.742-0.668-3.473-1.449-5.064-2.416c-4.485-2.73-7.238-6.743-8.56-11.829
	c-1.188-4.571-1.549-9.23-1.91-13.911c-0.329-4.271-0.538-8.529-0.107-12.798c0.344-3.407,0.685-6.812,1.969-10.046
	c0.614-1.545,0.965-3.2,1.636-4.718c1.848-4.185,4.055-8.187,6.393-11.959c1.035-0.3,1.938-0.494,2.786-0.828
	c1.173-0.462,2.312-0.818,3.625-0.705c1.141,0.098,2.209-0.232,3.12-1.125c0.958-0.939,2.071-1.73,3.172-2.508
	C199.886,214.886,202.883,213.458,206.337,213.453z M204.918,165.133c-0.387,1.072-0.955,2.076-1.424,3.12
	c-1.111,2.467-2.371,4.881-3.278,7.422c-1.956,5.481-3.71,11.034-5.586,16.544c-0.805,2.363-1.658,4.713-2.585,7.03
	c-0.63,1.573-1.691,2.879-3.169,3.748c-5.206,3.06-8.758,7.607-11.638,12.784c-1.97,3.543-4.153,6.98-5.909,10.625
	c-1.394,2.89-2.892,5.772-3.611,8.965c-0.571,2.534-1.288,5.037-1.976,7.544c-0.692,2.52-1.254,5.052-1.249,7.688
	c0.001,0.712-0.164,1.425-0.267,2.245c-2.379,0.497-3.673,2.163-4.82,4.09c-2.076,3.487-4.298,6.887-6.376,10.373
	c-0.575,0.963-0.942,2.075-1.254,3.162c-1.264,4.407-2.463,8.831-3.7,13.244c-0.167,0.595-0.416,1.166-0.643,1.796
	c-1.033-1.146-2.493-4.886-2.951-7.541c0.356-0.243,0.742-0.584,1.188-0.791c0.746-0.343,1.09-0.951,1.269-1.681
	c0.786-3.232,1.775-6.398,2.01-9.775c0.427-6.131,1.17-12.237,1.68-18.363c0.604-7.274,1.115-14.58,0.246-21.847
	c-0.459-3.849-0.433-7.69-0.729-11.526c-0.24-3.101-0.701-6.201-1.296-9.255c-1.712-8.793-3.543-17.563-5.316-26.345
	c-0.101-0.5-0.236-1.049-0.132-1.529c1.144-5.297,2.628-10.501,4.47-15.599c1.452-4.013,2.903-8.025,4.363-12.035
	c0.178-0.488,0.377-0.974,0.625-1.43c1.095-2.009,2.283-3.956,2.934-6.193c0.379-1.307,1.071-1.429,2.446-0.836
	c2.195,0.949,4.36,1.985,6.611,2.777c1.453,0.513,3.035,0.662,4.561,0.958c0.409,0.081,0.837,0.067,1.24,0.164
	c3.246,0.774,6.33,0.378,9.429-0.885c1.763-0.719,3.405-1.534,4.895-2.689c0.571-0.442,1.153-0.873,1.708-1.334
	c0.308-0.255,0.661-0.516,0.84-0.855c1.777-3.344,4.668-5.797,6.961-8.727c0.106-0.134,0.375-0.141,0.594-0.216
	c1.392,0.291,1.983,1.453,2.513,2.565c1.301,2.728,2.408,5.528,3.078,8.5c0.981,4.36,2.149,8.678,3.086,13.047
	c0.632,2.946,1.039,5.943,1.458,8.93C205.309,163.689,205.158,164.468,204.918,165.133z M223.982,97.103
	c-0.483,1.696-0.777,3.446-1.178,5.167c-1.358,5.848-1.497,11.812-1.061,17.726c0.272,3.696,0.054,7.529,1.496,11.099
	c0.392,0.969-0.036,1.796-0.565,2.626c-2.571,4.028-5.137,8.062-7.637,12.135c-0.702,1.145-1.412,2.217-2.646,3.361
	c-0.308-1.096-0.552-1.76-0.672-2.445c-0.198-1.129-0.291-2.275-0.475-3.406c-0.173-1.047-0.49-2.015-1.545-2.565
	c-0.966-0.505-1.214-1.417-1.051-2.403c0.489-2.964-1.184-5.425-1.867-8.112c-0.135-0.532-0.83-0.905-1.2-1.4
	c-0.498-0.666-1.018-1.34-1.377-2.083c-1.051-2.173-2.441-3.896-5.137-4.006c-0.053-0.623-0.177-1.034-0.107-1.41
	c1.041-5.642,1.954-11.324,1.544-17.061c-0.372-5.191-1.143-10.362-4.198-14.844c-0.468-0.686-0.825-1.447-1.222-2.18
	c-0.544-1.008-1.047-2.027-2.266-2.438c-0.37-0.125-0.652-0.504-0.976-0.765c-1.029-0.832-1.266-1.882-0.766-3.074
	c0.362-0.864,0.764-1.717,1.221-2.534c0.797-1.422,1.652-2.814,2.606-4.427c0.65,0.675,1.294,1.098,1.59,1.694
	c1.41,2.838,3.939,4.246,6.705,5.277c3.056,1.139,6.292,1.567,9.524,1.482c3.521-0.092,5.965-2.214,7.811-5.034
	c0.792-1.211,1.287-2.625,2.649-3.499c1.101,0.408,1.432,1.467,1.783,2.383c0.816,2.132,1.505,4.316,2.21,6.491
	c0.479,1.479,0.9,2.976,1.414,4.687C226.488,90.273,224.987,93.58,223.982,97.103z M251.377,126.748
	c-1.131,2.584-2.653,4.954-4.573,7.057c-0.941,1.033-2.039,1.775-3.359,2.194c-1.678,0.532-3.249,0.433-4.784-0.565
	c-3.125-2.03-5.833-4.363-6.896-8.145c-0.25-0.891-0.772-1.703-1.143-2.562c-1.747-4.052-1.588-8.343-1.386-12.591
	c0.128-2.694,0.692-5.368,1.058-8.051c0.185-1.357,0.581-2.618,1.543-3.63c0.311,0.145,0.563,0.263,0.93,0.433
	c0.421-0.696,0.967-1.354,1.252-2.11c0.975-2.581,2.804-4.617,4.296-6.861c1.449-2.178,3.753-2.771,6.312-1.874
	c2.788,0.978,5.284,2.478,7.575,4.31c2.241,1.792,3.373,4.178,3.528,7.044C256.206,110.179,254.911,118.665,251.377,126.748z
	 M330.882,86.084c-0.52,2.663-1.108,5.282-1.94,7.876c-1.365,4.246-3.925,7.57-7.31,10.302c-1.863,1.502-3.89,2.808-5.889,4.133
	c-5.338,3.54-11.005,3.923-17.042,1.973c-3.538-1.143-5.822-3.485-7.743-6.695l-1.671-2.979c-0.524-0.762-1.057-1.557-1.383-2.414
	c-1.309-3.451-1.961-7.056-1.906-10.734c0.074-4.897,0.104-9.814,0.582-14.681c0.424-4.332,1.276-8.642,2.25-12.89
	c0.456-1.988,1.582-3.839,2.531-5.688c0.36-0.703,1.076-1.223,1.672-1.874c0.423,0.337,0.729,0.58,1.178,0.938
	c0.339-0.317,0.697-0.654,1.06-0.986c1.29-1.178,2.29-2.673,4.136-3.217c0.733-0.216,1.491-0.89,1.902-1.562
	c1.333-2.173,3.494-2.832,5.715-3.47c2.484-0.713,4.975-0.3,7.453-0.019c4.381,0.498,7.746,2.755,10.647,5.985
	c3.349,3.726,5.163,7.986,5.465,12.986c0.264,4.368,0.717,8.725,1.106,13.085C331.996,79.516,331.524,82.795,330.882,86.084z
	 M334.955,49.254c-1.136-1.162-1.611-2.614-2.078-3.994c0.151-0.305,0.2-0.532,0.338-0.664c3.066-2.938,4.396-2.77,7.705,0.06
	c1.025,0.876,2.002,1.811,3.048,2.66c1.246,1.015,2.172,2.149,2.435,3.831c0.337,2.148,0.973,4.253,1.274,6.405
	c0.169,1.208-0.079,2.475-0.133,3.714c-0.041,0.931-0.136,1.864-0.1,2.792c0.13,3.422-0.593,6.639-2.374,9.565
	c-1.081,1.776-2.286,3.48-3.482,5.182c-0.341,0.483-0.75,1.02-1.496,0.904c-0.131-0.154-0.359-0.298-0.368-0.454
	c-0.133-2.275-0.268-4.551-0.333-6.83c-0.035-1.186-0.302-2.241-1.043-3.193c-0.88-1.132-1.206-2.405-0.77-3.821
	c0.092-0.295,0.291-0.674,0.188-0.896c-1.06-2.272,0.114-4.722-0.598-7.029c-0.2-0.65-0.232-1.467-0.027-2.106
	c0.538-1.67,0.179-3.054-0.918-4.351C335.754,50.476,335.457,49.768,334.955,49.254z M346.127,105.435
	c-0.779-1.194-1.266-1.987-1.8-2.747c-0.777-1.106-1.552-2.22-2.4-3.271c-0.862-1.068-1.888-1.942-3.294-2.253
	c-1.082-0.24-1.9-0.821-2.336-2.16c0.639-1.421,1.784-2.833,1.874-4.685c0.081-1.646,0.387-3.281,0.601-4.981
	c0.862-0.098,1.592-0.306,2.294-0.236c2.975,0.296,5.224-1.183,7.275-2.993c1.782-1.573,3.398-3.334,5.107-5.031
	c1.13,0.274,1.205,1.385,1.502,2.175c0.677,1.803,1.875,2.654,3.757,2.719c0.6,0.021,1.192,0.203,1.916,0.333
	c-0.209,1.305-0.858,2.196-1.634,3.044c-1.266,1.384-2.576,2.738-3.728,4.213c-3.09,3.958-5.394,8.395-7.617,12.874
	C347.233,103.262,346.812,104.081,346.127,105.435z M380.817,113.328c-0.645,3.483-1.305,6.952-2.276,10.367
	c-0.746,2.619-1.663,5.113-3.064,7.476c-1.104,1.86-1.994,3.89-2.675,5.945c-0.868,2.617-2.707,3.724-5.204,3.544
	c-3.244-0.232-6.401,0.551-9.938,0.496c-0.245-0.707-0.561-1.271-0.625-1.864c-0.459-4.189-2.221-8.007-3.389-11.992
	c-0.111-0.383-0.4-0.718-0.634-1.056c-0.234-0.342-0.615-0.625-0.737-0.997c-1.092-3.356-2.108-6.737-3.219-10.087
	c-0.415-1.257-0.411-2.204,1.064-2.863c2.165-0.968,2.908-2.684,3.631-4.692c1.091-3.032,2.449-5.952,4.496-8.51
	c0.841-1.05,1.528-2.236,2.196-3.411c1.314-2.306,3.147-4.133,5.193-5.765c2.502-1.995,5.868-2.207,8.613-0.024
	c3.505,2.789,5.556,6.409,6.446,10.729C381.566,104.846,381.604,109.072,380.817,113.328z"/>
<path style="fill-rule:evenodd;clip-rule:evenodd;" d="M336.575,267.898c0.562,0.238,1.019,0.562,1.503,0.614
	c2.098,0.221,3.281,1.623,4.41,3.178c2.174,2.992,3.526,6.383,4.783,9.811c1.803,4.909,2.886,10.006,3.927,15.121
	c0.776,3.815,0.932,7.607,0.745,11.491c-0.133,2.725-0.624,5.332-1.085,7.992c-0.534,3.087-1.13,6.143-1.954,9.16
	c-0.743,2.717-1.56,5.397-3.029,7.842c-0.637,1.059-1.111,2.214-1.785,3.578c-0.582-0.659-1.021-1.158-1.468-1.665
	c-0.165,0.038-0.406,0.023-0.544,0.136c-0.693,0.569-0.994,1.644-2.372,1.652c-0.644-0.672-1.1-1.544-0.959-2.652
	c0.093-0.722,0.275-1.432,0.426-2.145c0.535-2.546,1.405-5.008,1.601-7.644c0.099-1.321,0.602-2.646,1.104-3.898
	c0.922-2.299,1.042-4.654,0.795-7.065c-0.086-0.831-0.215-1.656-0.292-2.486c-0.061-0.646,0.042-1.229,0.663-1.632
	c0.767-0.499,0.843-1.353,0.32-1.891c-1.312-1.353-1.3-3.079-1.375-4.68c-0.197-4.199-1.039-8.29-1.975-12.343
	c-1.149-4.98-2.869-9.797-5.491-14.235c-0.098-0.167-0.31-0.269-0.608-0.518c-0.4,0.415-0.874,0.793-1.207,1.271
	c-1.672,2.395-3.297,4.821-4.965,7.22c-0.348,0.499-0.8,0.927-1.224,1.369c-1.999,2.097-4.337,3.511-7.311,3.722
	c-0.718,0.052-1.412,0.396-2.132,0.486c-1.405,0.179-2.521,1.445-4.172,0.86c-1.229-0.435-2.605-0.443-3.912-0.662
	c-0.721-0.12-1.427-0.329-2.15-0.419c-6.11-0.762-11.209-3.744-16.005-7.345c-0.811-0.608-1.378-1.543-2.037-2.344
	c-0.714-0.864-1.219-1.917-2.334-2.697c-0.39,0.612-0.769,1.082-1.016,1.612c-2.063,4.443-4.091,8.904-6.153,13.346
	c-1.053,2.268-2.168,4.504-3.229,6.767c-0.528,1.125-0.996,2.278-1.491,3.419c-0.376,0.867-1.264,1.133-2.047,0.564
	c-0.403-0.293-0.758-0.979-1.113-0.964c-1.801,0.074-2.012-1.234-2.234-2.45c-0.147-0.805-0.206-1.713,0.014-2.483
	c0.569-1.985,0.451-4.146,1.586-5.994c0.312-0.507,0.28-1.212,0.48-1.801c0.533-1.576,1.022-3.177,1.688-4.698
	c1.039-2.378,2.24-4.687,3.318-7.049c1.7-3.722,3.897-7.138,6.396-10.357c1.125-1.451,1.702-2.879,1.637-4.835
	c-0.113-3.35,0.841-6.627,1.856-9.796c1.177-3.668,2.68-7.229,4.604-10.599c2.62-4.594,6.579-7.814,10.984-10.454
	c1.834-1.1,4.096-1.527,6.336-1.502c1.356,0.017,2.714,0.047,4.07,0.011c3.839-0.099,7.479,0.729,10.865,2.497
	c2.397,1.251,4.768,2.586,7.015,4.086c2.382,1.591,4.01,3.8,5.129,6.525c1.216,2.958,1.92,5.93,1.837,9.109
	c-0.013,0.521-0.04,1.061,0.073,1.562c1.05,4.603,0.033,9.117-0.534,13.652C336.523,267.351,336.548,267.457,336.575,267.898z
	 M327.587,256.474c-0.138-3.91-0.635-8.321-1.915-12.678c-0.852-2.89-2.613-4.696-5.225-5.809c-3.309-1.41-6.758-1.979-10.38-1.62
	c-1.548,0.154-2.863,0.727-3.965,1.668c-1.571,1.344-2.926,2.94-4.474,4.315c-1.371,1.219-2.295,2.72-2.945,4.36
	c-1.613,4.075-3.029,8.216-3.547,12.607c-0.114,0.971-0.033,1.863,0.548,2.684c0.703,0.993,0.536,1.925-0.179,2.864
	c-0.358,0.472-0.787,1.043-0.816,1.589c-0.247,4.668,0.865,8.951,4.241,12.332c2.915,2.919,6.361,5.023,10.458,5.979
	c3.742,0.873,6.722-0.134,9.067-3.25c0.564-0.749,1.092-1.529,1.63-2.299C324.737,272.562,327.553,265.287,327.587,256.474z"/>
<path style="fill-rule:evenodd;clip-rule:evenodd;" d="M405.679,243.179c2.76,3.728,3.759,7.949,3.883,12.369
	c0.077,2.695-0.278,5.402-0.419,8.105c-0.049,0.934-0.167,1.892-0.021,2.802c0.599,3.736,0.431,7.497,0.38,11.247
	c-0.047,3.536-0.294,7.07-0.45,10.554c-1.899,1.512-1.899,1.512-2.736,4.209c-0.444-0.13-0.911-0.216-1.333-0.402
	c-0.518-0.229-0.984-0.265-1.475,0.045c-0.946,0.598-1.941,0.636-3.104,0.225c-0.107-0.688-0.32-1.396-0.31-2.1
	c0.047-3.025,0.012-6.062,0.288-9.067c0.326-3.566,0.103-7.073-0.447-10.585c-0.079-0.505-0.112-1.027-0.086-1.538
	c0.237-4.637-0.716-9.113-1.817-13.568c-0.042-0.173-0.26-0.301-0.529-0.597c-0.418,0.196-0.863,0.394-1.296,0.612
	c-1.576,0.8-3.112,1.692-4.732,2.389c-1.848,0.794-3.778,1.056-5.809,0.574c-1.102-0.26-2.282-0.164-3.415-0.319
	c-2.062-0.281-4.187-0.398-6.148-1.019c-1.749-0.553-3.318-1.683-4.954-2.581c-0.442-0.243-0.836-0.573-1.359-0.938
	c-0.989,1.303-1.229,2.738-1.54,4.121c-0.456,2.033-0.802,4.091-1.227,6.132c-0.211,1.018-0.498,2.019-0.736,3.031
	c-0.19,0.812-0.478,1.624-0.515,2.444c-0.201,4.464-0.591,8.92,0.668,13.346c0.441,1.555,0.466,3.347,0.201,4.951
	c-0.262,1.59-0.349,3.072,0.073,4.614c0.135,0.487,0.12,1.016,0.177,1.552c-1.816,0.438-3.255,1.355-4.444,2.661
	c-2.183-0.657-3.088-2.126-3.481-4.109c-0.957-4.828-1.392-9.704-1.427-14.618c-0.049-6.788,0.16-13.557,1.714-20.215
	c0.495-2.126,0.818-4.294,1.342-6.412c0.575-2.328,1.314-4.552,3.159-6.332c1.098-1.06,1.923-2.48,2.596-3.871
	c0.479-0.99,0.683-2.2,0.691-3.314c0.037-4.506,1.25-8.665,3.605-12.457c2.112-3.404,4.857-6.224,8.349-8.289
	c1.178-0.697,2.415-0.949,3.586-0.432c2.003,0.884,3.998,0.898,6.106,0.632c3.759-0.474,7.276,0.654,10.57,2.235
	c1.894,0.91,3.92,2.053,4.366,4.527c0.019,0.102,0.036,0.233,0.104,0.292c1.9,1.611,1.949,4.068,2.772,6.16
	c1.522,3.865,1.196,7.716-0.415,11.501C405.883,242.216,405.801,242.737,405.679,243.179z M397.247,236.954
	c0.189-2.494-0.946-5.317-1.988-8.16c-0.997-2.713-2.887-4.263-5.831-4.345c-0.718-0.02-1.453,0.066-2.158,0.211
	c-1.328,0.271-2.632,0.665-3.961,0.926c-3.866,0.759-5.626,2.498-6.26,6.29c-0.103,0.616-0.196,1.246-0.188,1.867
	c0.037,2.606,0.072,5.215,0.201,7.818c0.046,0.923,0.276,1.858,0.56,2.745c0.785,2.463,2.434,4.167,4.943,4.786
	c1.913,0.472,3.901,0.652,5.861,0.934c2.439,0.349,4.334-0.761,5.716-2.573C396.339,244.57,397.638,241.318,397.247,236.954z"/>
<path style="fill-rule:evenodd;clip-rule:evenodd;" d="M154.939,18.158 M155.745,20.245c0.177,0.354,0.482,0.708,0.529,1.092
	c0.327,2.63,2.148,3.85,4.352,4.739c0.47,0.189,1.082,0.991,1.374,1.339c1.937,2.311,2.251,3.753,5.525,6.444
	c0.548,0.45,1.745,5.781,2.007,6.51c-1.155,0.856-2.625,0.768-3.781,1.382c-0.668,0.354-1.083,2.001-3.173-3.168
	c-1.327-2.998-1-1.401-1.827-2.415c-0.65-0.797-2.662-1.073-3.485-2.008c-0.475,0.503-0.875,0.806-1.12,1.204
	c-1.523,2.488-2.927,5.054-4.531,7.486c-2.276,3.452-5.792,5.016-9.705,5.544c-2.907,0.392-5.486-0.968-7.935-2.417
	c-0.703-0.416-1.363-0.906-2.175-1.452c-1.646,2.645-1.429,5.755-2.848,8.279c-0.243,2.909-0.755,5.77-1.423,8.496
	c-2.284,1.729-4.801,1.135-7.214,1.157c-0.771,0.007-1.404-0.599-1.41-1.401c-0.006-0.92,0.04-1.889,0.313-2.758
	c1.218-3.874,2.527-7.721,3.803-11.577c0.262-0.792,0.571-1.572,0.77-2.379c0.608-2.459,1.584-4.753,3.061-6.81
	c0.913-1.271,1.31-2.514,0.668-4.073c-0.903-2.19-0.622-4.521-0.466-6.807c0.143-2.079,0.354-4.154,0.584-6.226
	c0.15-1.344,0.309-2.699,0.612-4.014c0.454-1.968,1.303-3.734,3.082-4.897c0.348-0.228,0.663-0.507,0.984-0.774
	c4.554-3.805,5.846-3.607,10.677-2.919c4.11,0.587,8.088,2.139,10.392,6.146c0.201,0.351,0.495,0.665,0.803,0.931 M136.288,24.19
	c-0.107,3.881,0.627,6.909,1.293,9.954c0.469,2.136,1.593,3.812,3.228,5.191c2.241,1.891,3.427,1.836,5.099-0.612
	c2.014-2.951,3.258-6.257,3.595-9.841c0.432-4.603-0.653-8.853-2.987-12.841c-0.724-1.236-1.706-1.939-3.008-1.803
	c-1.529,0.16-3.04,0.613-4.514,1.08c-0.388,0.124-0.67,0.741-0.897,1.184C136.741,19.143,136.047,21.934,136.288,24.19z"/>
<path style="fill-rule:evenodd;clip-rule:evenodd;" d="M170.748,40.905c3.173-0.946,5.603,0.833,8.105,2.3
	c0.167,0.098,0.313,0.288,0.396,0.468c0.601,1.32,1.202,2.642,1.766,3.977c0.281,0.668,0.384,1.429,0.752,2.037
	c0.363,0.599,0.365,1.984,0.796,2.438c-0.022,2.688-1.372,3.442-2.491,5.558c1.104,1.504,3.123,1.953,3.717,3.782
	c0.382,1.174,0.859,2.318,1.377,3.694c-1.382,0.408,1.483,9.428,0.501,10.259c-1.278,1.082-6.483-7.698-7.163-9.227
	c-0.625-1.409-0.868-2.994-2.054-4.354c-0.538,0.212-1.117,0.374-1.628,0.66c-0.541,0.303-1.005,0.742-1.524,1.088
	c-2.766,1.852-5.746,2.373-8.927,1.312c-1.079-0.36-2.102-0.883-3.339-1.414c-0.283,0.437-2.236,0.868-2.469,1.393
	c-0.375,0.846,1.833,10.541,0.771,10.292c-0.215-0.05-3.109,1.91-3.333,2.083c-0.576,0.444,0.423-4.672-0.167-4.25
	c-0.544,0.39-1.35-5.031-1.594-5.628c-0.117-0.286-0.246-0.584-0.271-0.886c-0.23-2.64,0.083-5.198,1.259-7.604
	c0.513-1.047,1.203-1.96,2.23-2.555c0.996-0.577,1.448-1.433,1.489-2.568c0.132-3.567,1.896-5.737,3.598-8.581
	c0.238-0.398,4.912-2.997,5.143-3.427 M166.278,54.666c0.068,0.018,0.135,0.035,0.202,0.054c0,0.415-0.029,0.832,0.005,1.244
	c0.125,1.472,0.83,1.957,2.33,1.632c2.585-0.56,4.447-2.176,5.971-4.212c0.341-0.455,0.47-1.161,0.48-1.754
	c0.031-1.641-0.73-3.026-1.785-4.198c-0.62-0.688-1.481-1.218-2.506-0.906c-1.349,0.41-2.523,1.303-3.044,2.506
	C167.161,50.813,166.81,52.778,166.278,54.666z"/>
<path style="fill-rule:evenodd;clip-rule:evenodd;fill:#FFFFFF;" d="M212.782,295.396c-0.145,0.049-0.29,0.099-0.436,0.148
	c-0.01-0.046-0.019-0.092-0.028-0.138c0.155,0.028,0.312,0.058,0.467,0.087C212.785,295.494,212.782,295.396,212.782,295.396z"/>
<g>
	<g>
		<path d="M179.216,265.512c2.133,4.177,7.141,7.878,11.375,9.641c5.056,2.104,10.025,0.108,14.045-2.994
			c2.514-1.939,0.029-6.287-2.523-4.316c-3.364,2.596-5.911,3.689-10.192,2.489c-2.728-0.765-7.085-4.793-8.387-7.343
			C182.067,260.116,177.753,262.646,179.216,265.512L179.216,265.512z"/>
	</g>
</g>
<g>
	<g>
		<path d="M189.753,255.25c3.224,0,3.224-5,0-5S186.529,255.25,189.753,255.25L189.753,255.25z"/>
	</g>
</g>
<g>
	<g>
		<path d="M197.667,255.25c3.225,0,3.225-5,0-5C194.443,250.25,194.443,255.25,197.667,255.25L197.667,255.25z"/>
	</g>
</g>
</svg>
