<?xml version="1.0" encoding="utf-8"?>
<!-- Generator: Adobe Illustrator 16.0.0, SVG Export Plug-In . SVG Version: 6.00 Build 0)  -->
<!DOCTYPE svg PUBLIC "-//W3C//DTD SVG 1.1//EN" "http://www.w3.org/Graphics/SVG/1.1/DTD/svg11.dtd">
<svg version="1.1" id="Layer_1" xmlns="http://www.w3.org/2000/svg" xmlns:xlink="http://www.w3.org/1999/xlink" x="0px" y="0px"
	 width="190px" height="144px" viewBox="0 0 190 144" style="enable-background:new 0 0 190 144;" xml:space="preserve">
<path style="fill-rule:evenodd;clip-rule:evenodd;fill:#D6D6D6;" d="M19.7,113.2c0.5-9.6,0.8-17.9-1.5-26.1
	c-0.3-1.2-0.7-2.8,0.7-3.6c1.2-0.7,2.1,0.5,3.1,1c4.1,1.8,7.5,6.2,11.9,5.7c4.2-0.4,6.3-5.5,9.7-8.2c1.6-1.2,3.1-2.5,4.9-3.5
	c2.3-1.4,3.2-3.1,2.3-5.8c-1.1-3.1,0-5.1,3.2-3.3c5.4,3.2,10.8,1.8,16.4,1.2c7.7-0.8,15.3-0.3,21.7,5c5.2,4.3,6,10.5,7.3,16.5
	c0.5,2.4-0.4,9.6-2.4,9.2c-3.1-0.6-7.4-2.5-10.5-1.6c-1.6,0.5-3.8,1-5.2,1.9c-3,2-2,4.5,0.8,3.8c3.7-1,0.1,0.3,3.7-1
	c2.2-0.8,4.4-0.6,6.5-1.5c1.4-0.6,6.5,0,6.7,3c0.2,2.1,0.4,3.1-0.3,4.6c-1.4,3.1-3.7,5.6-6.8,7c-6,2.8-12.3,4.2-18.9,2.9
	c-3.9-0.8-7.4-1.1-11.1,1c-2.9,1.6-5.3,1.5-4.7-2.9c0.3-2.2-0.9-3.3-2.7-4.2c-5.8-2.9-11.3-6.4-16.3-10.5c-2.1-1.8-4.1-1.8-6.3-0.1
	C28.2,106.6,24.4,109.5,19.7,113.2z"/>
<path style="fill-rule:evenodd;clip-rule:evenodd;fill:#FFFFFF;" d="M90,90.1c-1.4-0.1-3.5,0-3.2-1.4c0.4-1.9,3.4-1.9,5.7-2.2
	c1.5-0.1,2.8,0.4,2.6,1.4C94.6,89.6,92.6,90.2,90,90.1z"/>
</svg>
