<?xml version="1.0" encoding="utf-8"?>
<!-- Generator: Adobe Illustrator 16.0.0, SVG Export Plug-In . SVG Version: 6.00 Build 0)  -->
<!DOCTYPE svg PUBLIC "-//W3C//DTD SVG 1.1//EN" "http://www.w3.org/Graphics/SVG/1.1/DTD/svg11.dtd">
<svg version="1.1" id="Layer_1" xmlns="http://www.w3.org/2000/svg" xmlns:xlink="http://www.w3.org/1999/xlink" x="0px" y="0px"
	 width="190px" height="144px" viewBox="0 0 190 144" style="enable-background:new 0 0 190 144;" xml:space="preserve">
<style type="text/css">
<![CDATA[
	.st0{fill-rule:evenodd;clip-rule:evenodd;fill:#D6D6D6;}
	.st1{fill-rule:evenodd;clip-rule:evenodd;fill:#D7D7D7;}
	.st2{fill-rule:evenodd;clip-rule:evenodd;fill:#D8D8D8;}
	.st3{fill-rule:evenodd;clip-rule:evenodd;fill:#D9D9D9;}
	.st4{fill-rule:evenodd;clip-rule:evenodd;fill:#DADADA;}
	.st5{fill-rule:evenodd;clip-rule:evenodd;fill:#DBDBDB;}
	.st6{fill-rule:evenodd;clip-rule:evenodd;fill:#F4F4F4;}
	.st7{fill-rule:evenodd;clip-rule:evenodd;fill:#F7F7F7;}
	.st8{fill-rule:evenodd;clip-rule:evenodd;fill:#FDFDFD;}
	.st9{fill-rule:evenodd;clip-rule:evenodd;fill:#FFFFFF;}
]]>
</style>
<g>
	<path class="st1" d="M73.9,70.5c-2.3-3.7-6-3.6-9.3-2.7c-5.2,1.4-8.9-3-13.8-2.7c-0.5,0-0.9-0.9-0.5-1.7c0.4-0.9,1.2-1,2.1-1
		c4.5,0.2,9.3-3,13.5,1.9c0.8,0.9,5,1.9,7.5-0.5c-1.5-1.7-3.1-2.2-5-2.4c-1.2-0.1-2.8,0.4-3.4-1.3c-0.7-2,1.3-2.3,2.4-3.6
		c-2.5-1.1-4.6-2.7-7.4-2.6c-1.1,0-2,0.3-2.1-1.2c-0.1-1.4,0.5-2.2,2-2.2c3.3,0,6.6,0.6,7.5-4.2c0.3-1.7,2.7,0.3,4-0.2
		c2.7-1.1,5.6-0.5,8.4-0.6c0,0,0,0,0,0c1.2,2,3.2,3.4,3.7,5.8c1.8-1,2.1-2.4,2.4-3.8c0.3,0,0.5,0,0.8,0c2.9,2,5.7-0.5,8.6-0.1
		c4.5,0.6,5.8,2.2,4.5,6.1c-2.7,0.2-5.3-0.1-7.8-1c-0.7-0.3-2.4-1.4-2.3-0.1c0.2,4-4.1,3.8-6.2,7.3c6.4-1.2,10.7-6,16.4-5.2
		c0.5,0,1,0,1.5,0c2.8,0.2,5.3,1.7,4.9,4.4c-0.4,2.6-3.6,1.6-5.6,1.5c-1.6,0-3.2-0.6-4.8-0.9c0-0.1-0.1-0.2-0.1-0.3
		c0-0.1-0.2-0.1-0.3-0.1c0.1,0.1,0.3,0.3,0.4,0.4c0.5,1.4,2.1,2.3,1.5,4.3c-0.6,2.1,1.4,1.5,2.5,1.7l0,0c0.3,1.7,2.7,3.1,1.2,4.9
		c-1.6,1.9-4,1.3-6.1,0.9c-2.7-0.6-4.9-2.7-7.8-2.9c-0.8-0.1-1.1-0.7-1.1-1.4c0-0.7,0.5-1.2,1.2-1.3c1.1-0.1,2.3-0.1,4.1-0.3
		c-2.3-2-4.3-3-6.8-2.9c-1.4,0.1-3.2-0.5-4.2,0.8c-1.2,1.7,0.6,2.6,1.4,3.7c1.5,2.1,0.5,3.2-1.5,3.4C78.3,70.7,76.1,70.5,73.9,70.5
		L73.9,70.5z M69.6,49.6c5.4,5.3,6.5,5.6,10.2,2.4C76.2,51.5,73.3,49.4,69.6,49.6z"/>
	<path class="st2" d="M163.9,47.5c-5.5-3-9.9-7.9-16.4-9c-0.9-0.2-2.2,0.1-2.1-1.4c0.1-1.1,1.2-1.6,2.2-1.5c5.1,0.1,10.2,0,15.2,0.5
		c2.9,0.3,5.5-1.1,8.3-0.7c3,0.5,5.7,1.2,5.2,5c-0.2,1.8,0.7,1.7,1.7,2.3c2.1,1.2,3.9,2.8,2,5.5c-1.5,2.1,0.9,1.9,1.6,2.7
		c1.9,2.1,1.3,4.4-1.2,4.2c-4.9-0.3-3.5,2.8-3.6,5.2c-2.7,0-5.4,0-8.5,0c3.5,4.3,4.9,4.2,8.6,0.1c1.3,0,2.6,0,3.9,0
		c1.8-0.1,3.3,0.4,4.3,1.8c1.4,2-0.9,2.8-1.5,4.2c-1.9,0-3.9,0-5.9,0c-3.1,0.1-6.7-0.8-5.2,4.7c0.4,1.6-1.6,2-3.2,2.3
		c-4.3,0.6-7.4-3.7-11.8-2.6c0,0-0.6-1.1-0.5-1.7c0.1-1.5,1.3-1.7,2.6-1.7c3.2,0,6.4,0,9.6-0.9c-4-0.4-7.8-3-12-0.9
		c-3,1.5-5.6-0.3-7.9-1.6c-1.9-1.1-5.5,0.6-5.5-1.7c0-3.6,4.2-1,6.1-2.5c0.2-0.2,0.6-0.3,1.1-0.7c-1.5-1-2.8-1.9-4.2-2.8
		c0-1,0-2,0-3c1.7,0,3.3-0.1,5-0.1c0.7,1.1,1.4,1.1,2.1,0c1,0,2,0,3,0l0,0c0.2,1.1,0.5,2.2,0.7,3.3c0.1,0.9-2.5,2.3,0.4,2.7
		c1.3,0.2,2.8-0.1,2.8-1.9c0-2.9,1.2-3,3.8-2.5c2.3,0.4,4.7-0.6,8.4-1.1c-1.8-0.3-2.3-0.4-2.8-0.4c-1.4-0.1-3.3,0.2-3.2-2
		c0.1-2.5,1.8-1.6,3.2-1.3c1.5,0.3,2.9-0.2,4.1-1.7c-2.1-1.2-3.6,0.4-5.2,0C167.5,48,165.7,47.8,163.9,47.5L163.9,47.5z M168.9,41.3
		c-1.6-1-2.7-2.2-4-2.5c-1.9-0.4-4.2,0.5-4.4,2.3c-0.2,2.2,2.2,1.2,3.5,1.3C165.4,42.5,167,42.9,168.9,41.3z"/>
	<path class="st2" d="M103.9,139.5c-1.3-1.3-2.7-2.5-4.5-2.9c-1.1-0.3-2.7-0.1-2.3-1.8c0.4-2,1.9-0.3,2.8-0.6
		c0.4-0.1,0.8-0.4,1.2-0.6c-0.1-0.4-0.1-0.7-0.3-1c-1.1-1.7-4.2-0.1-4.7-2.8c-0.1-0.7,0.6-1.2,1.3-1.2c2.9,0.1,6.1-1.2,8.5,1.5
		c1.2,1.4,2.7,5,3.6,3.8c2.5-3.4,8.4-1.1,9.2-6c0.4-2.2,2-2.1,3.7-3.2c-3.5,0-5.6-2.4-8.6-2.3c-1.5,0.1-2.1-0.9-1.9-2.3
		c0.2-1.4,1.1-1.3,2.2-1c1.5,0.4,3.4,0.8,3.8-1c0.4-1.9-1.7-1.5-2.8-1.8c-1.2-0.4-1.4-1.3-1.2-2.4c0.1-0.7,0.7-1.3,1.4-1
		c3.7,1.4,7.7-0.4,11.3,1.1c2.6,1,4.4,2.7,1.1,4.8c-2.9,1.8-0.4,3.6-1.4,5.5c1.6-0.1,2.1-0.8,2.4-1.6c2.7-6.4,8.7-5.3,13.8-6.1
		c1.4-0.2,2.7,0.4,3.1,2c0.3,1.3-0.4,2.4-1.5,2.9c-2.4,1.1-3.9,2.1-1.6,4.9c0.9,1.1-0.4,2.1-1.7,2.3c-3.8,0.6-6.2-2.8-9.8-3.9
		c0.1,2.1,2.9,3.5,0.5,5.2c-2.7,2-1.2,2.9,1,3.4c2.4,0.5,4.7,1.5,7.3,1.1l0,0c0,0.9,0.2,1.6,1,2c0.5,1.2,1.4,2.7-0.3,3.4
		c-2.2,1-4.9,1.4-6.6-0.3c-2.6-2.6-6.6-4-7.3-8.3c-0.2-1-1.1-1.8-2.2-1.7c-1.8,0.2-0.6,1.5-0.7,2.3c-0.7,3.4-3.5,2.2-5.6,2.6
		c-2.4,0.4-5.6-1.9-6.1,3.5C111.7,141,106.7,139,103.9,139.5L103.9,139.5z"/>
	<path class="st2" d="M27.8,89.6c-3,0.5-5.2-1.6-7.9-2.2c0-1,0-1.9,0-2.9c1-0.6,2-1.3,2.9-1.9c1.1-0.8,1-1.5-0.1-2.1
		c-0.1-4.5-3.7-4.3-6.7-5c-1.1-0.3-3,0.5-2.6-1.8c0.3-1.5,1.5-1.3,2.9-1.7c6.3-1.8,12,1.5,18,2.4c0-1.9-1-2-1.7-2
		c-6.7-0.7-10.8-7-17.4-7.9c-0.7-0.1-1.2-0.6-1.2-1.3c0-1,0.7-1.5,1.6-1.5c2.4,0,4.9,0,7.8,0c-1.8-3-4.1-3.1-6.4-3.1
		c-1.4,0-2.2-0.7-2.1-2.1c0.2-1.8,1.4-1.4,2.6-1.1c1.8,0.6,3.6-0.2,5.3-0.5c4.3-0.8,7.1,1.3,7.9,5.8l0,0c-1.3,0.3-3.6,0.3-3,2.1
		c0.5,1.5,0.7,4.2,3.6,4c2.1-0.1,4.3,0,6.4,0l0,0c0.6,1.9,3.2,2.9,2,5.6c-1,2.1,1.4,1,2,1.6c1.6,1.6,6.3,2.2,2,5.9c-2,0-4-0.3-5.9,0
		c-2.7,0.4,0.2,1.4-0.1,2.1c0,0.6,0,1.2,0,1.8c-1.6,1.2-3.4,1.3-5.2,1.1c-2.7-0.2-2.7,1.1-1.7,3c-0.3,0.4-0.7,0.7-1,1.1
		c0,0.3,0,0.6,0,0.9C29.3,89.5,28.5,89.5,27.8,89.6z M28.3,84.1c-0.3-0.1-0.5-0.1-0.7-0.2c0,0.1,0.1,0.2,0.1,0.4
		C27.9,84.2,28.1,84.2,28.3,84.1z"/>
	<path class="st2" d="M138.9,86.5c0,2.2-1.7,4.7,2,5.9c1.6,0.5,1.1,2.5-0.3,3.7c-1.5,1.3-11.7,2.1-13.4,1c-0.4-0.2-0.8-0.7-0.9-1.1
		c-0.1-0.7,0.3-1.2,1.1-1.3c0.7-0.1,1.3-0.1,1.9-0.4c1.2-0.5,2.9-0.9,3-2.3c0.2-1.7-1.6-1.2-2.6-1.5c-1.4-0.4-3.2-1.9-4,0.8
		c-0.6,2.1-3.4,3.2-1.4,6.4c1.4,2.2-2,3-3.8,3.3c-1.5,0.3-3.2-0.3-4.8-0.4l0,0c-0.4-0.9-1.2-1-2-1l0,0c-0.5-1.2-1.4-1.8-2.6-2
		c-1.2-0.1-2.6-0.3-2.1-2c0.5-1.5,1.9-1.2,2.9-0.8c1.6,0.6,2.9,0.5,4.5-1.1c-6.4-2-9-9.1-15.7-10.2c0-0.6,0-1.2,0-1.8
		c4.2-0.5,8.4-0.5,12.4,0.3c3.6,0.7,3.8,2.2,1.2,6.2c5.7,2,10.3-2.1,15.4-2.6c0.3,0,0.8-0.1,0.9-0.3c3.5-5,3.5-4.9,9.5-4.8
		c2.5,0.1,5.1,0.6,5.2,3.4c0.1,3.6-3.1,2.4-5.2,2.7C139.9,86.6,139.4,86.5,138.9,86.5c-0.1-0.1-0.3-0.2-0.4-0.2
		C138.6,86.4,138.8,86.4,138.9,86.5z"/>
	<path class="st2" d="M133.7,19.8c-1-1.8-4,0.7-3.7-2.4c0.3-2.6,2.4-1.8,3.9-1.8c2.2-0.1,4.3-0.1,6.5-0.1c2.1,0,3.6,0.9,4.3,2.8
		c0.7,1.8-1,2.3-2.1,3.3c-1.5,1.6-0.9,4.3-3.1,6.7c4.8-0.9,8.8-1.7,12.1,1.4c0.5,0.4,1.2,0.8,1.7,0.1c0.6-0.8,0.4-1.6-0.2-2.2
		c-1.3-1.3-3-2.1-4.9-2.1c-1,0-2.1-0.1-2.2-1.4c0-1.3,1-1.6,2.1-1.5c2,0.1,4-0.3,5.9-0.9c1.5-0.5,3.5,0,4.2,0.9
		c3,3.5,6.3,6.1,10.3,8.4c2,1.1,0.9,2.9-1.2,3.4c-1.1,0.3-2.6,0.5-3.4,0c-5.1-2.9-10.3-2.1-15.7-0.9c-3.9,0.9-7.1-2.8-11.1-2.1
		c-0.2,0-0.7-0.4-0.7-0.5c0.2-6.2-4.6-5.7-8.5-6.4c-1.1-0.2-2-0.4-1.6-1.8c0.3-0.9,0.8-2.2,2-1.7C130.5,21.7,132,21.2,133.7,19.8z"
		/>
	<path class="st2" d="M27.8,89.6c0.7,0,1.4,0,2.1,0c1.1,1.3,2.5,1.2,3.2,0c1.2-1.9,3.1-2.3,4.9-2.8c4.3-1.3,1.3-2.2-0.1-3.3
		c0-0.6,0-1.2,0-1.8c2-0.9,4,0,6-0.2c0.5-0.1,1.3,0,1.4-0.3c1.6-4.1,5.3-4.6,8.8-5.7c0.5,0,1.1,0,1.6,0.1c3.4,0.1,7.7,1.6,7.2,4.5
		c-0.7,4.3-5,2-8,1.5c-0.3,0-0.6,0.1-1.2,0.2c-0.2,1.6,2.3,3.2,0.4,4.8c-1.6,1.4-3.4,1.1-5.2,0.4c-2.6-1-4.9-1.5-6.2,2.1
		c-0.7,2-6.2,0.3-4,4.9c0.1,0.2,0,0.7-0.2,0.9c-1.6,2.5-6.1,0.6-7,5.6c-0.4,2.5-5.9,0.6-8.9-0.8c-1-0.5-1.9-1.3-3.2-0.9
		c-1.2,0.4-2.4,0.7-2.5-1.1c-0.1-1.4,0.7-2.2,2.2-2.1c2.5,0.2,4.3,0.2,4-3.4C23,89.4,26.8,91.5,27.8,89.6z"/>
	<path class="st2" d="M136.9,51.5c1,3.3,0.1,7,3.8,9.7c2.8,2-0.9,2.8-2.2,4c1.4,2.1,3.1,1.1,4.8,0.7c2.3-0.6,4.6-0.6,6.7,0.8
		c3.1,2,2.1,4-0.2,5.9l0,0c-4.4,0.1-7.9-3.5-12.4-3.1c-0.3,0-1.1-0.5-1.1-0.8c-0.2-7.4-6.4-5.6-10.6-7c0-0.4,0-0.7,0-1.1
		c0.9-3.8,4.4-0.7,6.4-2.7c-2.8-1-4.9-3.4-8.1-2.8c-1.1,0.2-2,0.4-2.1-1c-0.1-1.4,0.4-2.2,1.9-2.3c3.7-0.3,7.5-0.7,11.2-1
		c0.2,0,0.4,0,0.5,0C136.2,50.8,136.5,51.2,136.9,51.5L136.9,51.5z"/>
	<path class="st2" d="M113.9,55.5c-3.5,0.6-6.1-2.4-9.6-2.2c-0.8,0.1-1.2-0.7-1.1-1.4c0.1-1,0.8-1.5,1.7-1.5
		c3.3,0.2,5.8-0.5,6.7-4.3c0.2-1,1.8-0.6,2.7-0.8c2-0.4,3.8-1.2,5.3-2.6c1.1-1.1-0.3-4.3,1.9-4c3.7,0.5,7.2-1.4,10.8-0.1
		c1.7,0.7,3.6,1.8,3.4,3.8c-0.2,2.2-2.4,1.9-4,1.9c-2.3-0.1-4,0.3-5.6,2.3c-2,2.5-4.8,3.3-8.1,2.2c-1-0.4-2.1-0.9-3.2,0.1
		c0.2,2.4,7.2,2.3,2.3,6.5C115.9,55.5,114.9,55.5,113.9,55.5z"/>
	<path class="st2" d="M115.9,100.5c0,2.3,0,4.7,0.1,7c-0.4,0-0.7,0-1.1,0c-6.8-2.4-13.2-5.5-19.5-9c-1.4-0.8-3.1-1.2-4.8-1.1
		c-1.1,0.1-2.6,0.2-2.1-1.7c0.3-1.2,0.8-1.9,2.4-1.8c2.9,0.1,5.9-0.3,8.9-0.9c-2-0.6-3.3-2.6-5.8-2c-0.8,0.2-1.7,0.4-1.9-0.8
		c-0.2-1.1,0.3-2.2,1.4-2.3c3.6-0.2,7.2-0.4,10.8-0.3c1.8,0.1,3.2,1.3,3.4,3.1c0.3,2.3-1.5,2.7-3.3,2.8c-1.4,0.1-2.7,0.5-1.2,1.8
		c1.7,1.4-2.3,6,2.8,5c2.6-0.5,5.2-1,7.9-0.9l0,0C114.3,100.4,115.1,100.6,115.9,100.5L115.9,100.5z"/>
	<path class="st2" d="M114.9,62.5c0.8,2.7,1,4.7,5.3,3.3c3.2-1,7.4-2.8,11-0.2c1.3,1,3.2,1.9,2.3,3.9c-0.7,1.7-2.5,2.2-4.3,1.8
		c-1.8-0.4-3.5-1.1-5.2-1.8c-2.4-1-5.4-3.1-4.4,2.4c0.2,1.2-1.1,1.4-2.1,1.6c-4.5,1-8.3-1.9-12.6-2.3c-0.6-0.1-1-0.8-0.8-1.6
		c0.6-2.1,2.7-0.6,4.1-1.7c-2.1-3.2-5.4-2.3-8.4-2.5l0,0c0.2-2.6,1.9-3.1,4.2-3C107.7,62.6,111.3,62.5,114.9,62.5L114.9,62.5z"/>
	<path class="st3" d="M91.9,113.5c0.3,1.3,2.7,2.2,1.3,3.8c-1.3,1.5-3.3,2-5.4,1.6c-3-0.6-5.6-2.9-9-2.5c-0.9,0.1-1.7-0.4-1.4-1.5
		c0.3-1.1,0.6-2.5,2.2-2c3.5,1.1,5.3-0.7,6.3-3.8c0.5-1.7,1.6-1.2,2.7-0.9c1.5,0.4,3.1,0.5,3.2-1.8c0.7,0,1.4,0,2,0c2,2.4,4,0,6-0.1
		c0,0.7,0,1.4,0,2.1c0.3,0.3,0.7,0.7,1,1l0,0c0.5,4.4-1.5,5.7-5.6,4.6C94.2,113.8,93.1,113.7,91.9,113.5c-0.1-0.2-0.2-0.3-0.4-0.5
		C91.6,113.2,91.8,113.4,91.9,113.5z M88.6,111.9c0,0.1,0,0.3,0.1,0.3c0.1,0.1,0.3,0.1,0.4,0.1c0-0.2-0.1-0.4-0.1-0.6
		C88.9,111.8,88.7,111.8,88.6,111.9z"/>
	<path class="st3" d="M62.4,89.7c-1.1-3.4-5.7-0.7-4.9-4c0.6-2.4,3.8-0.9,5.7-1.2c2-0.2,4-0.1,6,0c1.6,0.1,3,1.1,3.3,2.6
		c0.4,1.8-1.1,2.5-2.5,3.2c-0.9,0.4-2.6-0.4-2.3,1.7c0.8,5.9-3.2,4.7-6.3,4c-2.6-0.7-4.7-3-7.8-2.6c-0.9,0.1-1.5-0.7-1.3-1.7
		c0.2-1.3,1-2.3,2.4-1.7C57.4,91.2,59.6,88.7,62.4,89.7z"/>
	<path class="st2" d="M108.9,30.5c-1.6-0.8-2.8-2.5-5.3-1.7c-0.5,1.8,3.5,3,1.3,4.8c-2.1,1.7-4.7,1.1-7.1,0.4
		c-2.1-0.6-3.8-2.9-6.4-1.8c-0.8,0.3-1.8,0.4-2.1-0.6c-0.3-1,0.5-2.5,1.2-2.5c7.5,0.6,13-7.1,21-4.6c3.3,1,4.9,2.5,3.4,6
		C112.9,30.5,110.9,30.5,108.9,30.5z"/>
	<path class="st2" d="M86.9,40.5c-1.1-1.5-2.7-0.9-4.1-1.1c-1.2-0.1-1.8-0.8-1.8-2c0-0.9,0.5-1.9,1.4-1.7c3.3,0.9,6.6-0.9,9.8-0.2
		c3.5,0.8,6.1,2.3,3.2,6.7c3.4-0.3,6.4-0.5,9.5-0.8l0,0c0.4,0.9,1.2,1,2,1l0,0c0.7,1.6,1.9,3.4,0.3,5c-1.6,1.6-3.6,1-5.5,0.4
		c-4.5-1.6-8.6-4.1-12.7-6.3c0,0,0,0,0,0C88.5,40.7,87.8,40.5,86.9,40.5L86.9,40.5z"/>
	<path class="st2" d="M142.9,45.5c-0.9-2.1-4.9,0.2-4.6-2.5c0.3-3,3.6-1,5.4-1.8c2.1-1.1,4.5-0.9,6.7,0.1c2.7,1.3,4.3,3,2.4,6.2
		c3.8,0,7.5,0,11.1,0l0,0c1.4,5.5,1,6-4.5,6c-0.8,0-1.7,0-2.5,0l0,0c-1-1.9-2.8-2.6-4.8-2.9c-1.2-0.2-2.7,0.2-3.2-1.6
		c-0.7-2.8-2.9-2.6-5.1-2.5l0,0C143.6,46.2,143.3,45.8,142.9,45.5L142.9,45.5z"/>
	<path class="st2" d="M8.1,45.4c2.9-2.1,6-2.6,9.1-2.8c1.1-0.1,3.1,0,2.1,1.6c-2.2,3.8,0.4,3.2,2.5,3.4c2.2,0.2,4,1.4,3.9,3.7
		c-0.2,2.5-2.4,2.2-4.3,2.3c-4,0.2-6.7-3.6-10.7-3.4c-0.2,0-0.6-0.8-0.5-1.2c0.4-2.2,2.6-0.8,3.8-1.7C12.4,45.7,10.1,47.4,8.1,45.4z
		"/>
	<path class="st2" d="M99.9,108.5c0-0.7,0-1.4,0-2.1c5,0.3,9.9,2.5,15,1.1c0.4,0,0.7,0,1.1,0c1.3,0,2.6,0,3.9,0c0.4,0,0.7,0,1.1,0
		c1.3,0.9,3.3,1.7,2.4,3.7c-0.8,1.8-2.9,1.3-4.5,1.2c-1-0.1-1.9-0.5-2.8-0.9c-2.4-1-4.9-2.3-5.1,2.2c-0.1,1.9-1.6,1.8-3,1.9l0,0
		c-2.7-1.6-4-4.8-7-6l0,0C100.6,109.2,100.3,108.8,99.9,108.5z"/>
	<path class="st2" d="M118,18.5c1.3,0.1,2.7,0,3.9,0.3c1.5,0.4,2.1,1.6,2,3.1c-0.1,1.5-1,2.4-2.5,2.6c-1,0.1-2.2,0.2-2.9-0.3
		c-6.8-4.3-14.5-0.6-21.5-2.6l0,0c-0.3-2.6,1.2-3.3,3.3-2.9c5.6,0.9,11.1-0.3,16.6-0.1C117.3,18.5,117.6,18.5,118,18.5z"/>
	<path class="st2" d="M135.8,50.5c-0.2,0-0.4,0-0.5,0c-1.1-1.3-2.7-1-4.1-1.1c-1.1,0-2.1-0.3-1.6-1.7c0.3-0.9,0.6-1.9,1.9-1.9
		c3.9-0.1,7.7-0.2,11.6-0.3l0,0c0.3,0.3,0.7,0.7,1,1l0,0c0.3,1.4,2.8,2.3,1,4.3c-3.1,3.6,0.8,2.2,2,2.8c0,1,0,2,0,3
		c-2.4-0.1-4.9,0.6-5.4-3.2c-0.3-2.3-2.8-1.7-4.6-1.8l0,0C136.5,51.2,136.2,50.8,135.8,50.5z"/>
	<path class="st5" d="M113.9,55.5c1,0,2,0,3.1,0c3.3,1.1,6.2,2.9,9,4.9c0,0.4,0,0.7,0,1.1c-3.5,2.6-7.2,2.2-11,0.9l0,0
		c-0.2-0.2-0.4-0.5-0.6-0.7c-1.3-1.8-4.9-0.1-5.1-2.8c-0.2-2.7,3.7-0.4,4.5-2.5C113.8,56.2,113.8,55.9,113.9,55.5z"/>
	<path class="st3" d="M149.9,72.5c1.5,0,3-0.1,4.5,0c1.4,0,3.2-0.3,3.5,1.9c0.2,1.7-0.9,2.8-2.2,3.6c-4.1,2.6-8.3,0-12.5,0.3
		c-0.9,0-1.1-1.1-1-2c0.1-1.2,0.9-1.7,2-1.7C146.3,74.6,148.4,74.4,149.9,72.5L149.9,72.5z"/>
	<path class="st3" d="M30.9,60.5c2.7,0.5,5.4,1,8.3,0.1c1.8-0.6,3.6,0.3,5.3,0.9c1.9,0.6,2.7,1.9,2.3,3.8c-0.4,1.8-1.9,2.2-3.5,2.1
		c-1.8-0.2-3.6-0.6-5.4-0.9l0,0c-0.9-1.3-2.3-2-3.8-1.9C30.9,64.8,30.9,62.7,30.9,60.5L30.9,60.5z"/>
	<path class="st4" d="M75.9,98.5c-0.9-2-2.5-2.9-4.6-3.2c-1.2-0.2-1.4-1.2-1.2-2.3c0.1-0.7,0.6-1.5,1.3-1.2
		c3.6,1.4,7.6-0.1,11.1,1.5c1.5,0.7,3.4,1.5,3,3.4c-0.4,2-2.5,2.6-4.3,2.6C79.5,99.4,77.7,98.8,75.9,98.5L75.9,98.5z"/>
	<path class="st2" d="M167.6,128.2c2-0.5,4.4-1.4,6.8-1.6c2.1-0.2,5.4-0.9,5.2,2.7c-0.2,2.8-3,4.1-5.6,3.9c-2.9-0.3-5.6-1.9-8.7-1.9
		c-1.2,0-1.5-1.2-1.3-2.3C164.5,126.9,166,127.7,167.6,128.2z"/>
	<path class="st3" d="M107.9,115.5c1.3,1.6,4.6,2.8,2.3,5.5c-1.7,2.1-4.4,2.1-6.7,0.5c-2-1.4-4-2.2-6.5-2c-1.5,0.1-2.1-0.8-1.9-2.2
		c0.1-1,0.7-1.5,1.7-1.2C100.5,117,104.2,114.8,107.9,115.5L107.9,115.5z"/>
	<path class="st3" d="M177.9,66.5c2,0,3.9,0,5.9,0c0.3,0.2,0.5,0.5,0.8,0.6c2.8,0.6,6.7,1.7,5.7,4.7c-1.1,3.2-5.1,1.8-7.9,0.8
		c-1.2-0.4-2.5-1-3.6-1.7c-1.2-0.7-3.1,1.6-3.7-1C174.4,67.5,177.1,67.8,177.9,66.5z"/>
	<path class="st3" d="M74.9,105.5c-3.5-1.1-6.6-3.3-10.4-3.3c-1.5,0-2.2-0.6-2.3-1.9c-0.1-1.6,1.2-1.7,2.4-1.7c3.8,0,7.6,0,11.3,0
		l0,0c0.7,2,4.3,3.1,1.8,6.1C76.8,104.9,75.8,105.2,74.9,105.5z"/>
	<path class="st3" d="M133.8,79.5c-3.3-0.4-6.1-3.2-10-3.3c-1,0-1.1-2-0.1-2.2c4-0.7,8-2.7,12.1-0.6c1.5,0.8,3.5,2.1,2.6,4.3
		C137.8,79.2,135.9,79.5,133.8,79.5z"/>
	<path class="st4" d="M74,75.5c1.7,0.9,3.5,1.7,5.1,2.8c1.1,0.7,2.2,1.7,1.6,3.3c-0.6,1.3-2,2-3.3,1.8c-3.8-0.8-7.6-2-11.3-3
		c-0.7-0.2-1-0.8-0.8-1.6c0.2-1,1-1.1,1.9-1.2c1.5-0.2,3.5,0.7,3.7-2C71.9,75.5,72.9,75.5,74,75.5z"/>
	<path class="st3" d="M135.2,108.5c1.5-0.1,3,0,4.4,0.8c1.6,0.9,2.8,2,2.1,3.9c-0.6,1.6-2.1,2.2-3.6,2c-3.8-0.3-6.9-3.3-10.9-3
		c-0.6,0-1-0.8-0.7-1.5c0.4-0.9,0.8-2.3,1.9-1.8C130.8,110,132.9,108.2,135.2,108.5z"/>
	<path class="st2" d="M101,81.7c0,0.6,0,1.2,0,1.8c-4.2,2.7-8.6,2.3-13,1l0,0c-0.4-0.9-1.3-1-2.1-1c-0.6,0-1.2,0-1.8,0
		c-0.3-2.4-0.4-3.5,3.2-3.4C91.9,80.3,96.6,78.7,101,81.7z"/>
	<path class="st3" d="M55.7,75.5c-0.5,0-1.1,0-1.6-0.1c-3.8-0.3-7-3.1-10.9-3.2c-1,0-1.2-1-1.2-1.9c0-0.7,0.3-1.7,1-1.4
		c3.5,1.3,6.8-1.4,10.2-0.3C57.5,70.1,58.4,72.5,55.7,75.5z"/>
	<path class="st2" d="M84.1,83.5c0.6,0,1.2,0,1.8,0c0.5,0.8,1.3,1,2.1,1l0,0c0.4,1.7,3.6,2.6,2.3,4.5c-1.4,2.1-4.1,1.8-6.5,1.3
		c-2.6-0.6-4.7-3.2-7.9-2.1c-0.7,0.2-1.5-0.7-1.2-1.7c0.3-1,0.9-1.9,2.1-1.8C79.2,84.8,81.6,84.1,84.1,83.5z"/>
	<path class="st2" d="M99.9,123.8c3.6-0.1,7.3-0.2,10.9-0.3c3,0,5.9,1.5,5.4,4.3c-0.4,2.8-4.4,2.3-5.9,1.4c-3.3-2.1-8.8,0.3-10.4-5
		C100,124.2,99.9,123.8,99.9,123.8z"/>
	<path class="st3" d="M96.9,21.5c0.6,1.5,1.8,3.1,0.3,4.6c-1.4,1.4-3.1,1.3-5,0.7c-2.6-0.8-5-2.7-8-2.4c-1,0.1-2.1-0.2-1.7-1.6
		c0.2-0.9,0.6-2.1,1.9-1.9C88.5,21.5,92.9,19.4,96.9,21.5L96.9,21.5z"/>
	<path class="st2" d="M74.9,105.5c1-0.3,1.9-0.6,2.9-0.9c0.7,0,1.5,0,2.2-0.1l0,0c0.7,2.2,5.3,2.9,3.2,5.8c-1.9,2.7-5.1,1-7.8,0.2
		c-1.6-0.5-3.1-1.4-4.6-1.6c-1.3-0.1-2.8,0.7-2.7-1.5c0.1-1.9,1.5-1.8,2.9-1.8C72.2,105.5,73.6,105.5,74.9,105.5z"/>
	<path class="st3" d="M120.9,107.5c-0.4,0-0.7,0-1.1,0c-0.4-3.3,0.6-5.1,4.4-5.3c2.2-0.1,4.4-1.3,6.5-2.1c2.1-0.8,3.7-0.1,4.6,1.7
		c1,2-1,3-2.2,3.8c-2.2,1.5-4.7,1.1-7.1,0.4C123.9,105.4,122.1,105.2,120.9,107.5z"/>
	<path class="st2" d="M136.8,32.6c-0.4,0,0.3-0.1,0.9,0.1c2.3,0.8,5.6,1.7,4.8,4.6c-0.8,2.8-3.7,2.3-6.3,1.5
		c-2.5-0.7-4.7-2.6-7.5-2.3c-0.9,0.1-1.6-0.4-1.6-1.5c0.1-1.1,0.7-2.1,1.8-1.7C131.4,34.1,133.5,32.4,136.8,32.6z"/>
	<path class="st2" d="M160.9,129.8c-0.4,2.1-2.1,2.7-4.3,2.4c-4.2-0.6-6.5-4.4-9.9-6.2c-1.2-0.6-0.4-2.5,1.1-2.2
		c3.9,0.7,7.7,1.8,11.4,3C160.2,127,160.9,128.1,160.9,129.8z"/>
	<path class="st1" d="M177.4,125.5c-2-2.2-6.8,2-7.7-2c-0.7-3,4.4-0.2,5.6-2.9c0.2-0.5,1-0.8,1.7-1c2.3-0.6,4.6-2.2,7-0.3
		c0.9,0.7,1,1.7,0.5,2.7C183,124.5,180.6,125.5,177.4,125.5z"/>
	<path class="st2" d="M83.9,12.6c2.3,0,4.6-0.4,6.8,0.8c1.4,0.8,3.4,1.7,2.8,3.5c-0.6,1.8-2.6,2.6-4.5,2.3c-3.4-0.5-6.3-2.8-9.8-3
		c-1.2-0.1-1.2-1.4-1-2.4c0.2-1.1,1-1,1.9-0.8c1,0.2,1.9,0.3,2.9,0.4C83.2,13.2,83.6,12.9,83.9,12.6z"/>
	<path class="st2" d="M86.8,47.5c-0.3,0-0.5,0-0.8,0c-2-0.8-3.8-2.2-6.1-2c0,0,0,0,0,0c-2.4-1.6-7.7-0.4-6-6c0.6,0,1.3,0,1.9,0
		c0.3,2.1,1.8,2.3,3.3,1.7c2.6-1,5.2-0.6,7.8-0.7l0,0c0.4,0.8,1.2,1,2,1c0,0,0,0,0,0C90.4,44.3,89.3,46.2,86.8,47.5z"/>
	<path class="st2" d="M168.9,135.2c-1.1,2.7-3.2,4.2-6.1,4c-3-0.2-5.5-2.9-8.9-2.2c-0.7,0.1-0.9-0.9-0.8-1.5c0-0.7,0.3-1.7,0.9-1.5
		c3.8,1.3,6.9-1.9,10.6-1.4C166.3,132.8,168.1,132.9,168.9,135.2z"/>
	<path class="st2" d="M93.9,106.5c-0.7,0-1.4,0-2,0c-4.1,0.3-7.7-3.2-11.9-2l0,0c0-2.4,0.3-4.1,3.7-3.4c2.6,0.6,5.4-1.2,8.2-0.5
		C95.8,101.6,96.5,103.5,93.9,106.5z"/>
	<path class="st2" d="M104.9,41.5c-0.7-1.2-2.1-0.8-3.1-1.3c-0.9-0.4-1-1.2-0.9-2.1c0.1-1,0.7-1.2,1.7-1.2c3.4-0.1,6.8-0.3,10.2-0.5
		l0,0c0.6,0.8,1.2,1.5,1.8,2.3c0.8,0.9,1.6,1.9,0.9,3c-0.7,1.1-2,1.6-3.4,1.3c-1.7-0.3-3.5-0.4-5.3-0.6l0,0
		C106.5,41.7,105.8,41.5,104.9,41.5L104.9,41.5z"/>
	<path class="st2" d="M127.8,81.4c-1,2.3-3.3,2.9-5.6,2.5c-3.2-0.6-5.7-3.3-9.2-3.6c-0.7-0.1-1-0.8-0.7-1.5c0.3-0.6,1-1.6,1-1.5
		c3.9,2.1,8.2-1.1,12,1C126.6,78.9,127.8,79.5,127.8,81.4z"/>
	<path class="st2" d="M21,107.5c-0.6-0.2-1.7-0.3-1.8-0.6c-0.7-2.8-5.8,1.3-4.9-2.8c0.6-2.8,4.1,0.1,6-1.4c0.7-0.6,2.3-0.2,3.4-0.2
		c3-0.1,5.8,1.3,5.7,4.1c-0.1,2.9-3.4,1.6-5.4,1.9C23,108.2,22,107.8,21,107.5z"/>
	<path class="st1" d="M75.9,39.5c-0.6,0-1.3,0-1.9,0c-0.7,0-1.4,0-2.1,0l0,0c-1.6-1.7-3.7-2.6-6-3c-1.6-0.3-2.5-1-1.2-2.5
		c0.9-1,11.1-0.9,12.2,0.2C79.5,36.5,80.2,38.5,75.9,39.5z"/>
	<path class="st2" d="M121.9,26.3c1.7-0.2,4-0.7,6.3-0.8c2.8-0.1,5.4,1.5,5.3,4.1c-0.2,3-3.4,1.9-5.3,1.8c-2.9-0.2-5.4-2.4-8.6-2.1
		c-1.2,0.1-1.6-1.1-1.3-2.2C118.6,24.9,120.2,26.4,121.9,26.3z"/>
	<path class="st2" d="M103.7,73.5c1.3,0.1,2.1,0,2.9,0.2c2.1,0.5,4,1.6,3.9,3.8c-0.2,2.6-2.6,1.8-4.3,2.1c-3.8,0.5-6.4-3.6-10.3-2.5
		c-0.7,0.2-0.9-0.8-0.9-1.5c0-0.9,0.4-1.9,1.4-1.6C99.1,75.1,101.6,72.9,103.7,73.5z"/>
	<path class="st2" d="M84.5,72.3c2,0.2,4,0.1,5.9,0.6c1.4,0.4,2.7,1.6,2.5,3.3c-0.2,1.9-1.7,2.2-3.3,2.3c-4.3,0.3-7.5-3.2-11.7-3.6
		c-1.1-0.1,0.1-2,1.2-2.2c1.8-0.2,3.6-0.1,5.4-0.1C84.4,72.6,84.5,72.5,84.5,72.3z"/>
	<path class="st1" d="M114.9,31.4c2.6,0.3,5.7-0.8,7.5,2.3c0.5,0.9,0.6,2-0.2,2.7c-2.5,2.2-5.2,0.7-7.9,0.1c-0.5-0.1-1,0-1.5-0.1
		l0,0c-0.6-1.6-2.1-1.7-3.5-2.1c-1.8-0.5-3.1-1.5-0.5-3C110.9,33.1,112.9,31.2,114.9,31.4z"/>
	<path class="st1" d="M75.1,28.5c1.7,0,4.4-1.8,7.3-0.6c1.8,0.7,4.3,1.5,4.1,3.8c-0.3,2.8-3.1,1.8-4.9,1.9c-3.6,0.2-6-3.6-9.9-2.7
		c-0.6,0.1-0.8-0.9-0.7-1.6C71.5,26.9,73,28.3,75.1,28.5z"/>
	<path class="st1" d="M74,75.5c-1,0-2.1,0-3.1,0c-3.5,0.6-6.1-2.4-9.6-2.2c-0.8,0-1.2-0.6-1.2-1.3c0.1-1.3,1.1-1.5,2.1-1.5
		c3.9-0.1,7.8-1.4,11.7,0l0,0C74.5,72.2,76.1,73.8,74,75.5z"/>
	<path class="st0" d="M140,130.4c2.5,0.1,5,0.1,7.5,0.2c1.2,0.1,2.2,0.9,2.3,2.2c0.1,1.6-0.9,2.5-2.4,2.6c-2.1,0.1-4.3,0-6.5,0
		c-0.3-0.3-0.7-0.6-1-0.9l0,0c-0.6-1.4-1.7-1.9-3.1-2c-1.1-0.1-2-0.6-1.6-1.9c0.4-1.3,1.4-1,2.4-0.7
		C138.4,130.1,139.2,130.2,140,130.4z"/>
	<path class="st4" d="M99.9,123.8c0,0,0,0.4,0,0.4c-3.8,2.5-7.2-0.3-10.8-1c-1.6-0.3-1.4-1.7-0.1-2.4
		C91.8,119.3,97.8,121,99.9,123.8z"/>
	<path class="st4" d="M21,107.5c1,0.3,2,0.7,3,1c-1,4.4-5.5,6.7-9.7,4.8c-0.6-0.3-1.1-0.6-1.1-1.4c0-0.8,0.6-1.1,1.3-1.3
		C16.9,110.2,19.2,109.4,21,107.5z"/>
	<path class="st3" d="M52.1,58.8c2-2.1,5.3-1.6,7.8-3c1.4-0.8,3,0.4,3.3,2c0.3,1.3-1.1,2.2-2.1,2.3c-2.5,0.3-4.9,0.2-7.4,0.2
		C52.9,60.4,52.5,59.9,52.1,58.8z"/>
	<path class="st3" d="M118,18.5c-0.4,0-0.7,0-1.1,0c0.4-3.1,6.7-6.9,9.4-5.7c1,0.4,1.7,1.2,1.2,2.3c-0.8,1.6-2.2,2.3-4,2.4
		C121.6,17.7,119.3,15.3,118,18.5z"/>
	<path class="st3" d="M83.9,12.6c-0.3,0.3-0.7,0.6-1,0.9c-1.4-2.6-4.1-2.4-6.3-3.1C75.3,10,74.5,9.3,75.7,8c1.2-1.3,8-0.4,9.2,1
		C86.6,10.9,84.5,11.5,83.9,12.6z"/>
	<path class="st2" d="M103.9,139.5c1.9,5.1-2.2,4.5-4.8,4.8c-1.5,0.2-3.1-0.8-5.4-1.4C97.2,140.5,100.4,139.6,103.9,139.5
		L103.9,139.5z"/>
	<path class="st2" d="M71.9,39.5c2.1,4.9-2.2,4.1-4.4,4.5c-1.6,0.3-3.4-0.6-5.8-1.2C65.2,40.4,68.3,39.2,71.9,39.5L71.9,39.5z"/>
	<path class="st2" d="M143.2,140c2.8-1.5,5.3-2.7,8.1-1.6c1.1,0.5,2.4,0.8,2.2,2.3c-0.3,1.7-1.8,2-3.1,1.7
		C148,141.8,145.6,140.8,143.2,140z"/>
	<path class="st2" d="M19.9,84.5c0,1,0,1.9,0,2.9c-1.6-0.1-4.2,0.8-3.8-2.1C16.5,82.2,18.7,85,19.9,84.5z"/>
	<path class="st7" d="M114.9,31.4c-2-0.2-4,1.7-6-0.1c0-0.3,0-0.6,0-0.9c2,0,4-0.1,6-0.1C114.9,30.8,114.9,31.1,114.9,31.4z"/>
	<path class="st2" d="M22.8,80.4c1.1,0.7,1.2,1.4,0.1,2.1C21.9,81.9,21.9,81.2,22.8,80.4z"/>
	<path class="st6" d="M139.9,134.5c0.3,0.3,0.7,0.6,1,0.9c0,0.4,0,0.7,0,1.1C140.1,136.1,139.9,135.4,139.9,134.5z"/>
	<path class="st8" d="M95.9,59.5c-0.1-0.1-0.3-0.3-0.4-0.4c0.1,0,0.2,0,0.3,0.1C95.9,59.3,95.9,59.4,95.9,59.5L95.9,59.5z"/>
	<path class="st8" d="M177,60.6c-3.7,4.1-5.1,4.2-8.6-0.1C171.5,60.5,174.2,60.5,177,60.6C176.9,60.5,177,60.6,177,60.6z"/>
	<path class="st2" d="M151.9,53.5c0.7-0.9,1.4-0.9,2.1,0C153.3,54.6,152.6,54.5,151.9,53.5z"/>
	<path class="st2" d="M28.3,84.1c-0.3,0.1-0.4,0.1-0.6,0.2c0-0.1-0.1-0.2-0.1-0.4C27.9,83.9,28,84,28.3,84.1z"/>
	<path class="st2" d="M31,87.5c-0.3,0.4-0.7,0.7-1,1.1C30.3,88.2,30.6,87.9,31,87.5z"/>
	<path class="st8" d="M115.9,100.5c-0.9,0-1.6-0.1-2-1C114.8,99.5,115.5,99.7,115.9,100.5z"/>
	<path class="st8" d="M138.9,86.5c-0.1-0.1-0.3-0.1-0.4-0.2C138.6,86.4,138.8,86.4,138.9,86.5L138.9,86.5z"/>
	<path class="st8" d="M135.8,50.5c0.4,0.3,0.8,0.7,1.2,1C136.5,51.2,136.2,50.8,135.8,50.5z"/>
	<path class="st8" d="M91.9,113.5c-0.1-0.2-0.3-0.3-0.4-0.5C91.6,113.2,91.8,113.3,91.9,113.5C92,113.5,91.9,113.5,91.9,113.5z"/>
	<path class="st8" d="M99.9,108.5c0.3,0.3,0.7,0.7,1,1C100.6,109.2,100.3,108.8,99.9,108.5z"/>
	<path class="st8" d="M89,41.5c-0.9,0-1.6-0.2-2-1C87.8,40.5,88.5,40.7,89,41.5z"/>
	<path class="st8" d="M104.9,41.5c0.9,0,1.6,0.2,2,1C106.1,42.5,105.3,42.4,104.9,41.5z"/>
	<path class="st8" d="M143.9,46.5c-0.3-0.3-0.7-0.7-1-1C143.3,45.8,143.6,46.2,143.9,46.5z"/>
	<path class="st8" d="M88,84.5c-0.9,0-1.7-0.2-2.1-1C86.7,83.5,87.5,83.6,88,84.5z"/>
</g>
</svg>
