<?xml version="1.0" encoding="utf-8"?>
<!-- Generator: Adobe Illustrator 16.0.0, SVG Export Plug-In . SVG Version: 6.00 Build 0)  -->
<!DOCTYPE svg PUBLIC "-//W3C//DTD SVG 1.1//EN" "http://www.w3.org/Graphics/SVG/1.1/DTD/svg11.dtd">
<svg version="1.1" id="Layer_1" xmlns="http://www.w3.org/2000/svg" xmlns:xlink="http://www.w3.org/1999/xlink" x="0px" y="0px"
	 width="420px" height="380px" viewBox="0 0 420 380" enable-background="new 0 0 420 380" xml:space="preserve" opacity="0.2">
<path fill-rule="evenodd" clip-rule="evenodd" d="M289.177,340.605c0.233,1.912,0.436,3.167,0.524,4.43
	c0.05,0.727,0.143,1.57-0.167,2.181c-0.874,1.718-2.054,3.272-2.736,5.107c-0.358,0.96-1.53,1.33-2.524,1.031
	c-1.605-0.482-3.053-1.203-3.772-2.818c-1.089-2.438-2.218-4.856-3.249-7.317c-0.66-1.567-1.17-3.195-1.777-4.879
	c-2.729-0.201-3.667-2.152-4.375-4.191c-0.813-2.335-0.443-3.533,1.578-6.024c-0.417-2.021-0.861-4.207-1.322-6.391
	c-1.208-5.735-2.46-11.464-3.613-17.21c-0.463-2.303-0.246-4.64-0.084-6.99c0.186-2.64,0.683-5.25,0.605-7.922
	c-0.13-4.477-0.57-8.955-0.004-13.446c0.091-0.72-0.18-1.473-0.263-2.214c-0.169-1.481-0.346-2.961-0.479-4.445
	c-0.147-1.617,0.14-3.145,0.832-4.671c0.522-1.156,0.576-2.507,1.054-3.69c0.722-1.791,1.721-3.479,2.45-5.268
	c1.903-4.681,4.388-9.096,6.813-13.52c1.701-3.107,3.802-6.029,6.632-8.37c1.176-0.972,2.34-1.992,3.332-3.133
	c3.354-3.855,7.049-7.383,10.685-10.977c1.777-1.757,3.485-3.646,4.856-5.703c1.417-2.122,3.281-3.76,5.146-5.404
	c1.36-1.199,2.347-2.575,3.016-4.177c0.873-2.083,1.631-4.21,2.467-6.306c0.794-1.991,1.676-3.929,2.238-6.027
	c1.013-3.781,1.106-7.612,1.37-11.441c0.095-1.373,0.149-2.752,0.11-4.126c-0.066-2.269-0.913-4.341-1.881-6.599
	c-1.324-0.604-2.772-1.349-4.293-1.921c-0.79-0.297-1.7-0.342-2.563-0.413c-2.076-0.169-4.164-0.221-6.233-0.445
	c-1.703-0.184-3.188,0.045-4.7,0.994c-2.036,1.277-4.251,2.285-6.4,3.388c-0.485,0.249-1.001,0.531-1.529,0.602
	c-3.542,0.479-6.206,2.629-9.037,4.47c-1.858,1.208-3.791,2.048-6.146,1.954c-2.945-0.119-5.903-0.299-8.864,0.369
	c-1.111,0.251-2.417-0.001-3.558-0.293c-1.948-0.498-3.853-0.583-5.864-0.357c-2.984,0.336-5.899-0.062-8.689-1.217
	c-1.093-0.453-2.276-0.856-3.454-0.955c-5.921-0.493-11.77-1.399-17.599-2.431c-0.893-0.157-1.709-0.125-2.575,0.22
	c-2.634,1.045-5.386,1.088-8.119,0.681c-5.644-0.839-11.216-1.985-16.718-3.447c-1.794-0.476-3.651-0.747-5.488-1.067
	c-2.097-0.365-4.095-0.386-5.973,1.007c-1.599,1.187-3.582,0.909-5.437,0.826c-1.755-0.08-3.502-0.303-5.25-0.477
	c-2.542-0.252-5.053-0.042-7.542,0.54c-1.823,0.427-3.647,0.859-5.482,1.237c-0.965,0.2-1.955,0.402-2.93,0.4
	c-1.484-0.004-2.814,0.305-4.059,1.126c-1.499,0.989-3.218,1.403-4.986,1.614c-1.08,0.13-1.75,0.687-2.296,1.611
	c-0.875,1.483-1.871,2.906-2.881,4.311c-2.329,3.24-5.75,5.055-9.43,6.272c-3.364,1.112-6.53-0.041-9.382-1.767
	c-1.268-0.768-2.326-1.879-3.399-2.911c-0.167-0.161-0.024-0.996,0.166-1.075c0.896-0.372,1.863-0.824,2.796-0.819
	c3.088,0.018,5.502-1.291,7.672-3.281c2.895-2.654,5.702-5.408,8.946-7.679c0.268-0.187,0.654-0.384,0.726-0.642
	c0.833-2.955,3.795-4.025,5.739-5.947c4.508-4.454,7.669-9.687,10.487-15.169c1.077-2.095,1.898-4.312,2.915-6.652
	c-0.604-0.33-1.058-0.551-1.482-0.816c-1.405-0.877-1.726-1.85-0.972-3.221c0.305-0.552,0.777-1.026,1.215-1.499
	c1.407-1.51,1.292-2.219-0.598-2.558c-2.42-0.434-4.46-1.664-6.507-2.387c-0.493-1.03,0.008-1.559,0.601-1.8
	c0.896-0.365,1.874-0.663,2.832-0.727c1.31-0.085,2.652-0.036,3.948,0.152c3.271,0.472,6.545,0.625,9.856,0.395
	c1.083-0.075,2.189,0.061,3.271,0.189c3.287,0.391,6.57,0.505,10.031-0.01c0.341-0.564,0.682-1.225,1.114-1.823
	c1.273-1.76,1.979-1.935,3.862-0.974c0.579,0.296,1.114,0.673,1.675,1.004c1.308,0.771,2.575,1.617,4.245,1.506
	c0.411-0.028,0.896,0.11,1.248,0.323c1.994,1.211,4.288,1.625,6.508,2.159c2.415,0.582,4.454,1.731,6.36,3.182
	c1.806,1.375,3.613,2.75,5.378,4.176c1.023,0.828,2.131,1.158,3.348,0.58c1.701-0.808,3.417-0.703,5.164-0.385
	c3.487,0.635,6.817-0.155,9.997-1.43c3.789-1.519,7.302-3.56,10.443-6.176c1.677-1.396,3.45-2.686,5.124-4.087
	c0.746-0.625,1.483-1.326,2.004-2.127c2.359-3.631,4.529-7.367,5.995-11.434c0.287-0.8,0.407-1.656,0.611-2.51
	c-1.491-2.383-3.057-4.685-4.403-7.104c-1.291-2.32-3.258-4.296-3.75-7.251c-1.686-0.596-3.396-1.29-5.166-1.804
	c-1.993-0.58-4.046-0.968-6.056-1.496c-1.464-0.384-2.971-0.644-4.153-1.752c-0.375-0.351-1.229-0.41-1.82-0.316
	c-1.425,0.226-2.795,0.745-3.854,1.744c-1.421,1.34-3.12,1.918-5.011,2.265c-3.791,0.694-7.547,1.574-11.34,2.252
	c-2.002,0.359-3.367,1.326-4.453,2.991c-1.715,2.631-3.597,5.162-5.441,7.714c-0.438,0.608-0.95,1.193-1.522,1.682
	c-0.682,0.58-1.731,0.542-2.448,0c-0.674-0.511-0.923-1.214-0.598-1.992c0.543-1.291,1.164-2.551,1.751-3.825
	c0.493-1.066,0.986-2.134,1.575-3.409c-0.804-0.236-1.377-0.461-1.975-0.57c-6.136-1.118-12.385-1.696-18.39-3.425
	c-1.009-0.291-1.9-0.285-2.85,0.213c-2.018,1.06-4.19,1.186-6.425,1.036c-3.955-0.265-7.906-0.158-11.853,0.371
	c-1.633,0.219-3.289,0.279-4.934,0.376c-2.278,0.134-4.197,1.013-6.031,2.349c-3.343,2.436-6.373,5.287-10.112,7.208
	c-0.854,0.439-1.629,1.138-2.262,1.864c-3.217,3.699-6.639,7.251-10.507,10.254c-2.983,2.316-5.854,4.948-9.58,6.272
	c-0.806,0.286-1.529,0.859-2.221,1.387c-2.261,1.723-4.484,3.495-6.733,5.234c-2.251,1.741-4.485,3.506-6.783,5.187
	c-2.833,2.073-5.48,4.345-8.007,6.757c-0.626,0.599-1.261,1.234-2.007,1.66c-2.091,1.188-4.247,2.272-6.372,3.408
	c-0.732,0.391-1.535,0.582-2.162,0.026c-0.986-0.87-1.991-0.699-3.065-0.294c-3.034,1.146-5.684,2.714-7.646,5.404
	c-1.659,2.276-3.333,4.529-4.813,6.92c-0.7,1.131-1.112,2.305-1.366,3.588c-0.604,3.052-1.271,6.087-1.066,9.219
	c0.183,2.807,1.583,5.067,3.393,7.086c0.528,0.589,1.498,0.827,2.296,1.157c0.944,0.39,1.66,0.959,2.156,1.854
	c0.672,1.215,1.532,2.335,2.15,3.573c1.751,3.502,4.506,6.235,7.181,9.025c2.004,2.091,3.818,4.358,6.367,5.937
	c2.498,1.545,4.935,3.153,7.808,4.004c0.312,0.092,0.62,0.216,0.906,0.368c0.89,0.473,1.12,1.343,0.608,2.164
	c-0.683,1.092-1.57,1.638-2.977,1.637c-2.497,0-4.758-0.768-6.985-1.646c-1.926-0.757-3.77-1.707-5.653-2.565
	c-0.479-0.219-0.97-0.412-1.44-0.61c-0.78,0.935-0.247,1.582,0.288,2.039c1.39,1.188,2.877,2.27,4.313,3.407
	c1.098,0.869,2.248,1.69,3.25,2.654c1.796,1.727,3.647,3.253,6.08,4.202c1.671,0.651,3.188,1.852,4.527,3.063
	c2.268,2.052,4.791,3.689,7.559,4.987c2.462,1.154,4.989,2.185,7.471,3.301c1.745,0.784,3.367,0.819,4.867-0.568
	c0.832-0.769,1.815-1.208,2.988-1.187c2.098,0.042,3.419,1.552,3.094,3.559c-0.557,3.437-2.844,5.219-6.47,5.021
	c-1.511-0.082-2.986-0.65-4.494-0.328c-0.49,0.627-0.045,1.055,0.201,1.495c0.417,0.746,0.931,1.445,1.289,2.215
	c0.575,1.233,1.508,2.044,2.752,2.604c1.192,0.534,2.327,1.193,3.529,1.702c2.152,0.918,4.33,1.378,6.709,0.514
	c0.867-0.316,1.946-0.25,2.893-0.125c1.816,0.238,3.125,2.706,1.298,4.438c-1.592,1.509-3.13,2.635-5.434,2.503
	c-1.313-0.076-2.637-0.018-3.957,0.007c-1.083,0.02-2.167,0.077-3.32,0.119c-0.388,1.605-0.731,3.022-1.094,4.515
	c1.651,1.721,3.563,2.319,5.943,1.579c1.89-0.587,3.833-1.008,5.721-1.603c1.229-0.387,2.154-0.114,2.916,0.816
	c0.695,0.851,0.665,1.759-0.128,2.955c-1.948,2.938-4.694,4.797-8.145,5.717c-1.039,0.276-2.22,0.167-3.22,1.176
	c-0.002,0.586-0.113,1.334,0.01,2.042c0.953,5.457,1.631,10.95,2.018,16.475c0.357,5.116,1.423,10.108,2.259,15.146
	c0.681,4.1,0.978,8.263,1.553,12.383c0.829,5.93,0.683,11.927,1.186,17.878c0.242,2.871,0.494,5.742,0.847,8.6
	c0.39,3.155-0.297,6.171-1.138,9.183c-0.215,0.77-0.7,1.321-1.473,1.63c-0.887,0.354-1.906,0.159-2.298-0.648
	c-0.509-1.048-0.989-2.152-1.206-3.286c-1.02-5.344-2.38-10.635-2.637-16.104c-0.17-3.623-0.324-7.247-0.511-10.869
	c-0.026-0.515-0.2-1.021-0.298-1.496c-3.239-0.94-3.318-0.962-4.617-3.96c-1.145-2.644-2.116-5.334-2.679-8.189
	c-0.514-2.607-1.459-5.129-2.135-7.707c-1.11-4.234-2.196-8.475-3.209-12.73c-0.445-1.869-1.039-3.653-2.028-5.3
	c-0.179,0.036-0.329,0.021-0.387,0.086c-0.653,0.722-1.223,1.591-2.379,1.522c-1.389-0.081-2.589-0.702-3.381-1.736
	c-0.902-1.18-1.594-2.522-2.292-3.838c-0.448-0.844-0.798-1.748-1.099-2.656c-0.825-2.489-2.183-4.577-4.326-6.225
	c-0.826-0.636-1.495-1.57-1.979-2.498c-1.83-3.505-3.547-7.066-5.321-10.6c-1.055-2.101-2.129-4.192-3.206-6.282
	c-0.842-1.637-2.048-2.961-3.435-4.21c-1.734-1.565-3.563-3.076-4.485-5.361c-0.618-1.533-1.91-2.605-3.596-3.043
	c-1.776-0.461-2.593-1.666-3.313-3.217c-2.075-4.462-3.401-9.188-5.158-13.758c-0.269-0.697-0.518-1.403-0.837-2.079
	c-0.73-1.544-1.185-3.105-1.416-4.843c-0.396-2.961-1.518-5.834-3.297-8.248c-1.002-1.359-1.503-2.78-1.98-4.282
	c-0.16-0.501-0.193-1.049-0.24-1.579c-0.439-4.914-1.663-9.651-3.19-14.325c-0.856-2.622-1.821-5.224-2.436-7.902
	c-0.345-1.503-0.669-3.146,0.041-4.725c0.51-1.133,0.398-2.292,0.186-3.467c-0.149-0.826-0.152-1.678-0.241-2.516
	c-0.237-2.236,0.336-4.224,1.925-5.925c0.714-0.764,0.873-1.724,0.896-2.698c0.057-2.429,0.985-4.553,2.257-6.628
	c1.19-1.942,2.283-3.92,3.919-5.567c1.319-1.33,2.669-2.526,4.625-2.961c0.94-0.209,1.834-0.735,2.683-1.227
	c3.989-2.313,7.943-4.683,11.934-6.993c3.228-1.87,6.518-3.641,9.732-5.535c5.767-3.396,11.588-6.708,17.146-10.431
	c3.186-2.136,6.402-4.233,9.5-6.483c1.841-1.337,3.481-2.937,5.068-4.296c-0.885-3.573-1.645-6.885-2.555-10.156
	c-0.246-0.882-0.813-1.758-1.457-2.435c-2.611-2.747-4.57-5.944-6.679-9.032c-0.579-0.848-0.851-1.953-1.047-2.981
	c-0.399-2.1-0.83-4.168-1.722-6.143c-0.379-0.839-0.487-1.856-0.478-2.794c0.025-2.663,0.045-5.337,0.31-7.987
	c0.246-2.464,1.045-4.841,3.021-6.576c1.148-1.008,1.526-2.119,1.837-3.569c0.757-3.529,1.767-6.947,4.025-10.066
	c2.204-3.042,4.646-5.75,7.727-7.843c1.968-1.337,4.26-2.224,6.425-3.278c1.283-0.625,2.6-1.181,3.898-1.772
	c0.499-0.227,0.97-0.567,1.491-0.683c3.475-0.771,6.503-2.67,9.86-3.734c0.728-0.23,1.456-0.555,2.089-0.972
	c2.961-1.956,6.405-2.868,9.609-4.286c1.897-0.839,3.95-1.22,6.117-1.093c1.729,0.101,3.511-0.144,5.237-0.426
	c5.933-0.974,11.351,0.208,16.33,3.321c0.532,0.333,0.896,0.909,1.366,1.342c0.705,0.646,1.353,1.391,2.164,1.875
	c2.801,1.667,4.552,4.254,6.295,6.803c0.629,0.92,0.633,2.238,0.964,3.364c0.169,0.577,0.429,1.129,0.658,1.721
	c1.58-0.936,2.986-1.716,4.332-2.589c0.534-0.348,0.994-0.853,1.377-1.366c4.168-5.593,10.088-8.226,16.802-9.398
	c3.57-0.624,7.041,0.067,10.22,1.63c2.161,1.063,4.262,2.06,6.757,2.116c0.744,0.017,1.492,0.324,2.212,0.565
	c4.862,1.627,9.593,3.557,13.951,6.202c1.477,0.895,2.831,1.914,4.553,2.385c0.592,0.163,1.18,0.616,1.583,1.086
	c1.663,1.945,3.671,3.648,4.558,6.159c0.276,0.787,0.792,1.491,1.203,2.241c1.929,0.058,3.548-0.725,5.253-1.074
	c1.62-0.332,3.206-0.757,4.748,0.339c0.469,0.333,1.261,0.322,1.904,0.324c1.429,0.002,2.875,0.034,4.286-0.163
	c4.203-0.583,8.069,0.565,11.88,1.936c1.532,0.551,2.939,1.414,4.445,2.041c1.528,0.638,2.941,1.409,4.072,2.607
	c2.045,2.167,4.81,3.192,7.47,4.378c3.441,1.535,6.195,3.759,8.369,6.833c1.749,2.477,3.16,5.076,4.365,7.897
	c1.267,0.686,2.678,0.765,4.105,0.613c1.093-0.117,2.185-0.295,3.257-0.535c3.729-0.832,6.74,0.428,9.126,3.052
	c2.054,2.258,4.316,4.135,7.12,5.481c3.94,1.888,6.816,4.976,8.96,8.597c0.949,1.6,1.196,3.609,1.692,5.452
	c0.387,1.439,0.71,2.9,0.972,4.367c0.187,1.043,0.262,2.111,0.312,3.172c0.021,0.524-0.217,1.065-0.186,1.589
	c0.145,2.549-0.606,4.789-2.091,6.933c-1.062,1.533-1.434,3.285-0.842,5.205c0.61,1.978,0.282,4.053-0.198,6.036
	c-0.752,3.12-1.639,6.214-2.544,9.298c-0.326,1.118-0.76,2.236-1.344,3.248c-0.987,1.708-1.551,3.532-2.171,5.371
	c-1.412,4.185-2.276,8.462-3.014,12.785c-0.323,1.895-0.991,3.753-2.505,5.159c-0.697,0.647-0.897,1.442-0.974,2.315
	c-0.288,3.215-1.239,6.294-2.02,9.419c-0.725,2.9-0.958,5.91-1.393,8.875c-0.218,1.477-0.508,2.956-0.562,4.439
	c-0.059,1.669-0.606,3.108-1.487,4.522c-0.378,0.605-0.46,1.399-0.596,2.121c-0.491,2.617-0.713,5.281-1.893,7.763
	c-0.481,1.012-1.025,1.875-1.993,2.495c-0.644,0.414-1.198,0.958-1.84,1.375c-1.332,0.868-2.032,2.122-2.832,3.446
	c-2.14,3.533-3.727,7.279-5.463,10.985c-1.867,3.986-4.163,7.806-6.986,11.28c-0.41,0.504-0.708,1.164-1.229,1.504
	c-1.598,1.046-2.221,2.613-2.761,4.267c-0.998,3.056-2.171,6.07-2.974,9.171c-0.859,3.316-1.509,6.694-2.008,10.075
	c-0.689,4.658-1.371,9.296-2.613,13.873c-0.926,3.405-1.373,6.899-1.489,10.462c-0.103,3.11,0.015,6.186,0.156,9.276
	c0.142,3.093,0.115,6.197,0.329,9.284c0.251,3.613,0.56,7.219,0.454,10.851c-0.028,0.952,0.218,1.906,0.285,2.864
	c0.148,2.04,0.08,4.077-0.743,6c-0.866,2.019-1.121,4.145-1.383,6.266c-0.468,3.805-0.779,7.627-1.31,11.423
	c-0.206,1.464-0.807,2.883-1.262,4.312c-0.658,2.061-2.649,2.782-4.463,2.271C290.476,341.273,290.126,341.049,289.177,340.605z
	 M294.076,129.437c0.443,1.224,0.928,2.3,1.215,3.426c0.255,1.008,0.504,2.093,0.379,3.105c-0.163,1.325,0.098,2.288,1.246,3.027
	c0.353,0.227,0.603,0.607,0.884,0.931c2.245,2.583,4.507,5.139,7.794,6.572c0.481,0.21,0.963,0.583,1.254,1.005
	c0.914,1.318,2.271,1.545,3.742,1.572c0.881,0.017,1.761,0.068,2.64,0.038c2.479-0.087,4.754-0.649,6.646-2.428
	c1.021-0.96,2.247-1.744,3.469-2.467c3.641-2.154,6.579-5.054,9.344-8.141c0.424-0.471,0.917-1.081,0.95-1.644
	c0.131-2.25,1.497-3.966,2.41-5.904c2.611-5.543,5.076-11.156,7.5-16.777c0.854-1.979,1.677-3.936,3.357-5.382
	c-0.284-1.692-0.475-3.194,0.534-4.72c0.686-1.04,0.252-2.224-0.61-3.23c-2.094-2.439-4.064-4.978-6.168-7.407
	c-1.616-1.861-3.329-3.518-5.915-4.317c-1.768-0.544-3.562-0.968-5.327-1.494c-1.759-0.523-3.449-0.464-5.134,0.332
	c-0.793,0.374-1.623,0.69-2.463,0.945c-2.485,0.755-4.262,2.232-5.122,4.653c-0.45,1.274-1.198,2.249-2.471,2.882
	c-1.019,0.508-1.571,1.441-2.071,2.434c-1.115,2.211-2.339,4.372-3.494,6.565c-1.857,3.533-3.716,7.066-5.536,10.618
	c-1.229,2.399-2.383,4.833-3.592,7.242c-0.189,0.379-0.438,0.763-0.752,1.048C296.543,123.958,295.146,126.482,294.076,129.437z
	 M136.739,92.231c0.77-0.755,1.524-1.368,2.116-2.102c1.498-1.861,2.859-3.826,4.394-5.656c1.601-1.908,3.3-3.743,5.029-5.545
	c1.593-1.66,3.688-2.255,5.941-2.505c4.33-0.478,8.543,0.019,12.715,1.074c1.046,0.265,2.146,0.384,3.232,0.452
	c6.271,0.391,12.515-0.3,18.765-0.728c0.524-0.036,1.039-0.205,1.746-0.351c-0.119-1.409-0.18-2.667-0.338-3.915
	c-0.656-5.181-1.089-10.402-2.729-15.408c-0.266-0.809-0.469-1.641-0.665-2.47c-0.359-1.524-1.094-3.043,0.166-4.568
	c0.213-0.257,0.159-0.843,0.038-1.217c-0.924-2.835-1.886-5.659-2.87-8.474c-0.095-0.273-0.418-0.47-0.702-0.775
	c-2.04,0.217-4.111,0.292-6.144-0.315c-0.491-0.146-1.108-0.082-1.625,0.047c-3.093,0.771-6.186,1.543-9.251,2.408
	c-1.905,0.537-3.769,1.216-5.637,1.871c-6.026,2.112-11.951,4.447-17.24,8.067c-1.315,0.901-2.773,1.277-4.289,1.581
	c-0.86,0.172-1.828,0.196-2.546,0.614c-2.458,1.43-4.85,2.972-7.211,4.55c-0.502,0.336-0.958,0.962-1.113,1.533
	c-0.813,2.997-1.533,6.016-2.263,9.033c-0.211,0.87-0.047,1.643,0.543,2.392c1.678,2.132,2.534,4.673,3.362,7.186
	c0.7,2.119,1.164,4.317,1.65,6.499C132.455,88.381,134.374,90.306,136.739,92.231z M264.636,129.334
	c1.126,1.058,2.113,1.304,3.287,1.221c0.855-0.059,1.728,0.107,2.591,0.175c0.753,0.06,1.507,0.18,2.26,0.174
	c1.753-0.014,3.507-0.084,5.259-0.141c1.318-0.042,2.635-0.079,3.947-0.156c1.883-0.109,3.38-0.892,4.401-2.479
	c0.887-1.38,2.164-2.398,3.332-3.54c1.992-1.947,4.16-3.872,4.371-6.968c0.096-1.383,0.859-2.548,1.962-3.6
	c1.494-1.424,2.522-3.235,3.241-5.16c0.172-0.47,0.303-1.113,0.112-1.523c-1.227-2.646-0.399-5.277,0.207-7.851
	c0.375-1.596,0.456-3.162,0.474-4.757c0.02-1.808-0.121-3.624,0.021-5.423c0.309-3.979-0.544-7.596-2.976-10.819
	c-1.421-1.88-2.784-3.803-4.182-5.7c-1.396-1.896-2.85-3.754-4.188-5.688c-0.822-1.181-1.809-2.09-3.136-2.708
	c-1.577-0.734-3.086-1.594-4.667-2.315c-0.571-0.26-1.293-0.474-1.888-0.371c-2.042,0.353-4.117,0.644-5.774,2.121
	c-1.997,1.78-4.423,2.909-7.014,3.453c-2.205,0.463-3.181,1.635-3.514,3.667c-0.363,2.215-0.645,4.477-1.357,6.597
	c-0.799,2.377-0.908,5.014-2.859,7.032c1.892,1.39,3.689,2.587,5.333,3.96c1.228,1.025,2.551,2.114,3.314,3.457
	c1.638,2.868,2.96,5.911,4.362,8.904c0.269,0.567,0.418,1.233,0.431,1.86c0.04,2.016-0.004,4.036-0.032,6.054
	c-0.027,1.813-0.07,3.625-0.124,5.437c-0.016,0.527,0.032,1.109-0.172,1.572c-1.217,2.739-1.842,5.733-3.845,8.139
	C266.492,125.548,265.744,127.451,264.636,129.334z M203.667,77.5c0.953,0.19,1.785,0.36,2.618,0.522
	c4.754,0.92,9.4,2.153,13.55,4.651c1.07,0.647,2.187,0.987,3.386,1.072c1.532,0.108,3.089,0.222,4.609,0.065
	c4.266-0.439,8.515-1.027,12.773-1.535c3.484-0.416,6.959-1.097,10.454-0.077c0.91,0.265,1.946,0.368,2.846-0.137
	c0.171-0.207,0.392-0.354,0.436-0.54c1.099-4.773,2.646-9.436,1.664-14.495c-0.851-4.382-1.015-8.898-1.508-13.352
	c-0.142-1.252-0.103-2.577-1.143-3.678c-3.686-0.174-7.315-0.941-10.861-2.032c-2.154-0.663-4.092-2.002-6.572-1.593
	c-0.558,0.093-1.243-0.358-1.815-0.655c-2.957-1.53-6.29-1.745-9.485-2.412c-0.904-0.188-1.942,0.137-2.908,0.292
	c-1.295,0.208-2.569,0.578-3.868,0.702c-1.771,0.169-3.508,0.418-5.111,1.201c-2.743,1.342-5.46,2.739-8.344,4.191
	c-0.398,3.457-0.823,6.947-1.197,10.443c-0.476,4.486,0.241,8.941,0.254,13.415C203.448,74.815,203.582,76.077,203.667,77.5z"/>
</svg>
