<?xml version="1.0" encoding="utf-8"?>
<!-- Generator: Adobe Illustrator 16.0.0, SVG Export Plug-In . SVG Version: 6.00 Build 0)  -->
<!DOCTYPE svg PUBLIC "-//W3C//DTD SVG 1.1//EN" "http://www.w3.org/Graphics/SVG/1.1/DTD/svg11.dtd">
<svg version="1.1" id="Layer_1" xmlns="http://www.w3.org/2000/svg" xmlns:xlink="http://www.w3.org/1999/xlink" x="0px" y="0px"
	 width="146px" height="132.096px" viewBox="0 0 146 132.096" enable-background="new 0 0 146 132.096" xml:space="preserve">
<path fill-rule="evenodd" clip-rule="evenodd" d="M-3142.916,342.017c-0.015,1.632-0.028,3.264-0.041,4.895
	c0.421-0.902,0.513-2.182,0.229-3.831C-3142.789,342.725-3142.853,342.371-3142.916,342.017z"/>
<g>
	<path fill-rule="evenodd" clip-rule="evenodd" d="M-438.937,121.3c-0.098,0.613-0.371,1.135-0.77,1.611
		c-0.23,0.275-0.498,0.359-0.807,0.264c-0.586-0.18-1.172-0.369-1.516-0.949c-0.074-0.127-0.197-0.227-0.355-0.404
		c-0.256,0.252-0.488,0.484-0.721,0.715c-0.459,0.449-0.963,0.367-1.48,0.125c-0.553-0.258-0.715-0.531-0.678-1.184
		c0.059-0.99,0.131-1.98,0.184-2.971c0.01-0.176-0.039-0.354-0.064-0.561c-0.646,0.279-0.783,0.775-0.834,1.326
		c-0.082,0.912-0.176,1.826-0.258,2.738c-0.066,0.729-0.385,1.309-0.996,1.715c-0.693,0.461-1.621,0-1.666-0.842
		c-0.012-0.221,0.078-0.445,0.105-0.668c0.078-0.635,0.361-1.256,0.115-1.967c-0.221-0.072-0.48-0.133-0.717-0.24
		c-0.697-0.314-0.9-0.934-0.541-1.609c0.205-0.385,0.479-0.682,0.938-0.771c0.217-0.043,0.424-0.139,0.678-0.227
		c0.025-0.516,0.059-1.004,0.07-1.494c0.01-0.457-0.006-0.914-0.01-1.367c0.154-0.23,0.283-0.473,0.455-0.672
		c0.426-0.496,0.914-0.525,1.387-0.084c0.193,0.182,0.363,0.393,0.516,0.609c0.152,0.215,0.27,0.455,0.404,0.688
		c0.861-0.365,1.271-1.031,1.301-1.951c0.012-0.432,0.123-0.834,0.383-1.184c0.42-0.564,1.107-0.643,1.58-0.137
		c0.402,0.43,0.66,0.932,0.502,1.564c-0.176,0.703-0.35,1.41-0.479,2.123c-0.123,0.672-0.188,1.355-0.281,2.057
		c0.475,0.092,0.941,0.094,1.32,0.277c0.35,0.172,0.605,0.535,0.934,0.842c0.295-0.215,0.596-0.512,0.957-0.672
		c0.336-0.146,0.734-0.146,1.16-0.223c0.135-0.281,0.268-0.596,0.43-0.895c0.449-0.818,1.24-1.016,2.037-0.523
		c0.48,0.295,0.813,0.678,0.805,1.287c-0.004,0.285-0.088,0.51-0.289,0.717c-0.316,0.322-0.613,0.662-0.908,1.004
		c-0.299,0.344-0.379,0.713-0.141,1.143c0.162-0.045,0.279-0.057,0.375-0.109c1.104-0.602,2.203-1.209,3.295-1.809
		c0.033-0.135,0.086-0.244,0.086-0.355c0.008-1.588,0.98-2.498,2.262-3.166c0.607-0.316,1.045-0.178,1.387,0.334
		c0.318,0.479,0.23,1.135-0.217,1.541c-0.141,0.129-0.309,0.225-0.451,0.354c-0.389,0.352-0.381,0.502,0.064,1.068
		c0.527-0.287,1.092-0.531,1.396-1.109c0.17-0.322,0.418-0.559,0.764-0.65c0.482-0.127,0.758-0.465,1.039-0.844
		c0.293-0.393,0.641-0.754,0.998-1.094c0.428-0.406,0.932-0.449,1.492-0.258c1.355,0.471,1.398,1.174,0.443,2.057
		c-0.223,0.207-0.488,0.367-0.729,0.555c-0.377,0.299-0.592,0.693-0.676,1.164c-0.121,0.688,0.279,1.195,0.986,1.256
		c0.357,0.029,0.666-0.092,0.975-0.264c0.428-0.238,0.846-0.531,1.352-0.482c0.307,0.229,0.383,0.523,0.32,0.838
		c-0.033,0.176-0.113,0.404-0.25,0.492c-0.922,0.598-1.791,1.313-2.936,1.471c-0.975,0.137-1.828-0.205-2.533-0.816
		c-0.346-0.297-0.498-0.82-0.768-1.293c-0.256-0.057-0.373,0.193-0.283,0.4c0.234,0.545,0.197,1.047-0.102,1.531
		c-0.361,0.59-0.768,1.109-1.443,1.418c-0.93,0.424-1.844,0.422-2.771,0.096c-0.666-0.232-0.785-0.646-0.385-1.248
		c0.166-0.25,0.398-0.459,0.6-0.688c0.119-0.135,0.24-0.268,0.342-0.379c-0.102-0.256-0.264-0.246-0.396-0.172
		c-0.301,0.166-0.625,0.318-0.867,0.551c-0.906,0.861-2.137,1.164-3.139,1.859c-0.223,0.152-0.59,0.146-0.887,0.133
		c-1.049-0.049-1.545-0.432-2.123-1.576c0.111-0.922,0.111-0.922-0.799-1.123C-439.687,120.735-439.401,121.081-438.937,121.3z"/>
	<path fill-rule="evenodd" clip-rule="evenodd" d="M-472.606,126.929c-0.371,0.191-0.736,0.121-1.094-0.055
		c-0.35-0.176-0.666-0.385-0.736-0.707c0.568-1.988,1.115-3.895,1.656-5.803c0.115-0.404,0.195-0.816,0.305-1.223
		c0.131-0.48,0.18-0.945,0.1-1.461c-0.143-0.918,0.43-1.533,1.357-1.605c0.598-0.049,1.184,0.285,1.434,0.914
		c0.279,0.711,0.482,1.449,0.719,2.174c0.188,0.574,0.379,1.148,0.551,1.672c0.287,0.08,0.35-0.064,0.41-0.201
		c0.537-1.182,1.08-2.361,1.6-3.553c0.182-0.416,0.373-0.852,0.434-1.295c0.094-0.688,0.436-1.113,1.104-1.381
		c0.111,0.055,0.256,0.1,0.369,0.186c0.264,0.199,0.73,0.23,0.734,0.648c0.004,0.477,0.145,0.961-0.143,1.438
		c-0.295,0.486-0.512,1.023-0.721,1.555c-0.254,0.639-0.469,1.289-0.879,1.855c-0.072,0.102-0.059,0.262-0.09,0.412
		c0.348,0.018,0.408-0.25,0.568-0.383c0.172-0.143,0.299-0.344,0.445-0.52c0.273-0.322,0.566-0.609,0.969-0.785
		c0.238-0.104,0.441-0.289,0.656-0.441c0.184-0.131,0.354-0.291,0.549-0.402c0.84-0.477,1.412-0.375,2.002,0.373
		c0.234,0.297,0.418,0.633,0.613,0.934c0.725-0.176,1.42-0.342,2.137-0.514c0.176-0.498,0.17-0.965,0.078-1.467
		c-0.111-0.619,0.152-1.066,0.66-1.328c1.023-0.523,2.027,0.039,2.137,1.219c0.029,0.334-0.039,0.676-0.064,1.061
		c0.365,0.012,0.699,0.023,1.008,0.035c0.568,0.736,0.576,0.936,0.098,1.5c-0.477,0.563-1.07,0.961-1.803,1.26
		c-0.105,0.592-0.248,1.184-0.309,1.785c-0.076,0.781-0.666,1.158-1.168,1.605c-0.096,0.084-0.291,0.096-0.434,0.078
		c-0.146-0.018-0.281-0.111-0.42-0.174c-0.656-0.291-0.76-0.465-0.664-1.133c0.033-0.227,0.092-0.449,0.129-0.676
		c0.039-0.221,0.066-0.441,0.109-0.734c-0.396-0.109-0.748-0.205-1.068-0.293c-0.391,0.24-0.703,0.459-0.736,0.891
		c-0.07,0.885-0.656,1.445-1.275,1.953c-0.404,0.332-0.848,0.633-1.404,0.732c-1.381,0.248-2.721-0.641-2.99-2.02
		c-0.064-0.328-0.109-0.662-0.178-1.094c-0.439,0.428-0.607,0.873-0.725,1.346c-0.197,0.797-0.656,1.459-1.117,2.113
		c-0.371,0.529-0.709,0.574-1.279,0.281c-0.545-0.279-0.844-0.678-0.971-1.311c-0.174-0.852-0.504-1.672-0.816-2.658
		c-0.176,0.225-0.293,0.311-0.324,0.422c-0.219,0.771-0.418,1.547-0.623,2.32c-0.01,0.037-0.037,0.078-0.031,0.109
		C-471.55,125.544-472.093,126.229-472.606,126.929z M-461.657,120.276c-0.377,0.348-0.678,0.635-0.99,0.912
		c-0.342,0.299-0.461,0.695-0.484,1.123c-0.006,0.098,0.064,0.26,0.137,0.285c0.127,0.041,0.297,0.037,0.42-0.016
		c0.131-0.059,0.246-0.18,0.338-0.297C-461.8,121.722-461.556,121.095-461.657,120.276z"/>
	<path fill-rule="evenodd" clip-rule="evenodd" d="M-394.089,115.114c0.01,0.963-0.154,1.896-0.484,2.803
		c-0.223,0.609-0.473,1.213-0.66,1.834c-0.182,0.6-0.553,1.08-0.871,1.6c-0.455,0.744-1.184,0.967-1.945,1.039
		c-0.748,0.07-1.531,0.066-2.156-0.545c-0.113-0.955,0.225-1.814,0.631-2.631c0.748-1.504,1.49-3.016,2.512-4.361
		c0.041-0.053,0.027-0.145,0.055-0.311c-0.305,0.121-0.576,0.207-0.826,0.336c-1.279,0.664-1.967,0.158-2.766-0.561
		c-0.197-0.178-0.279-0.539-0.313-0.826c-0.027-0.252,0.059-0.531,0.145-0.779c0.188-0.539,0.525-0.938,1.131-1.006
		c0.592-0.066,1.049,0.139,1.305,0.709c0.025,0.055,0.115,0.08,0.234,0.16c0.059-0.178,0.176-0.348,0.152-0.496
		c-0.092-0.563,0.123-0.953,0.574-1.27c0.539-0.379,1.094-0.268,1.637-0.057c0.158,0.061,0.285,0.242,0.383,0.396
		c0.18,0.285,0.326,0.592,0.523,0.955c0,0,0.762,0.838,0.729,3.016"/>
	<path fill-rule="evenodd" clip-rule="evenodd" d="M-394.101,115.12"/>
	<path fill-rule="evenodd" clip-rule="evenodd" d="M-411.134,119.259c-0.502,0.1-0.729,0.129-0.947,0.189
		c-1.045,0.287-1.77-0.27-2.404-0.963c-0.182-0.199-0.262-0.564-0.254-0.852c0.012-0.488,0.088-0.971,0.332-1.432
		c0.455-0.857,1.063-1.58,1.752-2.244c0.082-0.078,0.178-0.145,0.271-0.209c0.852-0.582,1.918-0.736,2.408,0.688
		c0.621,0.314,1.225,0.619,1.885,0.951c0.09-0.232,0.203-0.506,0.305-0.783c0.236-0.645,0.742-0.957,1.371-1.084
		c0.645-0.129,1.355,0.063,1.564,0.955c0.078,0.332,0.184,0.658,0.283,0.982c0.008,0.031,0.053,0.049,0.082,0.072
		c0.611-0.348,0.639-0.346,0.709-0.977c0.039-0.363,0.133-0.676,0.412-0.906c0.113-0.092,0.26-0.166,0.4-0.197
		c0.252-0.055,1.248,0.418,1.406,0.656c0.305,0.467,0.33,0.969-0.023,1.389c-0.514,0.609-1.086,1.17-1.65,1.732
		c-0.158,0.156-0.41,0.219-0.574,0.373c-0.729,0.684-1.52,0.57-2.34,0.227c-0.139-0.059-0.283-0.105-0.428-0.152
		c-0.033-0.012-0.074,0-0.164,0.002c-0.688,0.525-1.012,1.27-1.021,2.15c-0.01,0.904-0.256,1.746-0.695,2.514
		c-0.457,0.801-1.078,1.453-1.984,1.793c-0.889,0.33-1.727,0.143-2.559-0.172c-0.281-0.107-0.396-0.395-0.35-0.664
		c0.076-0.445,0.146-0.92,0.359-1.307c0.406-0.73,0.908-1.406,1.375-2.102C-411.513,119.741-411.396,119.604-411.134,119.259z
		 M-411.591,116.204c-0.162,0.199-0.344,0.383-0.479,0.596c-0.123,0.197-0.008,0.461,0.203,0.563
		c0.248,0.121,0.566-0.004,0.641-0.258C-411.118,116.739-411.224,116.448-411.591,116.204z"/>
	<path fill-rule="evenodd" clip-rule="evenodd" d="M-469.532,100.095c0.398,0.672,0.385,1.348,0.24,2.031
		c-0.053,0.26-0.133,0.525-0.256,0.756c-0.475,0.893-0.746,1.838-0.826,2.842c-0.029,0.4-0.215,0.699-0.5,0.988
		c-0.395,0.398-0.26,0.453-1.557,0.521c-0.529-0.326-0.635-1.02-1.186-1.443c-0.135,0.105-0.293,0.195-0.402,0.326
		c-0.17,0.203-0.281,0.459-0.465,0.648c-1.223,1.273-1.826,2.883-2.473,4.475c-0.27,0.662-0.176,1.266,0.121,1.873
		c0.1,0.205,0.209,0.406,0.32,0.607c0.246,0.443,0.221,0.875-0.082,1.336c-0.166,0.061-0.396,0.109-0.59,0.221
		c-0.418,0.24-0.809,0.148-1.203-0.037c-0.287-0.135-0.482-0.334-0.572-0.664c-0.172-0.623-0.373-1.24-0.588-1.852
		c-0.201-0.57-0.133-1.129,0.023-1.689c0.396-1.416,1.074-2.691,1.939-3.871c0.811-1.109,1.631-2.211,2.445-3.318
		c0.041-0.057,0.051-0.139,0.086-0.238c-0.137-0.201-0.281-0.422-0.436-0.635c-0.156-0.217-0.344-0.414-0.479-0.643
		c-0.496-0.846-0.045-1.824,0.932-1.801c0.943,0.021,1.814-0.201,2.701-0.406C-471.429,99.911-470.53,99.884-469.532,100.095z"/>
	<path fill-rule="evenodd" clip-rule="evenodd" d="M-382.089,109.538c-0.563,0.375-1.084,0.502-1.656,0.166
		c-0.334-0.193-0.523-0.465-0.457-0.842c0.088-0.486,0.191-0.975,0.352-1.439c0.582-1.697,1.189-3.383,1.787-5.072
		c0.051-0.143,0.09-0.293,0.158-0.428c0.262-0.506,0.832-0.705,1.365-0.488c0.865,0.352,1.074,1.055,0.662,1.936
		c-0.533,1.137-1.004,2.301-1.35,3.514C-381.479,107.761-381.788,108.622-382.089,109.538z"/>
	<path fill-rule="evenodd" clip-rule="evenodd" d="M-383.999,114.954c-0.334,0.1-0.551,0.168-0.768,0.23
		c-0.146,0.041-0.295,0.113-0.439,0.109c-0.398-0.006-0.76-0.119-0.961-0.506c-0.152-0.293,0-0.717,0.344-1.012
		c0.512-0.441,1.029-0.521,1.588-0.244c0.48,0.24,0.59,0.57,0.367,1.121C-383.911,114.759-383.958,114.862-383.999,114.954z"/>
	<path fill-rule="evenodd" clip-rule="evenodd" d="M-392.642,109.146c0.43-0.627,0.881-1.182,1.635-1.42
		c0.535-0.172,1.389,0.23,1.553,0.762c0.102,0.324,0.053,0.645-0.189,0.887c-0.295,0.299-0.621,0.563-0.982,0.887
		c-0.078,0.596,0.125,1.105,0.604,1.549c0.281,0.258,0.547,0.568,0.713,0.906c0.408,0.824,0.088,2.404-0.566,3.064
		c-0.561,0.564-2.514,0.846-3.203,0.461c-0.512-0.285-0.637-0.539-0.529-1.131c0.148-0.818,0.449-1.559,1.121-2.1
		c0.078-0.063,0.133-0.154,0.23-0.271c-0.133-0.207-0.273-0.402-0.391-0.611C-393.204,111.136-393.339,110.163-392.642,109.146"/>
</g>
<g>
	<path fill-rule="evenodd" clip-rule="evenodd" d="M-417.366,99.374c0.164-0.9,0.621-1.754,1.338-2.34
		c-0.055-1.213,0.125-2.434,0.256-3.641c0.203-1.898,0.438-3.805,0.639-5.711c-0.086-0.111-0.15-0.23-0.174-0.361
		c-0.109-0.582-0.164-1.158-0.193-1.738c-0.23-0.217-0.377-0.49-0.365-0.803c0.002-0.027,0.004-0.055,0.006-0.082
		c-0.072-0.355-0.145-0.709-0.193-1.066c-0.135-0.971-0.412-1.906-0.76-2.842c-0.42-1.129-1.031-2.211-1.227-3.4
		c-0.061-0.381-0.27-0.775-0.537-1.094c-0.412-0.492-0.469-1.006-0.301-1.539c0.352-1.123,0.484-2.271,0.58-3.418
		c0.143-1.689,0.076-3.389-0.164-5.068c-0.109-0.777-0.523-1.523-0.686-2.301c-0.213-1.021-0.707-1.936-1.412-2.765
		c-0.701-0.821-1.398-1.677-2.285-2.349c-1.184-0.898-2.504-1.696-4.178-1.924c-0.127-0.018-0.246-0.073-0.367-0.114
		c-2.018-0.671-4.037-0.474-6.039,0.034c-0.945,0.24-1.711,0.728-2.244,1.421c-1.365,1.772-2.451,3.651-3.119,5.685
		c-0.287,0.867-0.594,1.732-0.84,2.609c-0.195,0.699-0.381,1.41-0.453,2.123c-0.205,2.021-0.057,4.029,0.498,6.012
		c0.096,0.344,0.164,0.695,0.229,0.973c-0.855,0.867-1.385,1.773-1.928,2.672c-0.49,0.813-0.609,1.723-0.945,2.574
		c-0.965,2.445-1.33,4.98-1.734,7.512c-0.154,0.963-0.281,1.93-0.402,2.896c-0.057,0.465-0.072,0.934-0.096,1.4
		c-0.025,0.504-0.041,1.008-0.057,1.512c-0.029,0.936-0.096,1.873-0.074,2.807c0.023,0.971,0.109,1.941,0.215,2.908
		c0.039,0.352,0.186,0.701,0.334,1.037c0.07,0.156,0.23,0.34,0.408,0.404c0.586,0.213,1.191,0.422,1.895,0.168
		c0-0.42,0.055-0.816-0.012-1.201c-0.215-1.25-0.359-2.508-0.293-3.766s-0.48-2.502-0.096-3.76c-0.115-0.98,0.111-1.941,0.258-2.902
		c0.262-1.715,0.541-3.428,0.859-5.137c0.34-1.818,1.051-3.561,1.748-5.303c0.156-0.393,0.398-0.754,0.82-1.08
		c0.154,0.188,0.27,0.295,0.344,0.42c0.881,1.471,2.207,2.574,3.977,3.326c1.604,0.68,3.297,0.934,5.078,0.723
		c0.689-0.084,1.371-0.227,2.051-0.363c0.977-0.199,1.967-0.385,2.578-1.15c0.066-0.084,0.213-0.121,0.314-0.189
		c1.119-0.75,2.223-1.514,3.127-2.453c0.119-0.125,0.207-0.334,0.584-0.232c0.041,0.129,0.096,0.293,0.143,0.459
		c0.236,0.842,0.428,1.691,0.713,2.521c0.814,2.365,1.367,4.77,1.445,7.229c0.057,1.797-0.043,3.6-0.098,5.398
		c-0.039,1.299-0.25,2.58-0.703,3.832c-0.111,0.309-0.203,0.631-0.223,0.951c-0.021,0.313-0.035,0.662,0.439,0.869
		c0.33-0.033,0.691-0.174,1.084-0.094C-417.54,99.558-417.46,99.46-417.366,99.374z M-421.347,72.313
		c-0.055,1.072-0.238,2.154-0.527,3.201c-0.201,0.723-0.658,1.404-1.047,2.086c-0.627,1.105-1.617,1.979-2.848,2.623
		c-1.844,0.967-3.828,1.178-5.855,0.4c-2.184-0.836-3.541-2.268-4.258-4.15c-0.418-1.096-0.92-2.174-1.111-3.32
		c-0.316-1.891-0.625-3.791-0.154-5.691c0.482-1.938,1.154-3.838,1.988-5.696c0.209-0.467,0.516-0.904,0.875-1.521
		c0.84,0.605,1.553,1.07,2.197,1.593c0.818,0.664,1.727,1.207,2.756,1.626c1.406,0.576,2.781,1.207,4.207,1.746
		c1.107,0.418,2.273,0.73,3.502,1.119c0.084,0.432,0.234,0.887,0.248,1.344C-421.331,69.22-421.271,70.769-421.347,72.313z"/>
	<path fill-rule="evenodd" clip-rule="evenodd" d="M-432.103,72.794c-0.004,0.049-0.002-0.131,0.025-0.309
		c0.127-0.801,0.748-1.287,1.68-1.145c0.709,0.109,1.348,0.117,2.037-0.057c0.623-0.154,1.178,0.17,1.723,0.371
		c0.152,0.055,0.301,0.299,0.285,0.445c-0.045,0.424-0.047,0.904-0.299,1.246c-0.273,0.369-0.773,0.662-1.248,0.881
		c-0.26,0.119-0.686,0.068-1.012,0.006c-0.686-0.131-1.363-0.232-2.068-0.176c-0.043,0.004-0.088,0.004-0.131,0.002
		C-431.968,74.011-432.222,73.753-432.103,72.794z"/>
</g>
<path fill-rule="evenodd" clip-rule="evenodd" d="M-450.866,80.144c0,0,0.305,2.861,0.145,3.658
	c-0.182,0.918-0.451,1.195-1.229,1.865c-0.486,0.416-1.035,0.826-1.66,1.117c-0.834,0.389-1.732,0.846-2.666,0.941
	c-2.15,0.217-3.83-0.787-4.256-2.363c-0.203-0.754-0.34-1.52-0.479-2.283c-0.039-0.223,0.021-0.455,0.041-0.742
	c0.035,0.008,0-0.207,0.035-0.197c-0.008-0.037,0.012-0.264,0.012-0.307l0.049-0.209c0-0.133,0,0.072,0.092-0.408
	c0.381-0.846,0.156-0.535,0.686-1.246c1.51,0.047,3.098,0.098,4.564,0.143c0.656,0.01,0.164,0,0.303,0l0.41,0.012
	c0.158,0,0.875-0.051,0.975,0.02C-452.858,80.144-450.964,79.151-450.866,80.144 M-449.157,78.798
	c-1.303-0.098-3.354,0.359-4.756,0.256c-0.002-0.01-0.004-0.023-0.006-0.037c-0.506,0-1.012,0.002-1.518,0.006
	c-0.002,0.016-0.004,0.031-0.006,0.047c-0.666,0-1.283,0.002-1.9,0c-0.621-0.002-1.242-0.008-1.863-0.014
	c-1.455,0.016-2.113,0.016-3.568,0.021c0,0.041,0.014,0.146-0.004,0.182c-0.223,0.459-0.051-0.344,0,0.922
	c0.09,2.352,0.008,0.268,0.033,1.355c0.006,0.275-0.025,0.154,0.012,0.428c0.098,0.705,0.25,1.406,0.33,2.113
	c0.025,0.221-0.018,0.498-0.186,0.666c-0.391,0.395-0.855,0.754-1.326,1.1c-1.557,1.143-2.049,2.629-2.115,4.131
	c-0.096,2.213,0.041,4.436,0.211,6.65c0.074,0.975,0.443,1.939,0.744,2.898c0.162,0.516,0.52,0.967,1.512,1.107
	c-0.063-0.332,0.541-0.313,0.477-0.568c-0.209-0.816-0.613-1.5-0.684-2.322c-0.191-2.244-0.383-3.355-0.479-5.602
	c-0.02-0.49-0.068-2.117,0.068-2.598c0.113-0.389,0.029-1.17,0.287-1.658c0.393,0.475,0.67,0.775,0.389,1.174
	c-0.285,0.408-0.066,0.672,0.51,0.734c0.906,0.1,1.227,0.541,1.365,1.129c0.17,0.729,0.799,1.084,1.756,1.254
	c1.035,0.184,1.93,0.498,2.008,1.469c0.051,0.617,0.648,1.061,1.287,1.424c0.561,0.318,1.203,0.297,1.752,0.016
	c0.557-0.285,0.717-0.658,0.49-1.129c-0.053-0.111-0.078-0.23-0.105-0.316c0.367-0.463,0.836-0.436,1.432-0.354
	c1.1,0.15,1.799-0.359,1.695-1.145c-0.018-0.137-0.066-0.271-0.119-0.488c0.428,0,0.754,0.02,1.074-0.004
	c0.369-0.025,0.75-0.049,1.092-0.145c0.561-0.152,0.93-0.402,0.648-0.92c-0.096-0.174-0.115-0.445,0.006-0.594
	c0.373-0.465,0.832-0.895,1.34-1.422c0.168,0.242,0.324,0.387,0.377,0.549c0.336,1.049,0.795,2.088,0.943,3.15
	c0.418,3.01,0.918,6.002,2.031,8.922c0.191,0.504,0.381,0.117,1.059,0.451c-0.021-1.057-0.15-1.199-0.334-2.229
	c-0.334-1.893-0.859-3.775-1.018-5.676c-0.215-2.604-1.076-5.77-2.338-8.154c-0.41-0.775-1.59-2.34-2.813-2.625 M-456.665,93.884
	c0.463,0.037,0.73,0.061,1.037,0.086C-456.06,94.462-456.06,94.462-456.665,93.884z M-447.728,87.712
	c-0.881,1.088-1.336,2.4-3.002,3.072c-0.18,0.072-0.348,0.17-0.488,0.277c-0.686,0.533-1.537,0.766-2.496,0.764
	c-0.654,1.004-0.654,1.004-2.586,1.355c-1.342-0.867-2.932-1.67-4.111-2.719c-1.18-1.047-1.949-2.344-2.965-3.613
	c0.346-0.342,0.154-0.154,0.709-0.699c0.111,0.201,0.479,0.479,0.537,0.59c0.498,0.943,1.008,2.107,2.869,2.391
	c2.305,0.354,4.303-0.113,6.35-1.229c1.027-0.561,1.998-1.18,2.949-1.811c0.252-0.166,0.334-0.473,0.561-0.814
	c0.943,0.666,1.453,1.404,1.699,2.256C-447.687,87.589-447.69,87.665-447.728,87.712z"/>
<path fill-rule="evenodd" clip-rule="evenodd" d="M-449.476,79.571 M-451.458,79.552 M-449.157,78.798
	c0.424-1.004,0.912-2.037,1.299-3.102c1.088-2.998,2.043-6.039,3.229-9.006c0.777-1.949,1.104-3.814,0.781-5.915
	c-0.402-2.608-1.725-4.678-3.799-6.325c-1.844-1.465-4.166-1.963-6.557-1.093c-3.008,1.097-5.604,2.797-7.916,4.83
	c-1.236,1.086-2.121,2.427-2.4,3.944c-0.518,2.805-0.777,5.648-0.531,8.494c0.211,2.42,0.869,4.762,1.973,6.988
	c0.25,0.504,0.361,0.971,0.305,1.463l2.742,0.17c0.094-0.047,0.191-0.078,0.281-0.078c2.508-0.002,5.018,0.027,7.527,0.053
	c0.074,0.002,0.148,0.07,0.266,0.127 M-451.087,54.274c0.818-0.216,1.584,0.005,2.148,0.49c2.135,1.832,3.621,3.958,3.414,6.756
	c-0.012,0.15-0.074,0.298-0.137,0.542c-2.039-0.33-4.057-0.657-6.197-1.002C-451.597,58.742-451.345,56.526-451.087,54.274z
	 M-461.802,59.971c2.211-2.399,4.826-4.345,8.041-5.585c0.15-0.058,0.328-0.057,0.633-0.104c0.475,2.271-0.109,4.404-0.504,6.465
	c-3.084,0.571-6.027,1.117-9.035,1.674C-462.817,61.421-462.419,60.64-461.802,59.971z M-445.542,64.358
	c-1.391,4.016-2.729,8.047-4.238,12.027c-0.74,1.949-0.439,2.041-3.248,1.824c-2.416-0.188-4.848-0.221-7.271-0.252
	c-0.676-0.008-1.02-0.189-1.277-0.729c-1.283-2.686-1.988-5.482-2.004-8.398c-0.008-1.281,0.191-2.564,0.256-3.848
	c0.029-0.584,0.271-0.938,0.916-1.104c2.291-0.586,4.57-1.207,6.863-1.781c0.439-0.109,0.93-0.061,1.682-0.098
	c-0.441,2.117-0.818,3.986-1.223,5.854c-0.555,2.561-1.148,5.115-1.682,7.68c-0.105,0.514-0.006,1.061,0,1.637
	c0.848-0.076,1.053-0.541,1.186-1.045c0.439-1.668,0.891-3.332,1.291-5.006c0.637-2.666,1.234-5.34,1.852-8.01
	c0.258-1.111,0.291-1.16,1.547-1.008c1.42,0.172,2.838,0.365,4.24,0.625C-445.38,62.964-445.173,63.29-445.542,64.358z"/>
<path fill-rule="evenodd" clip-rule="evenodd" d="M-418.88,35.966c-0.178,0.022-0.311-0.843-0.324-1.021
	c-0.104-1.351,0.074-0.473-0.104-1.351c-0.146-0.723-0.324-1.452-0.594-2.133c-0.242-0.603-0.283-1.144-0.014-1.726
	c0.342-0.732,0.523-1.494,0.445-2.322c-0.027-0.271,0.09-0.557,0.148-0.834c0.045-0.222,0.166-0.451,0.139-0.661
	c-0.199-1.566-0.465-3.146-1.414-4.426c-0.639-0.861-0.725-1.872-1.115-2.706c0.98-1.308,1.537-2.627,1.277-4.177
	c0.873-0.643,0.904-0.977,0.074-1.637c-0.768-0.611-1.615-1.093-2.568-1.355c-0.613-0.17-1.232-0.342-1.824-0.574
	c-1.225-0.48-2.457-0.86-3.791-0.855c-0.854,0.004-1.709-0.133-2.564-0.155c-0.938-0.023-1.889-0.078-2.813,0.042
	c-1.455,0.19-2.896,0.489-4.334,0.79c-1.928,0.402-3.848,0.831-5.764,1.285c-1.293,0.306-2.572,0.678-3.859,1.012
	c-0.539,0.14-0.938,0.475-1.264,0.917c-0.188,0.254-0.197,0.515-0.031,0.796c0.414,0.706,0.846,1.405,1.217,2.138
	c0.279,0.55,0.588,1.127,0.68,1.726c0.129,0.837,0.086,1.706,0.08,2.561c-0.002,0.359,0.047,0.66,0.264,0.956
	c0.158,0.214,0.307,0.493,0.32,0.752c0.053,0.912,0.076,1.827,0.053,2.74c-0.035,1.447,0.137,2.86,0.66,4.201
	c0.494,1.269,1.072,2.503,1.602,3.757c0.104,0.244,0.158,0.511,0.273,0.897c-0.535,0.029-0.637-0.049-0.967,0.153
	c-0.311,0.189-1.082,0.253-1.453,0.239c0.355,0.698,0.115,1.081,0.279,1.888c0.381-0.017,1.164-0.18,1.537-0.237
	c1.176-0.182,1.984,0.089,2.699,1.088c0.752,1.053,1.766,1.912,2.477,2.988c0.881,1.335,2.037,2.222,3.402,2.914
	c0.441,0.225,0.83,0.555,1.256,0.814c0.568,0.348,1.115,0.836,1.73,0.979c1.945,0.452,3.918,0.822,5.928,0.527
	c0.68-0.1,1.338-0.389,2.018-0.464c1.896-0.206,3.049-1.63,4.383-2.756c0.262-0.221,0.406-0.603,0.572-0.929
	c0.229-0.455,0.395-0.946,0.646-1.386c0.279-0.486,0.406-0.992,0.402-1.548c-0.004-0.4-0.018-0.803,0.018-1.199
	c0.051-0.606-0.014,0.215,0.051-0.606c0.01-0.114-0.145-0.293-0.031-0.309C-419.099,35.927-419.167,36.768-418.88,35.966z
	 M-446.798,15.967c-0.178-0.201-0.352-0.408-0.574-0.667c0.219-0.112,0.332-0.19,0.455-0.23c1.613-0.513,3.209-1.093,4.846-1.509
	c2.014-0.512,4.057-0.918,6.098-1.306c1.303-0.247,2.623-0.408,3.943-0.545c0.455-0.048,0.928,0.104,1.395,0.149
	c0.551,0.055,1.104,0.155,1.65,0.129c1.092-0.052,2.145,0.018,3.178,0.438c1.029,0.417,2.094,0.733,3.133,1.124
	c0.383,0.145,0.736,0.374,1.223,0.627c-0.504,0.592-0.912,1.155-1.41,1.615c-0.178,0.165-0.584,0.144-0.865,0.092
	c-0.35-0.063-0.686-0.226-1.012-0.38c-1.393-0.662-2.855-0.898-4.373-0.743c-1.459,0.15-2.912,0.375-4.373,0.521
	c-1.762,0.178-3.531,0.286-5.293,0.47c-0.82,0.085-1.648,0.209-2.441,0.438c-1.209,0.35-2.428,0.518-3.678,0.594
	C-445.706,16.835-446.288,16.545-446.798,15.967z M-427.21,19.384c-0.27-0.058-0.549-0.069-0.807-0.101
	c-0.453-0.541-0.492-1.028-0.063-1.623c0.195-0.271,0.143-0.731,0.213-1.164c0.525-0.099,1.092,0.006,1.645,0.191
	c0.658,0.221,1.303,0.481,1.961,0.707c0.467,0.16,0.783,0.461,0.797,0.976c0.012,0.545,0.15,1.109-0.471,1.514
	c-1.029,0.668-1.98,1.459-3.154,1.868c-0.646,0.226-1.295,0.416-2.072,0.516c0.139-0.351,0.232-0.607,0.34-0.857
	c0.373-0.875,0.375-0.874,1.303-0.727c0.027,0.004,0.055,0.013,0.082,0.016c0.529,0.071,0.887-0.093,0.957-0.438
	C-426.401,19.871-426.7,19.496-427.21,19.384z M-430.151,17.65c-0.352-0.002-0.701,0.123-1.053,0.161
	c-0.27,0.028-0.502-0.061-0.525-0.392c-0.021-0.285,0.082-0.518,0.379-0.561c0.725-0.106,1.449-0.19,2.291-0.298
	C-429.269,17.315-429.546,17.653-430.151,17.65z M-431.368,22.573c-0.816,0.337-1.658,0.45-2.576,0.348
	c0.639-0.76,0.91-0.832,1.701-0.556C-431.96,22.463-431.659,22.505-431.368,22.573z M-433.36,17.919
	c-0.391,0.254-0.832,0.286-1.252,0.055c-0.188-0.104-0.346-0.268-0.66-0.517c0.666-0.295,1.211-0.301,1.748-0.279
	c0.131,0.005,0.352,0.156,0.357,0.255C-433.155,17.594-433.237,17.84-433.36,17.919z M-429.429,24.895
	c1.605-0.249,3.115-0.768,4.646-1.249c0.461-0.145,0.836-0.399,1.113-0.839c0.236-0.374,0.547-0.711,1.133-0.867
	c0.125,0.346,0.314,0.632,0.322,0.923c0.037,1.281,0.074,2.565,0.01,3.844c-0.041,0.813-0.191,1.604-0.596,2.372
	c-0.533,1.013-1.313,1.608-2.322,1.924c-0.551,0.173-1.137,0.259-1.715,0.312c-4.111,0.38-7.926-0.502-11.387-2.884
	c-0.668-0.459-1.385-0.84-2.07-1.269c-1.23-0.767-2.426-2.197-2.85-3.459c0.275,0.022,0.51,0.019,0.734,0.063
	c1.74,0.344,3.479,0.701,5.219,1.045C-434.608,25.321-432.032,25.297-429.429,24.895z M-445.161,19.6
	c-0.064-0.426-0.277-0.829-0.469-1.373c0.568,0.041,0.996-0.002,1.379,0.113c1.154,0.347,2.275,0.104,3.354-0.229
	c1.268-0.391,2.559-0.447,3.85-0.57c0.229-0.021,0.535,0.017,0.688,0.159c0.303,0.284,0.492,0.692,0.783,0.991
	c0.26,0.267,0.596,0.456,1.064,0.803c-0.375,0.117-0.561,0.188-0.752,0.233c-0.297,0.07-0.607,0.091-0.887,0.199
	c-0.158,0.061-0.355,0.246-0.373,0.394c-0.014,0.137,0.158,0.365,0.303,0.438c0.512,0.259,1.02,0.612,1.645,0.337
	c0.057-0.025,0.15,0.032,0.281,0.065c-0.213,0.29-0.486,0.522-0.566,0.813c-0.072,0.259,0.066,0.581,0.131,0.987
	c-1.049-0.119-2.113-0.185-3.164-0.39c-1.602-0.313-3.199-0.642-4.799-0.963c-0.027-0.006-0.055-0.01-0.082-0.012
	C-444.005,21.483-444.944,21.028-445.161,19.6z M-421.351,33.972c-0.043,1.339-0.049,2.692-0.252,4.011
	c-0.273,1.771-1.105,3.253-2.613,4.269c-2.238,1.508-4.607,2.062-7.268,1.39c-1.801-0.454-3.279-1.483-4.809-2.444
	c-0.297-0.188-0.518-0.511-0.76-0.784c-1.008-1.137-2.012-2.276-3.016-3.418c-0.734-0.836-1.23-1.82-1.666-2.846
	c-0.623-1.461-1.314-2.895-1.889-4.375c-0.336-0.868-0.533-1.799-0.736-2.715c-0.094-0.425-0.146-0.894,0.141-1.412
	c0.195,0.246,0.344,0.431,0.486,0.619c0.709,0.931,1.596,1.669,2.541,2.312c1.316,0.894,2.67,1.729,4.027,2.556
	c1.807,1.1,3.783,1.794,5.822,2.196c1.795,0.354,3.637,0.291,5.469,0.205c1.49-0.071,2.9-0.366,4.326-1.405
	C-421.458,32.914-421.335,33.446-421.351,33.972z"/>
<g>
	<path fill-rule="evenodd" clip-rule="evenodd" d="M-387.149,86.937c-0.07-1.26-0.568-2.508-0.863-3.762
		c-0.102-0.426-0.262-0.85-0.406-1.273c-0.324-0.955-0.988-1.846-1.555-2.756c-0.328-0.529-0.68-1.051-1.273-1.443
		c0.186-0.563,0.447-1.072,0.502-1.605c0.059-0.559,0.318-1.088,0.137-1.693c-0.164-0.543-0.074-1.098-0.318-1.648
		c-0.25-0.564-0.461-1.133-0.719-1.779c0.723-0.148,0.979-0.645,1.348-1.07c0.34-0.391,0.174-0.781-0.461-1.047
		c-0.49-0.205-1.031-0.354-1.563-0.504c-0.344-0.098-0.709-0.154-1.123-0.244c0.016-0.26,0.021-0.479,0.045-0.695
		c0.078-0.693,0.223-1.377,0.229-2.076c0.004-0.744-0.029-1.494,0.004-2.238c0.064-1.4-0.418-2.81-0.654-4.215
		c-0.023-0.141-0.115-0.313-0.262-0.418c-0.455-0.323-0.939-0.629-1.432-0.926c-0.84-0.508-1.85-0.771-2.861-1.022
		c-0.398-0.099-0.785-0.148-1.207-0.119c-0.76,0.052-1.537,0.058-2.313,0.053c-1.217-0.008-2.24,0.353-3.352,0.541
		c-0.166,0.028-0.305,0.12-0.439,0.196c-0.563,0.32-1.145,0.629-1.672,0.975c-1.242,0.813-1.857,1.833-1.67,3.093
		c0.125,0.853,0.273,1.705,0.396,2.558c0.066,0.453,0.15,0.902,0.408,1.344c0.07,0.119,0.098,0.248,0.123,0.373
		c0.113,0.578,0.184,1.156,0.34,1.732c0.146,0.545-0.055,0.92-0.768,1.137c-0.596,0.184-1.014,0.51-1.42,0.836
		c-0.502,0.404-0.387,0.879,0.277,1.262c0.117,0.068,0.258,0.117,0.393,0.17c0.465,0.182,0.932,0.363,1.445,0.561
		c-0.063,0.109-0.121,0.217-0.189,0.322c-0.518,0.791-0.914,1.613-1.184,2.48c-0.422,1.361-0.441,2.736,0.139,4.156
		c0.051,0.121,0.055,0.248,0.074,0.352c-0.678,0.543-1.371,1.045-1.971,1.596c-0.602,0.553-1.131,1.145-1.654,1.734
		c-0.543,0.613-1.008,1.262-1.57,1.863c-0.541,0.578-0.287,0.674-0.945,1.207c-0.08-0.041-0.463,0.584-0.475,0.588
		c-2.139,0.551-0.75,1.717-0.771,1.508c-0.316,0.254,0.039,1.477-0.41,1.639c-0.133,0.25-0.416,0.697-0.5,0.957
		c-0.369,1.129-0.385-1.055-0.553,0.109c-0.266,1.826-0.424,3.67-0.496,5.521c0.02,0.01,0.037,0.018,0.057,0.029
		c0.018,0.299,0.037,0.621,0.057,0.943c0.041,0.725,0.063,1.449,0.129,2.176c0.039,0.424,0.16,0.852,0.23,1.277
		c0.082,0.5,0.422,0.82,1.221,0.861c0.207,0.012,0.389,0.201,0.619,0.098c0.17-0.234,0.332-0.471,0.508-0.699
		c0.186-0.242,0.23-0.492,0.166-0.785c-0.141-0.627-0.256-1.256-0.32-1.883c-0.076-0.727-0.092-1.453-0.125-2.18
		c-0.078-1.76,0.092-3.486,0.734-5.148c0.736-1.91,1.768-3.727,3.023-5.473c0.961-1.338,2.105-2.592,3.477-3.74
		c0.217-0.182,0.414-0.385,0.824-0.449c0.104,0.064,0.242,0.125,0.328,0.207c0.857,0.822,2.008,1.439,3.244,1.932
		c1.766,0.699,3.623,1.188,5.592,0.838c0.207-0.037,0.438-0.027,0.652-0.053c0.211-0.027,0.445-0.043,0.617-0.115
		c0.688-0.289,1.361-0.592,2.025-0.902c0.469-0.217,0.832-0.5,1.074-0.859c0.102-0.15,0.227-0.313,0.416-0.406
		c0.365-0.176,0.508-0.436,0.686-0.699c0.199-0.291,0.277-0.652,0.814-0.848c0.104,0.127,0.215,0.23,0.27,0.342
		c1.055,2.141,1.898,4.297,2.023,6.5c0.008,0.125,0.051,0.252,0.086,0.377c0.264,0.955,0.396,1.908,0.32,2.855
		c-0.01,0.123-0.029,0.252,0.016,0.373c0.201,0.535,0.141,1.055,0.08,1.572c-0.15,1.256-0.256,2.518-0.6,3.75
		c-0.166,0.6-0.217,1.219-0.584,1.773c-0.041,0.064-0.023,0.148-0.049,0.219c-0.234,0.633-0.34,1.299-0.785,1.877
		c-0.098,0.127-0.145,0.273-0.199,0.414c-0.357,0.914-0.627,1.854-1.256,2.695c-0.139,0.188-0.158,0.424-0.201,0.643
		c-0.063,0.338,0.232,0.529,0.75,0.492c0.447-0.031,0.816-0.152,1.117-0.373c0.848-0.627,0.889-1.467,1.246-2.285
		c0.355-0.813,1.133-1.559,1.473-2.375c0.107-0.256,0.254-0.504,0.332-0.764c0.311-1.029,0.145-1.914,0.451-2.941
		c0.07-0.238,0.172-1.713,0.342-1.912 M-404.761,59.207c0.721-0.448,1.623-0.668,2.58-0.807c0.563-0.081,1.145-0.173,1.727-0.15
		c1.346,0.052,2.529,0.429,3.578,1.114c0.66,0.431,1.145,0.843,1.064,1.457c-0.025,0.19,0.088,0.4,0.135,0.601
		c0.164,0.679,0.287,1.355,0.135,2.021c-0.033,0.145-0.027,0.297-0.023,0.447c0.035,1.074,0.082,2.148,0.113,3.225
		c0.006,0.244-0.029,0.484-0.049,0.77c-2.723-0.059-5.373-0.09-7.967-0.053c-0.354-0.211-0.43-0.447-0.371-0.662
		c0.191-0.719-0.084-1.451-0.219-2.174c-0.266-1.434-0.5-2.863-0.609-4.294c-0.021-0.299-0.141-0.601-0.168-0.899
		C-404.853,59.604-404.788,59.409-404.761,59.207z M-399.821,81.829c-0.922-0.014-1.779-0.213-2.604-0.518
		c-1.668-0.617-2.855-1.557-3.768-2.654c-0.244-0.291-0.359-0.627-0.512-0.945c-0.188-0.393-0.354-0.787-0.525-1.182
		c-0.033-0.074-0.08-0.154-0.068-0.225c0.088-0.533,0.121-1.072,0.035-1.621c0.426-1.473,1.172-2.842,2.313-4.088
		c0.725-0.793,1.82-1.158,3.242-1.137c1.035,0.014,2.078,0.07,3.117,0.115c0.629,0.027,1.26,0.066,1.928,0.102
		c0.711,0.697,1.713,1.234,2.297,1.994c0.451,0.584,0.842,1.172,0.967,1.809c0.018,0.096,0.039,0.221-0.031,0.285
		c-0.338,0.311-0.771,0.549-1.34,0.662c-0.193,0.037-0.473-0.133-0.459-0.275c0.008-0.072,0.021-0.146,0.055-0.215
		c0.393-0.76-0.1-1.402-0.9-2.004c-0.184-0.137-0.369-0.277-0.578-0.396c-0.727-0.412-1.529-0.465-2.186-0.016
		c-0.299,0.205-0.508,0.457-0.594,0.748c-0.225,0.742-0.203,1.475,0.664,2.152c0.465,0.361,0.992,0.598,1.691,0.533
		c0.145-0.012,0.295-0.002,0.299-0.002c0.557,0.207,0.988,0.373,1.426,0.531c0.609,0.223,1.08,0.098,1.49-0.172
		c0.168-0.109,0.344-0.215,0.598-0.375c0.074,0.164,0.152,0.256,0.146,0.338c-0.049,0.543-0.125,1.078-0.426,1.578
		c-0.307,0.51-0.51,1.055-0.795,1.57c-0.477,0.861-1.09,1.668-2.002,2.336C-397.249,81.425-398.349,81.853-399.821,81.829z
		 M-396.474,73.413c-0.014,0.215-0.156,0.365-0.424,0.467c-0.299,0.111-0.547,0.084-0.803-0.098
		c-0.625-0.443-0.691-1.041-0.164-1.502c0.246-0.215,0.668-0.193,0.943,0.049C-396.542,72.663-396.46,73.034-396.474,73.413z"/>
	<path fill-rule="evenodd" clip-rule="evenodd" d="M-402.729,78.495c-0.145-0.059-0.416-0.154-0.666-0.273
		c-0.373-0.178-0.449-0.461-0.117-0.627c0.502-0.25,1.029-0.49,1.602-0.666c0.658-0.203,1.18,0.051,1.578,0.496
		c0.068,0.076,0.078,0.207,0.029,0.285c-0.162,0.268-0.373,0.521-0.814,0.615C-401.589,78.427-402.04,78.583-402.729,78.495z"/>
	<path fill-rule="evenodd" clip-rule="evenodd" d="M-398.679,77.177c0.574,0.209,1.152,0.41,1.713,0.637
		c0.09,0.035,0.156,0.191,0.129,0.27c-0.084,0.24-0.266,0.457-0.627,0.533c-0.799,0.166-1.58,0.115-2.295-0.33
		c-0.375-0.234-0.436-0.584-0.109-0.795C-399.56,77.29-399.212,77.134-398.679,77.177z"/>
</g>
<g>
	<path fill-rule="evenodd" clip-rule="evenodd" d="M-415.134,48.915c0.521,0.086,1.051,0.152,1.563,0.263
		c0.422,0.091,0.631,0.331,0.637,0.646c0.006,0.321-0.301,0.493-0.67,0.547c-1.299,0.189-2.602,0.386-3.918,0.496
		c-0.465,0.038-0.992-0.124-1.451-0.263c-0.482-0.144-0.717-0.465-0.672-0.838c0.049-0.394,0.465-0.579,0.945-0.692
		c0.133-0.03,0.279-0.044,0.418-0.044c1.045-0.004,2.09-0.002,3.137-0.002C-415.142,48.99-415.138,48.953-415.134,48.915z"/>
	<path fill-rule="evenodd" clip-rule="evenodd" d="M-414.983,47.104c-0.455,0.092-0.904,0.205-1.367,0.271
		c-0.633,0.09-1.277,0.207-1.914,0.196c-1.002-0.018-1.707-0.647-1.523-1.252c0.131-0.428,0.434-0.62,1.053-0.662
		c0.592-0.041,1.186-0.073,1.777-0.113c0.873-0.061,1.709,0.023,2.449,0.375c0.246,0.117,0.479,0.29,0.617,0.477
		c0.381,0.503,0.08,0.826-0.725,0.813c-0.113-0.002-0.225-0.018-0.338-0.027C-414.964,47.156-414.974,47.129-414.983,47.104z"/>
	<path fill-rule="evenodd" clip-rule="evenodd" d="M-402.306,54.918c-0.418-0.059-0.842-0.093-1.244-0.182
		c-0.498-0.111-0.846-0.486-0.838-0.832c0.006-0.365,0.338-0.707,0.85-0.82c0.293-0.065,0.617-0.13,0.912-0.104
		c1.096,0.095,2.189,0.208,3.271,0.355c0.375,0.051,0.764,0.181,1.061,0.352c0.176,0.102,0.283,0.363,0.24,0.529
		c-0.031,0.125-0.334,0.278-0.545,0.305C-399.825,54.671-401.06,54.789-402.306,54.918z"/>
	<path fill-rule="evenodd" clip-rule="evenodd" d="M-416.401,54.254c-0.703-0.056-1.406-0.114-2.107-0.166
		c-0.488-0.035-0.844-0.228-1.141-0.483c-0.588-0.508-0.279-1.176,0.621-1.315c0.27-0.041,0.572-0.038,0.842,0.003
		c1.109,0.167,2.215,0.349,3.314,0.546c0.264,0.047,0.539,0.144,0.74,0.272c0.641,0.408,0.498,0.878-0.324,1.036
		c-0.404,0.078-0.84,0.079-1.262,0.095c-0.223,0.009-0.449-0.026-0.676-0.042C-416.396,54.218-416.397,54.236-416.401,54.254z"/>
	<path fill-rule="evenodd" clip-rule="evenodd" d="M-409.704,47.426c-0.43-0.104-0.949-0.198-1.434-0.351
		c-0.424-0.134-0.65-0.563-0.543-0.883c0.105-0.314,0.486-0.565,0.99-0.555c0.932,0.021,1.871,0.053,2.791,0.15
		c0.482,0.052,1.07,0.187,1.121,0.626c0.049,0.448-0.533,0.611-0.988,0.726C-408.347,47.287-408.978,47.325-409.704,47.426z"/>
	<path fill-rule="evenodd" clip-rule="evenodd" d="M-400.528,49.248c0.529,0.108,1.102,0.213,1.662,0.344
		c0.32,0.074,0.512,0.251,0.527,0.502c0.02,0.278-0.184,0.473-0.52,0.575c-0.691,0.211-1.424,0.304-2.166,0.216
		c-0.529-0.063-0.926-0.313-1.131-0.669c-0.133-0.229,0.125-0.657,0.496-0.778C-401.339,49.332-400.96,49.316-400.528,49.248z"/>
	<path fill-rule="evenodd" clip-rule="evenodd" d="M-404.126,50.94c-0.395-0.097-0.805-0.141-1.123-0.287
		c-0.602-0.275-0.508-0.977,0.109-1.294c0.566-0.29,1.934-0.181,2.314,0.378c0.307,0.45,0.264,0.72-0.342,0.959
		C-403.454,50.81-403.794,50.858-404.126,50.94z"/>
	<path fill-rule="evenodd" clip-rule="evenodd" d="M-407.503,52.981c0.787,0.005,1.482,0.38,1.471,0.796
		c-0.014,0.496-0.641,0.878-1.457,0.886c-0.744,0.007-1.475-0.443-1.459-0.9C-408.935,53.28-408.372,52.976-407.503,52.981z"/>
	<path fill-rule="evenodd" clip-rule="evenodd" d="M-411.071,54.365c-0.295-0.041-0.549-0.059-0.789-0.112
		c-0.541-0.121-0.824-0.453-0.74-0.835c0.09-0.407,0.457-0.7,1.012-0.673c0.459,0.023,0.953,0.116,1.35,0.28
		c0.705,0.292,0.65,0.873-0.07,1.155C-410.55,54.274-410.837,54.309-411.071,54.365z"/>
	<path fill-rule="evenodd" clip-rule="evenodd" d="M-410.829,50.703c-0.592,0.001-1.113-0.383-1.119-0.827
		c-0.006-0.455,0.537-0.829,1.209-0.833c0.809-0.005,1.529,0.38,1.553,0.827C-409.165,50.296-409.964,50.702-410.829,50.703z"/>
	<path fill-rule="evenodd" clip-rule="evenodd" d="M-399.108,46.894c-0.082,0.119-0.121,0.251-0.232,0.33
		c-0.42,0.296-0.965,0.367-1.502,0.276c-0.521-0.09-0.881-0.357-0.98-0.761c-0.09-0.365,0.109-0.635,0.586-0.785
		c0.615-0.194,1.709,0.089,1.992,0.529C-399.165,46.609-399.153,46.755-399.108,46.894z"/>
	<path fill-rule="evenodd" clip-rule="evenodd" d="M-407.507,49.219c0.371,0.129,0.781,0.224,1.109,0.396
		c0.371,0.195,0.387,0.48,0.125,0.757c-0.322,0.339-0.805,0.424-1.342,0.405c-0.525-0.017-0.828-0.255-1.014-0.564
		C-408.919,49.731-408.364,49.263-407.507,49.219z"/>
	<path fill-rule="evenodd" clip-rule="evenodd" d="M-404.179,45.909c0.639,0.007,1.162,0.412,1.135,0.878
		c-0.018,0.329-0.369,0.525-0.947,0.53c-0.6,0.005-1.135-0.331-1.152-0.723C-405.159,46.217-404.718,45.904-404.179,45.909z"/>
</g>
<path fill-rule="evenodd" clip-rule="evenodd" d="M-464.157,87.538c0.002-1.045-1.676-2.27-3.506-7.967
	c-0.182-0.563-1.191-3.262-1.367-3.83c-0.258-0.834-0.758-3.195-1.002-4.01c-0.285-0.943-0.254-2.168-0.52-3.016
	c-0.104-0.336-0.207-0.662-0.309-0.975c-0.951-2.936-0.9-4.484-0.902-4.707c-0.012-0.805,0.492-4.708,0.818-6.646
	c0.25-1.47,0.967-3.22,1.232-4.128c0.414-1.431,0.322-1.006,1-3.346c0.334-1.15,0.545-2.547,1.184-3.599
	c1.047-1.718,0.855-3.195,2.383-4.736c0.977-0.985,1.762-1.868,3.994-2.414c1.727-0.423,3.596-0.535,5.391-0.669
	c0.805-0.061,1.604-0.158,2.408-0.216c1.4-0.101,2.805-0.187,4.207-0.271c0.807-0.049,1.615-0.108,2.422-0.12
	c0.369-0.005,1.027-0.117,1.395-0.122l-0.291-1.822c-0.537,0.034-1.072,0.066-1.609,0.089c-0.877,0.037-1.764-0.018-2.641,0.023
	c-1.719,0.081-3.434,0.217-5.152,0.299c-2.045,0.098-9.414,0.312-11.039,1.17c-1.947,1.027-3.342,4.264-4.063,6.148
	c-1.775,4.643-1.016,3.127-2.186,6.285c-0.406,1.096-0.209,0.859-0.818,3.97c-0.678,3.449-1.223,6.466-1.412,9.74
	c-0.182,3.145-0.109,4.115,1,7.059c0.314,0.832,0.918,4.059,2.051,7.107c0.904,2.436,1.17,2.201,3.779,7.195
	c0.939,1.799,1.678,5.367,1.68,5.943"/>
<path fill-rule="evenodd" clip-rule="evenodd" d="M-385.067,64.878c0.262,2.59-0.387,4.842-1.025,7.895
	c0.16-0.031-1.309,4.115-2.277,7.979c-0.787,3.143-0.781,2.975-0.541,3.605c0.178,0.469,0.51,2.697,2.021-0.418
	c0.234-0.48,2.895-8.611,3.484-11.066c0.445-2.119,1.045-2.051,0.957-4.557c-0.039-1.123,0.445-1.893,0.217-2.994
	c-0.504-2.414-0.383-2.367-0.855-3.63c-0.537-1.439-0.176-3.648-0.775-5.071c-0.422-1.007-0.857-2.011-1.318-3.006
	c-0.602-1.298-1.236-2.586-1.855-3.878c-0.154-0.322-0.283-0.655-0.469-0.965c-0.496-0.829-0.98-1.666-1.533-2.468
	c-0.758-1.103-1.518-2.21-2.389-3.248c-0.516-0.616-1.256-1.097-1.881-1.649c-1.527-1.348-3.225-2.524-5.031-3.591
	c-0.225-0.133-0.443-0.286-0.691-0.378c-1.75-0.646-3.59-1.058-5.461-1.313c-1.459-0.198-2.953-0.212-4.434-0.301
	c-0.16-0.01-0.326,0.024-0.49,0.035c-0.492,0.034-0.984,0.091-1.479,0.094c-1.318,0.009-2.639-0.041-3.955,0.001
	c-1.014,0.031-2.021,0.159-3.031,0.257c-0.625,0.06-0.855,0.032-1-0.244c-0.461,0.24-0.395,1.536-0.66,2.286
	c0.277,0.053,0.656-0.051,0.932,0.007c0.102-0.157,0.186-0.056,0.537-0.097c0.406-0.048,0.822-0.085,1.213-0.185
	c1.188-0.302,2.391-0.278,3.604-0.187c0.602,0.046,1.207,0.09,1.811,0.086c1.127-0.01,2.256-0.121,3.377-0.069
	c1.48,0.066,2.959,0.225,4.432,0.392c0.84,0.096,1.684,0.233,2.492,0.447c1.578,0.419,2.896,1.203,4.037,2.212
	c0.57,0.503,1.158,0.999,1.797,1.437c1.059,0.727,1.988,1.561,2.672,2.538c0.924,1.315,1.838,2.656,2.521,4.069
	c0.943,1.957,2.082,3.847,2.82,5.881c0.57,1.575,1.109,4.669,1.34,6.337"/>
<g>
	<path fill-rule="evenodd" clip-rule="evenodd" d="M-219.149,86.937c-0.07-1.26-0.568-2.508-0.863-3.762
		c-0.102-0.426-0.262-0.85-0.406-1.273c-0.324-0.955-0.988-1.846-1.555-2.756c-0.328-0.529-0.68-1.051-1.273-1.443
		c0.186-0.563,0.447-1.072,0.502-1.605c0.059-0.559,0.318-1.088,0.137-1.693c-0.164-0.543-0.074-1.098-0.318-1.648
		c-0.25-0.564-0.461-1.133-0.719-1.779c0.723-0.148,0.979-0.645,1.348-1.07c0.34-0.391,0.174-0.781-0.461-1.047
		c-0.49-0.205-1.031-0.354-1.563-0.504c-0.344-0.098-0.709-0.154-1.123-0.244c0.016-0.26,0.021-0.479,0.045-0.695
		c0.078-0.693,0.223-1.377,0.229-2.076c0.004-0.744-0.029-1.494,0.004-2.238c0.064-1.4-0.418-2.81-0.654-4.215
		c-0.023-0.141-0.115-0.313-0.262-0.418c-0.455-0.323-0.939-0.629-1.432-0.926c-0.84-0.508-1.85-0.771-2.861-1.022
		c-0.398-0.099-0.785-0.148-1.207-0.119c-0.76,0.052-1.537,0.058-2.313,0.053c-1.217-0.008-2.24,0.353-3.352,0.541
		c-0.166,0.028-0.305,0.12-0.439,0.196c-0.563,0.32-1.145,0.629-1.672,0.975c-1.242,0.813-1.857,1.833-1.67,3.093
		c0.125,0.853,0.273,1.705,0.396,2.558c0.066,0.453,0.15,0.902,0.408,1.344c0.07,0.119,0.098,0.248,0.123,0.373
		c0.113,0.578,0.184,1.156,0.34,1.732c0.146,0.545-0.055,0.92-0.768,1.137c-0.596,0.184-1.014,0.51-1.42,0.836
		c-0.502,0.404-0.387,0.879,0.277,1.262c0.117,0.068,0.258,0.117,0.393,0.17c0.465,0.182,0.932,0.363,1.445,0.561
		c-0.063,0.109-0.121,0.217-0.189,0.322c-0.518,0.791-0.914,1.613-1.184,2.48c-0.422,1.361-0.441,2.736,0.139,4.156
		c0.051,0.121,0.055,0.248,0.074,0.352c-0.678,0.543-1.371,1.045-1.971,1.596c-0.602,0.553-1.131,1.145-1.654,1.734
		c-0.543,0.613-1.008,1.262-1.57,1.863c-0.541,0.578-0.287,0.674-0.945,1.207c-0.08-0.041-0.463,0.584-0.475,0.588
		c-2.139,0.551-0.75,1.717-0.771,1.508c-0.316,0.254,0.039,1.477-0.41,1.639c-0.133,0.25-0.416,0.697-0.5,0.957
		c-0.369,1.129-0.385-1.055-0.553,0.109c-0.266,1.826-0.424,3.67-0.496,5.521c0.02,0.01,0.037,0.018,0.057,0.029
		c0.018,0.299,0.037,0.621,0.057,0.943c0.041,0.725,0.063,1.449,0.129,2.176c0.039,0.424,0.16,0.852,0.23,1.277
		c0.082,0.5,0.422,0.82,1.221,0.861c0.207,0.012,0.389,0.201,0.619,0.098c0.17-0.234,0.332-0.471,0.508-0.699
		c0.186-0.242,0.23-0.492,0.166-0.785c-0.141-0.627-0.256-1.256-0.32-1.883c-0.076-0.727-0.092-1.453-0.125-2.18
		c-0.078-1.76,0.092-3.486,0.734-5.148c0.736-1.91,1.768-3.727,3.023-5.473c0.961-1.338,2.105-2.592,3.477-3.74
		c0.217-0.182,0.414-0.385,0.824-0.449c0.104,0.064,0.242,0.125,0.328,0.207c0.857,0.822,2.008,1.439,3.244,1.932
		c1.766,0.699,3.623,1.188,5.592,0.838c0.207-0.037,0.438-0.027,0.652-0.053c0.211-0.027,0.445-0.043,0.617-0.115
		c0.688-0.289,1.361-0.592,2.025-0.902c0.469-0.217,0.832-0.5,1.074-0.859c0.102-0.15,0.227-0.313,0.416-0.406
		c0.365-0.176,0.508-0.436,0.686-0.699c0.199-0.291,0.277-0.652,0.814-0.848c0.104,0.127,0.215,0.23,0.27,0.342
		c1.055,2.141,1.898,4.297,2.023,6.5c0.008,0.125,0.051,0.252,0.086,0.377c0.264,0.955,0.396,1.908,0.32,2.855
		c-0.01,0.123-0.029,0.252,0.016,0.373c0.201,0.535,0.141,1.055,0.08,1.572c-0.15,1.256-0.256,2.518-0.6,3.75
		c-0.166,0.6-0.217,1.219-0.584,1.773c-0.041,0.064-0.023,0.148-0.049,0.219c-0.234,0.633-0.34,1.299-0.785,1.877
		c-0.098,0.127-0.145,0.273-0.199,0.414c-0.357,0.914-0.627,1.854-1.256,2.695c-0.139,0.188-0.158,0.424-0.201,0.643
		c-0.063,0.338,0.232,0.529,0.75,0.492c0.447-0.031,0.816-0.152,1.117-0.373c0.848-0.627,0.889-1.467,1.246-2.285
		c0.355-0.813,1.133-1.559,1.473-2.375c0.107-0.256,0.254-0.504,0.332-0.764c0.311-1.029,0.145-1.914,0.451-2.941
		c0.07-0.238,0.172-1.713,0.342-1.912 M-236.761,59.207c0.721-0.448,1.623-0.668,2.58-0.807c0.563-0.081,1.145-0.173,1.727-0.15
		c1.346,0.052,2.529,0.429,3.578,1.114c0.66,0.431,1.145,0.843,1.064,1.457c-0.025,0.19,0.088,0.4,0.135,0.601
		c0.164,0.679,0.287,1.355,0.135,2.021c-0.033,0.145-0.027,0.297-0.023,0.447c0.035,1.074,0.082,2.148,0.113,3.225
		c0.006,0.244-0.029,0.484-0.049,0.77c-2.723-0.059-5.373-0.09-7.967-0.053c-0.354-0.211-0.43-0.447-0.371-0.662
		c0.191-0.719-0.084-1.451-0.219-2.174c-0.266-1.434-0.5-2.863-0.609-4.294c-0.021-0.299-0.141-0.601-0.168-0.899
		C-236.853,59.604-236.788,59.409-236.761,59.207z M-231.821,81.829c-0.922-0.014-1.779-0.213-2.604-0.518
		c-1.668-0.617-2.855-1.557-3.768-2.654c-0.244-0.291-0.359-0.627-0.512-0.945c-0.188-0.393-0.354-0.787-0.525-1.182
		c-0.033-0.074-0.08-0.154-0.068-0.225c0.088-0.533,0.121-1.072,0.035-1.621c0.426-1.473,1.172-2.842,2.313-4.088
		c0.725-0.793,1.82-1.158,3.242-1.137c1.035,0.014,2.078,0.07,3.117,0.115c0.629,0.027,1.26,0.066,1.928,0.102
		c0.711,0.697,1.713,1.234,2.297,1.994c0.451,0.584,0.842,1.172,0.967,1.809c0.018,0.096,0.039,0.221-0.031,0.285
		c-0.338,0.311-0.771,0.549-1.34,0.662c-0.193,0.037-0.473-0.133-0.459-0.275c0.008-0.072,0.021-0.146,0.055-0.215
		c0.393-0.76-0.1-1.402-0.9-2.004c-0.184-0.137-0.369-0.277-0.578-0.396c-0.727-0.412-1.529-0.465-2.186-0.016
		c-0.299,0.205-0.508,0.457-0.594,0.748c-0.225,0.742-0.203,1.475,0.664,2.152c0.465,0.361,0.992,0.598,1.691,0.533
		c0.145-0.012,0.295-0.002,0.299-0.002c0.557,0.207,0.988,0.373,1.426,0.531c0.609,0.223,1.08,0.098,1.49-0.172
		c0.168-0.109,0.344-0.215,0.598-0.375c0.074,0.164,0.152,0.256,0.146,0.338c-0.049,0.543-0.125,1.078-0.426,1.578
		c-0.307,0.51-0.51,1.055-0.795,1.57c-0.477,0.861-1.09,1.668-2.002,2.336C-229.249,81.425-230.349,81.853-231.821,81.829z
		 M-228.474,73.413c-0.014,0.215-0.156,0.365-0.424,0.467c-0.299,0.111-0.547,0.084-0.803-0.098
		c-0.625-0.443-0.691-1.041-0.164-1.502c0.246-0.215,0.668-0.193,0.943,0.049C-228.542,72.663-228.46,73.034-228.474,73.413z"/>
	<path fill-rule="evenodd" clip-rule="evenodd" d="M-234.729,78.495c-0.145-0.059-0.416-0.154-0.666-0.273
		c-0.373-0.178-0.449-0.461-0.117-0.627c0.502-0.25,1.029-0.49,1.602-0.666c0.658-0.203,1.18,0.051,1.578,0.496
		c0.068,0.076,0.078,0.207,0.029,0.285c-0.162,0.268-0.373,0.521-0.814,0.615C-233.589,78.427-234.04,78.583-234.729,78.495z"/>
	<path fill-rule="evenodd" clip-rule="evenodd" d="M-230.679,77.177c0.574,0.209,1.152,0.41,1.713,0.637
		c0.09,0.035,0.156,0.191,0.129,0.27c-0.084,0.24-0.266,0.457-0.627,0.533c-0.799,0.166-1.58,0.115-2.295-0.33
		c-0.375-0.234-0.436-0.584-0.109-0.795C-231.56,77.29-231.212,77.134-230.679,77.177z"/>
</g>
<g>
	<path fill-rule="evenodd" clip-rule="evenodd" d="M-87.366,99.374c0.164-0.9,0.621-1.754,1.338-2.34
		c-0.055-1.213,0.125-2.434,0.256-3.641c0.203-1.898,0.438-3.805,0.639-5.711c-0.086-0.111-0.15-0.23-0.174-0.361
		c-0.109-0.582-0.164-1.158-0.193-1.738c-0.23-0.217-0.377-0.49-0.365-0.803c0.002-0.027,0.004-0.055,0.006-0.082
		c-0.072-0.355-0.145-0.709-0.193-1.066c-0.135-0.971-0.412-1.906-0.76-2.842c-0.42-1.129-1.031-2.211-1.227-3.4
		c-0.061-0.381-0.27-0.775-0.537-1.094c-0.412-0.492-0.469-1.006-0.301-1.539c0.352-1.123,0.484-2.271,0.58-3.418
		c0.143-1.689,0.076-3.389-0.164-5.068c-0.109-0.777-0.523-1.523-0.686-2.301c-0.213-1.021-0.707-1.936-1.412-2.765
		c-0.701-0.821-1.398-1.677-2.285-2.349c-1.184-0.898-2.504-1.696-4.178-1.924c-0.127-0.018-0.246-0.073-0.367-0.114
		c-2.018-0.671-4.037-0.474-6.039,0.034c-0.945,0.24-1.711,0.728-2.244,1.421c-1.365,1.772-2.451,3.651-3.119,5.685
		c-0.287,0.867-0.594,1.732-0.84,2.609c-0.195,0.699-0.381,1.41-0.453,2.123c-0.205,2.021-0.057,4.029,0.498,6.012
		c0.096,0.344,0.164,0.695,0.229,0.973c-0.855,0.867-1.385,1.773-1.928,2.672c-0.49,0.813-0.609,1.723-0.945,2.574
		c-0.965,2.445-1.33,4.98-1.734,7.512c-0.154,0.963-0.281,1.93-0.402,2.896c-0.057,0.465-0.072,0.934-0.096,1.4
		c-0.025,0.504-0.041,1.008-0.057,1.512c-0.029,0.936-0.096,1.873-0.074,2.807c0.023,0.971,0.109,1.941,0.215,2.908
		c0.039,0.352,0.186,0.701,0.334,1.037c0.07,0.156,0.23,0.34,0.408,0.404c0.586,0.213,1.191,0.422,1.895,0.168
		c0-0.42,0.055-0.816-0.012-1.201c-0.215-1.25-0.359-2.508-0.293-3.766s-0.48-2.502-0.096-3.76c-0.115-0.98,0.111-1.941,0.258-2.902
		c0.262-1.715,0.541-3.428,0.859-5.137c0.34-1.818,1.051-3.561,1.748-5.303c0.156-0.393,0.398-0.754,0.82-1.08
		c0.154,0.188,0.27,0.295,0.344,0.42c0.881,1.471,2.207,2.574,3.977,3.326c1.604,0.68,3.297,0.934,5.078,0.723
		c0.689-0.084,1.371-0.227,2.051-0.363c0.977-0.199,1.967-0.385,2.578-1.15c0.066-0.084,0.213-0.121,0.314-0.189
		c1.119-0.75,2.223-1.514,3.127-2.453c0.119-0.125,0.207-0.334,0.584-0.232c0.041,0.129,0.096,0.293,0.143,0.459
		c0.236,0.842,0.428,1.691,0.713,2.521c0.814,2.365,1.367,4.77,1.445,7.229c0.057,1.797-0.043,3.6-0.098,5.398
		c-0.039,1.299-0.25,2.58-0.703,3.832c-0.111,0.309-0.203,0.631-0.223,0.951c-0.021,0.313-0.035,0.662,0.439,0.869
		c0.33-0.033,0.691-0.174,1.084-0.094C-87.54,99.558-87.46,99.46-87.366,99.374z M-91.347,72.313
		c-0.055,1.072-0.238,2.154-0.527,3.201c-0.201,0.723-0.658,1.404-1.047,2.086c-0.627,1.105-1.617,1.979-2.848,2.623
		c-1.844,0.967-3.828,1.178-5.855,0.4c-2.184-0.836-3.541-2.268-4.258-4.15c-0.418-1.096-0.92-2.174-1.111-3.32
		c-0.316-1.891-0.625-3.791-0.154-5.691c0.482-1.938,1.154-3.838,1.988-5.696c0.209-0.467,0.516-0.904,0.875-1.521
		c0.84,0.605,1.553,1.07,2.197,1.593c0.818,0.664,1.727,1.207,2.756,1.626c1.406,0.576,2.781,1.207,4.207,1.746
		c1.107,0.418,2.273,0.73,3.502,1.119c0.084,0.432,0.234,0.887,0.248,1.344C-91.331,69.22-91.271,70.769-91.347,72.313z"/>
	<path fill-rule="evenodd" clip-rule="evenodd" d="M-102.103,72.794c-0.004,0.049-0.002-0.131,0.025-0.309
		c0.127-0.801,0.748-1.287,1.68-1.145c0.709,0.109,1.348,0.117,2.037-0.057c0.623-0.154,1.178,0.17,1.723,0.371
		c0.152,0.055,0.301,0.299,0.285,0.445c-0.045,0.424-0.047,0.904-0.299,1.246c-0.273,0.369-0.773,0.662-1.248,0.881
		c-0.26,0.119-0.686,0.068-1.012,0.006c-0.686-0.131-1.363-0.232-2.068-0.176c-0.043,0.004-0.088,0.004-0.131,0.002
		C-101.968,74.011-102.222,73.753-102.103,72.794z"/>
</g>
<path fill-rule="evenodd" clip-rule="evenodd" d="M49.134,80.144c0,0,0.305,2.861,0.145,3.658c-0.182,0.918-0.451,1.195-1.229,1.865
	c-0.486,0.416-1.035,0.826-1.66,1.117c-0.834,0.389-1.732,0.846-2.666,0.941c-2.15,0.217-3.83-0.787-4.256-2.363
	c-0.203-0.754-0.34-1.52-0.479-2.283c-0.039-0.223,0.021-0.455,0.041-0.742c0.035,0.008,0-0.207,0.035-0.197
	c-0.008-0.037,0.012-0.264,0.012-0.307l0.049-0.209c0-0.133,0,0.072,0.092-0.408c0.381-0.846,0.156-0.535,0.686-1.246
	c1.51,0.047,3.098,0.098,4.564,0.143c0.656,0.01,0.164,0,0.303,0l0.41,0.012c0.158,0,0.875-0.051,0.975,0.02
	C47.142,80.144,49.036,79.151,49.134,80.144 M50.843,78.798c-1.303-0.098-3.354,0.359-4.756,0.256
	c-0.002-0.01-0.004-0.023-0.006-0.037c-0.506,0-1.012,0.002-1.518,0.006c-0.002,0.016-0.004,0.031-0.006,0.047
	c-0.666,0-1.283,0.002-1.9,0c-0.621-0.002-1.242-0.008-1.863-0.014c-1.455,0.016-2.113,0.016-3.568,0.021
	c0,0.041,0.014,0.146-0.004,0.182c-0.223,0.459-0.051-0.344,0,0.922c0.09,2.352,0.008,0.268,0.033,1.355
	c0.006,0.275-0.025,0.154,0.012,0.428c0.098,0.705,0.25,1.406,0.33,2.113c0.025,0.221-0.018,0.498-0.186,0.666
	c-0.391,0.395-0.855,0.754-1.326,1.1c-1.557,1.143-2.049,2.629-2.115,4.131c-0.096,2.213,0.041,4.436,0.211,6.65
	c0.074,0.975,0.443,1.939,0.744,2.898c0.162,0.516,0.52,0.967,1.512,1.107c-0.063-0.332,0.541-0.313,0.477-0.568
	c-0.209-0.816-0.613-1.5-0.684-2.322c-0.191-2.244-0.383-3.355-0.479-5.602c-0.02-0.49-0.068-2.117,0.068-2.598
	c0.113-0.389,0.029-1.17,0.287-1.658c0.393,0.475,0.67,0.775,0.389,1.174c-0.285,0.408-0.066,0.672,0.51,0.734
	c0.906,0.1,1.227,0.541,1.365,1.129c0.17,0.729,0.799,1.084,1.756,1.254c1.035,0.184,1.93,0.498,2.008,1.469
	c0.051,0.617,0.648,1.061,1.287,1.424c0.561,0.318,1.203,0.297,1.752,0.016c0.557-0.285,0.717-0.658,0.49-1.129
	c-0.053-0.111-0.078-0.23-0.105-0.316c0.367-0.463,0.836-0.436,1.432-0.354c1.1,0.15,1.799-0.359,1.695-1.145
	c-0.018-0.137-0.066-0.271-0.119-0.488c0.428,0,0.754,0.02,1.074-0.004c0.369-0.025,0.75-0.049,1.092-0.145
	c0.561-0.152,0.93-0.402,0.648-0.92c-0.096-0.174-0.115-0.445,0.006-0.594c0.373-0.465,0.832-0.895,1.34-1.422
	c0.168,0.242,0.324,0.387,0.377,0.549c0.336,1.049,0.795,2.088,0.943,3.15c0.418,3.01,0.918,6.002,2.031,8.922
	c0.191,0.504,0.381,0.117,1.059,0.451c-0.021-1.057-0.15-1.199-0.334-2.229c-0.334-1.893-0.859-3.775-1.018-5.676
	c-0.215-2.604-1.076-5.77-2.338-8.154c-0.41-0.775-1.59-2.34-2.813-2.625 M43.335,93.884c0.463,0.037,0.73,0.061,1.037,0.086
	C43.94,94.462,43.94,94.462,43.335,93.884z M52.272,87.712c-0.881,1.088-1.336,2.4-3.002,3.072c-0.18,0.072-0.348,0.17-0.488,0.277
	c-0.686,0.533-1.537,0.766-2.496,0.764c-0.654,1.004-0.654,1.004-2.586,1.355c-1.342-0.867-2.932-1.67-4.111-2.719
	c-1.18-1.047-1.949-2.344-2.965-3.613c0.346-0.342,0.154-0.154,0.709-0.699c0.111,0.201,0.479,0.479,0.537,0.59
	c0.498,0.943,1.008,2.107,2.869,2.391c2.305,0.354,4.303-0.113,6.35-1.229c1.027-0.561,1.998-1.18,2.949-1.811
	c0.252-0.166,0.334-0.473,0.561-0.814c0.943,0.666,1.453,1.404,1.699,2.256C52.313,87.589,52.31,87.665,52.272,87.712z"/>
<path fill-rule="evenodd" clip-rule="evenodd" d="M50.524,79.571 M48.542,79.552 M50.843,78.798
	c0.424-1.004,0.912-2.037,1.299-3.102c1.088-2.998,2.043-6.039,3.229-9.006c0.777-1.949,1.104-3.814,0.781-5.915
	c-0.402-2.608-1.725-4.678-3.799-6.325c-1.844-1.465-4.166-1.963-6.557-1.093c-3.008,1.097-5.604,2.797-7.916,4.83
	c-1.236,1.086-2.121,2.427-2.4,3.944c-0.518,2.805-0.777,5.648-0.531,8.494c0.211,2.42,0.869,4.762,1.973,6.988
	c0.25,0.504,0.361,0.971,0.305,1.463l2.742,0.17c0.094-0.047,0.191-0.078,0.281-0.078c2.508-0.002,5.018,0.027,7.527,0.053
	c0.074,0.002,0.148,0.07,0.266,0.127 M48.913,54.274c0.818-0.216,1.584,0.005,2.148,0.49c2.135,1.832,3.621,3.958,3.414,6.756
	c-0.012,0.15-0.074,0.298-0.137,0.542c-2.039-0.33-4.057-0.657-6.197-1.002C48.403,58.742,48.655,56.526,48.913,54.274z
	 M38.198,59.971c2.211-2.399,4.826-4.345,8.041-5.585c0.15-0.058,0.328-0.057,0.633-0.104c0.475,2.271-0.109,4.404-0.504,6.465
	c-3.084,0.571-6.027,1.117-9.035,1.674C37.183,61.421,37.581,60.64,38.198,59.971z M54.458,64.358
	c-1.391,4.016-2.729,8.047-4.238,12.027c-0.74,1.949-0.439,2.041-3.248,1.824c-2.416-0.188-4.848-0.221-7.271-0.252
	c-0.676-0.008-1.02-0.189-1.277-0.729c-1.283-2.686-1.988-5.482-2.004-8.398c-0.008-1.281,0.191-2.564,0.256-3.848
	c0.029-0.584,0.271-0.938,0.916-1.104c2.291-0.586,4.57-1.207,6.863-1.781c0.439-0.109,0.93-0.061,1.682-0.098
	c-0.441,2.117-0.818,3.986-1.223,5.854c-0.555,2.561-1.148,5.115-1.682,7.68c-0.105,0.514-0.006,1.061,0,1.637
	c0.848-0.076,1.053-0.541,1.186-1.045c0.439-1.668,0.891-3.332,1.291-5.006c0.637-2.666,1.234-5.34,1.852-8.01
	c0.258-1.111,0.291-1.16,1.547-1.008c1.42,0.172,2.838,0.365,4.24,0.625C54.62,62.964,54.827,63.29,54.458,64.358z"/>
<path fill-rule="evenodd" clip-rule="evenodd" d="M242.794,35.966c-0.178,0.022-0.311-0.843-0.324-1.021
	c-0.104-1.351,0.074-0.473-0.104-1.351c-0.146-0.723-0.324-1.452-0.594-2.133c-0.242-0.603-0.283-1.144-0.014-1.726
	c0.342-0.732,0.523-1.494,0.445-2.322c-0.027-0.271,0.09-0.557,0.148-0.834c0.045-0.222,0.166-0.451,0.139-0.661
	c-0.199-1.566-0.465-3.146-1.414-4.426c-0.639-0.861-0.725-1.872-1.115-2.706c0.98-1.308,1.537-2.627,1.277-4.177
	c0.873-0.643,0.904-0.977,0.074-1.637c-0.768-0.611-1.615-1.093-2.568-1.355c-0.613-0.17-1.232-0.342-1.824-0.574
	c-1.225-0.48-2.457-0.86-3.791-0.855c-0.854,0.004-1.709-0.133-2.564-0.155c-0.938-0.023-1.889-0.078-2.813,0.042
	c-1.455,0.19-2.896,0.489-4.334,0.79c-1.928,0.402-3.848,0.831-5.764,1.285c-1.293,0.306-2.572,0.678-3.859,1.012
	c-0.539,0.14-0.938,0.475-1.264,0.917c-0.188,0.254-0.197,0.515-0.031,0.796c0.414,0.706,0.846,1.405,1.217,2.138
	c0.279,0.55,0.588,1.127,0.68,1.726c0.129,0.837,0.086,1.706,0.08,2.561c-0.002,0.359,0.047,0.66,0.264,0.956
	c0.158,0.214,0.307,0.493,0.32,0.752c0.053,0.912,0.076,1.827,0.053,2.74c-0.035,1.447,0.137,2.86,0.66,4.201
	c0.494,1.269,1.072,2.503,1.602,3.757c0.104,0.244,0.158,0.511,0.273,0.897c-0.535,0.029-0.637-0.049-0.967,0.153
	c-0.311,0.189-1.082,0.253-1.453,0.239c0.355,0.698,0.115,1.081,0.279,1.888c0.381-0.017,1.164-0.18,1.537-0.237
	c1.176-0.182,1.984,0.089,2.699,1.088c0.752,1.053,1.766,1.912,2.477,2.988c0.881,1.335,2.037,2.222,3.402,2.914
	c0.441,0.225,0.83,0.555,1.256,0.814c0.568,0.348,1.115,0.836,1.73,0.979c1.945,0.452,3.918,0.822,5.928,0.527
	c0.68-0.1,1.338-0.389,2.018-0.464c1.896-0.206,3.049-1.63,4.383-2.756c0.262-0.221,0.406-0.603,0.572-0.929
	c0.229-0.455,0.395-0.946,0.646-1.386c0.279-0.486,0.406-0.992,0.402-1.548c-0.004-0.4-0.018-0.803,0.018-1.199
	c0.051-0.606-0.014,0.215,0.051-0.606c0.01-0.114-0.145-0.293-0.031-0.309C242.575,35.927,242.507,36.768,242.794,35.966z
	 M214.876,15.967c-0.178-0.201-0.352-0.408-0.574-0.667c0.219-0.112,0.332-0.19,0.455-0.23c1.613-0.513,3.209-1.093,4.846-1.509
	c2.014-0.512,4.057-0.918,6.098-1.306c1.303-0.247,2.623-0.408,3.943-0.545c0.455-0.048,0.928,0.104,1.395,0.149
	c0.551,0.055,1.104,0.155,1.65,0.129c1.092-0.052,2.145,0.018,3.178,0.438c1.029,0.417,2.094,0.733,3.133,1.124
	c0.383,0.145,0.736,0.374,1.223,0.627c-0.504,0.592-0.912,1.155-1.41,1.615c-0.178,0.165-0.584,0.144-0.865,0.092
	c-0.35-0.063-0.686-0.226-1.012-0.38c-1.393-0.662-2.855-0.898-4.373-0.743c-1.459,0.15-2.912,0.375-4.373,0.521
	c-1.762,0.178-3.531,0.286-5.293,0.47c-0.82,0.085-1.648,0.209-2.441,0.438c-1.209,0.35-2.428,0.518-3.678,0.594
	C215.968,16.835,215.386,16.545,214.876,15.967z M234.464,19.384c-0.27-0.058-0.549-0.069-0.807-0.101
	c-0.453-0.541-0.492-1.028-0.063-1.623c0.195-0.271,0.143-0.731,0.213-1.164c0.525-0.099,1.092,0.006,1.645,0.191
	c0.658,0.221,1.303,0.481,1.961,0.707c0.467,0.16,0.783,0.461,0.797,0.976c0.012,0.545,0.15,1.109-0.471,1.514
	c-1.029,0.668-1.98,1.459-3.154,1.868c-0.646,0.226-1.295,0.416-2.072,0.516c0.139-0.351,0.232-0.607,0.34-0.857
	c0.373-0.875,0.375-0.874,1.303-0.727c0.027,0.004,0.055,0.013,0.082,0.016c0.529,0.071,0.887-0.093,0.957-0.438
	C235.272,19.871,234.974,19.496,234.464,19.384z M231.522,17.65c-0.352-0.002-0.701,0.123-1.053,0.161
	c-0.27,0.028-0.502-0.061-0.525-0.392c-0.021-0.285,0.082-0.518,0.379-0.561c0.725-0.106,1.449-0.19,2.291-0.298
	C232.405,17.315,232.128,17.653,231.522,17.65z M230.306,22.573c-0.816,0.337-1.658,0.45-2.576,0.348
	c0.639-0.76,0.91-0.832,1.701-0.556C229.714,22.463,230.015,22.505,230.306,22.573z M228.313,17.919
	c-0.391,0.254-0.832,0.286-1.252,0.055c-0.188-0.104-0.346-0.268-0.66-0.517c0.666-0.295,1.211-0.301,1.748-0.279
	c0.131,0.005,0.352,0.156,0.357,0.255C228.519,17.594,228.437,17.84,228.313,17.919z M232.245,24.895
	c1.605-0.249,3.115-0.768,4.646-1.249c0.461-0.145,0.836-0.399,1.113-0.839c0.236-0.374,0.547-0.711,1.133-0.867
	c0.125,0.346,0.314,0.632,0.322,0.923c0.037,1.281,0.074,2.565,0.01,3.844c-0.041,0.813-0.191,1.604-0.596,2.372
	c-0.533,1.013-1.313,1.608-2.322,1.924c-0.551,0.173-1.137,0.259-1.715,0.312c-4.111,0.38-7.926-0.502-11.387-2.884
	c-0.668-0.459-1.385-0.84-2.07-1.269c-1.23-0.767-2.426-2.197-2.85-3.459c0.275,0.022,0.51,0.019,0.734,0.063
	c1.74,0.344,3.479,0.701,5.219,1.045C227.065,25.321,229.642,25.297,232.245,24.895z M216.513,19.6
	c-0.064-0.426-0.277-0.829-0.469-1.373c0.568,0.041,0.996-0.002,1.379,0.113c1.154,0.347,2.275,0.104,3.354-0.229
	c1.268-0.391,2.559-0.447,3.85-0.57c0.229-0.021,0.535,0.017,0.688,0.159c0.303,0.284,0.492,0.692,0.783,0.991
	c0.26,0.267,0.596,0.456,1.064,0.803c-0.375,0.117-0.561,0.188-0.752,0.233c-0.297,0.07-0.607,0.091-0.887,0.199
	c-0.158,0.061-0.355,0.246-0.373,0.394c-0.014,0.137,0.158,0.365,0.303,0.438c0.512,0.259,1.02,0.612,1.645,0.337
	c0.057-0.025,0.15,0.032,0.281,0.065c-0.213,0.29-0.486,0.522-0.566,0.813c-0.072,0.259,0.066,0.581,0.131,0.987
	c-1.049-0.119-2.113-0.185-3.164-0.39c-1.602-0.313-3.199-0.642-4.799-0.963c-0.027-0.006-0.055-0.01-0.082-0.012
	C217.669,21.483,216.729,21.028,216.513,19.6z M240.323,33.972c-0.043,1.339-0.049,2.692-0.252,4.011
	c-0.273,1.771-1.105,3.253-2.613,4.269c-2.238,1.508-4.607,2.062-7.268,1.39c-1.801-0.454-3.279-1.483-4.809-2.444
	c-0.297-0.188-0.518-0.511-0.76-0.784c-1.008-1.137-2.012-2.276-3.016-3.418c-0.734-0.836-1.23-1.82-1.666-2.846
	c-0.623-1.461-1.314-2.895-1.889-4.375c-0.336-0.868-0.533-1.799-0.736-2.715c-0.094-0.425-0.146-0.894,0.141-1.412
	c0.195,0.246,0.344,0.431,0.486,0.619c0.709,0.931,1.596,1.669,2.541,2.312c1.316,0.894,2.67,1.729,4.027,2.556
	c1.807,1.1,3.783,1.794,5.822,2.196c1.795,0.354,3.637,0.291,5.469,0.205c1.49-0.071,2.9-0.366,4.326-1.405
	C240.216,32.914,240.339,33.446,240.323,33.972z"/>
<g>
	<path fill-rule="evenodd" clip-rule="evenodd" d="M246.54,48.915c0.521,0.086,1.051,0.152,1.563,0.263
		c0.422,0.091,0.631,0.331,0.637,0.646c0.006,0.321-0.301,0.493-0.67,0.547c-1.299,0.189-2.602,0.386-3.918,0.496
		c-0.465,0.038-0.992-0.124-1.451-0.263c-0.482-0.144-0.717-0.465-0.672-0.838c0.049-0.394,0.465-0.579,0.945-0.692
		c0.133-0.03,0.279-0.044,0.418-0.044c1.045-0.004,2.09-0.002,3.137-0.002C246.532,48.99,246.536,48.953,246.54,48.915z"/>
	<path fill-rule="evenodd" clip-rule="evenodd" d="M246.69,47.104c-0.455,0.092-0.904,0.205-1.367,0.271
		c-0.633,0.09-1.277,0.207-1.914,0.196c-1.002-0.018-1.707-0.647-1.523-1.252c0.131-0.428,0.434-0.62,1.053-0.662
		c0.592-0.041,1.186-0.073,1.777-0.113c0.873-0.061,1.709,0.023,2.449,0.375c0.246,0.117,0.479,0.29,0.617,0.477
		c0.381,0.503,0.08,0.826-0.725,0.813c-0.113-0.002-0.225-0.018-0.338-0.027C246.71,47.156,246.7,47.129,246.69,47.104z"/>
	<path fill-rule="evenodd" clip-rule="evenodd" d="M259.368,54.918c-0.418-0.059-0.842-0.093-1.244-0.182
		c-0.498-0.111-0.846-0.486-0.838-0.832c0.006-0.365,0.338-0.707,0.85-0.82c0.293-0.065,0.617-0.13,0.912-0.104
		c1.096,0.095,2.189,0.208,3.271,0.355c0.375,0.051,0.764,0.181,1.061,0.352c0.176,0.102,0.283,0.363,0.24,0.529
		c-0.031,0.125-0.334,0.278-0.545,0.305C261.849,54.671,260.614,54.789,259.368,54.918z"/>
	<path fill-rule="evenodd" clip-rule="evenodd" d="M245.272,54.254c-0.703-0.056-1.406-0.114-2.107-0.166
		c-0.488-0.035-0.844-0.228-1.141-0.483c-0.588-0.508-0.279-1.176,0.621-1.315c0.27-0.041,0.572-0.038,0.842,0.003
		c1.109,0.167,2.215,0.349,3.314,0.546c0.264,0.047,0.539,0.144,0.74,0.272c0.641,0.408,0.498,0.878-0.324,1.036
		c-0.404,0.078-0.84,0.079-1.262,0.095c-0.223,0.009-0.449-0.026-0.676-0.042C245.278,54.218,245.276,54.236,245.272,54.254z"/>
	<path fill-rule="evenodd" clip-rule="evenodd" d="M251.97,47.426c-0.43-0.104-0.949-0.198-1.434-0.351
		c-0.424-0.134-0.65-0.563-0.543-0.883c0.105-0.314,0.486-0.565,0.99-0.555c0.932,0.021,1.871,0.053,2.791,0.15
		c0.482,0.052,1.07,0.187,1.121,0.626c0.049,0.448-0.533,0.611-0.988,0.726C253.327,47.287,252.696,47.325,251.97,47.426z"/>
	<path fill-rule="evenodd" clip-rule="evenodd" d="M261.146,49.248c0.529,0.108,1.102,0.213,1.662,0.344
		c0.32,0.074,0.512,0.251,0.527,0.502c0.02,0.278-0.184,0.473-0.52,0.575c-0.691,0.211-1.424,0.304-2.166,0.216
		c-0.529-0.063-0.926-0.313-1.131-0.669c-0.133-0.229,0.125-0.657,0.496-0.778C260.335,49.332,260.714,49.316,261.146,49.248z"/>
	<path fill-rule="evenodd" clip-rule="evenodd" d="M257.548,50.94c-0.395-0.097-0.805-0.141-1.123-0.287
		c-0.602-0.275-0.508-0.977,0.109-1.294c0.566-0.29,1.934-0.181,2.314,0.378c0.307,0.45,0.264,0.72-0.342,0.959
		C258.22,50.81,257.88,50.858,257.548,50.94z"/>
	<path fill-rule="evenodd" clip-rule="evenodd" d="M254.171,52.981c0.787,0.005,1.482,0.38,1.471,0.796
		c-0.014,0.496-0.641,0.878-1.457,0.886c-0.744,0.007-1.475-0.443-1.459-0.9C252.739,53.28,253.302,52.976,254.171,52.981z"/>
	<path fill-rule="evenodd" clip-rule="evenodd" d="M250.603,54.365c-0.295-0.041-0.549-0.059-0.789-0.112
		c-0.541-0.121-0.824-0.453-0.74-0.835c0.09-0.407,0.457-0.7,1.012-0.673c0.459,0.023,0.953,0.116,1.35,0.28
		c0.705,0.292,0.65,0.873-0.07,1.155C251.124,54.274,250.837,54.309,250.603,54.365z"/>
	<path fill-rule="evenodd" clip-rule="evenodd" d="M250.845,50.703c-0.592,0.001-1.113-0.383-1.119-0.827
		c-0.006-0.455,0.537-0.829,1.209-0.833c0.809-0.005,1.529,0.38,1.553,0.827C252.509,50.296,251.71,50.702,250.845,50.703z"/>
	<path fill-rule="evenodd" clip-rule="evenodd" d="M262.565,46.894c-0.082,0.119-0.121,0.251-0.232,0.33
		c-0.42,0.296-0.965,0.367-1.502,0.276c-0.521-0.09-0.881-0.357-0.98-0.761c-0.09-0.365,0.109-0.635,0.586-0.785
		c0.615-0.194,1.709,0.089,1.992,0.529C262.509,46.609,262.521,46.755,262.565,46.894z"/>
	<path fill-rule="evenodd" clip-rule="evenodd" d="M254.167,49.219c0.371,0.129,0.781,0.224,1.109,0.396
		c0.371,0.195,0.387,0.48,0.125,0.757c-0.322,0.339-0.805,0.424-1.342,0.405c-0.525-0.017-0.828-0.255-1.014-0.564
		C252.755,49.731,253.31,49.263,254.167,49.219z"/>
	<path fill-rule="evenodd" clip-rule="evenodd" d="M257.495,45.909c0.639,0.007,1.162,0.412,1.135,0.878
		c-0.018,0.329-0.369,0.525-0.947,0.53c-0.6,0.005-1.135-0.331-1.152-0.723C256.515,46.217,256.956,45.904,257.495,45.909z"/>
</g>
<path fill-rule="evenodd" clip-rule="evenodd" d="M197.517,87.538c0.002-1.045-1.676-2.27-3.506-7.967
	c-0.182-0.563-1.191-3.262-1.367-3.83c-0.258-0.834-0.758-3.195-1.002-4.01c-0.285-0.943-0.254-2.168-0.52-3.016
	c-0.104-0.336-0.207-0.662-0.309-0.975c-0.951-2.936-0.9-4.484-0.902-4.707c-0.012-0.805,0.492-4.708,0.818-6.646
	c0.25-1.47,0.967-3.22,1.232-4.128c0.414-1.431,0.322-1.006,1-3.346c0.334-1.15,0.545-2.547,1.184-3.599
	c1.047-1.718,0.855-3.195,2.383-4.736c0.977-0.985,1.762-1.868,3.994-2.414c1.727-0.423,3.596-0.535,5.391-0.669
	c0.805-0.061,1.604-0.158,2.408-0.216c1.4-0.101,2.805-0.187,4.207-0.271c0.807-0.049,1.615-0.108,2.422-0.12
	c0.369-0.005,1.027-0.117,1.395-0.122l-0.291-1.822c-0.537,0.034-1.072,0.066-1.609,0.089c-0.877,0.037-1.764-0.018-2.641,0.023
	c-1.719,0.081-3.434,0.217-5.152,0.299c-2.045,0.098-9.414,0.312-11.039,1.17c-1.947,1.027-3.342,4.264-4.063,6.148
	c-1.775,4.643-1.016,3.127-2.186,6.285c-0.406,1.096-0.209,0.859-0.818,3.97c-0.678,3.449-1.223,6.466-1.412,9.74
	c-0.182,3.145-0.109,4.115,1,7.059c0.314,0.832,0.918,4.059,2.051,7.107c0.904,2.436,1.17,2.201,3.779,7.195
	c0.939,1.799,1.678,5.367,1.68,5.943"/>
<path fill-rule="evenodd" clip-rule="evenodd" d="M276.606,64.878c0.262,2.59-0.387,4.842-1.025,7.895
	c0.16-0.031-1.309,4.115-2.277,7.979c-0.787,3.143-0.781,2.975-0.541,3.605c0.178,0.469,0.51,2.697,2.021-0.418
	c0.234-0.48,2.895-8.611,3.484-11.066c0.445-2.119,1.045-2.051,0.957-4.557c-0.039-1.123,0.445-1.893,0.217-2.994
	c-0.504-2.414-0.383-2.367-0.855-3.63c-0.537-1.439-0.176-3.648-0.775-5.071c-0.422-1.007-0.857-2.011-1.318-3.006
	c-0.602-1.298-1.236-2.586-1.855-3.878c-0.154-0.322-0.283-0.655-0.469-0.965c-0.496-0.829-0.98-1.666-1.533-2.468
	c-0.758-1.103-1.518-2.21-2.389-3.248c-0.516-0.616-1.256-1.097-1.881-1.649c-1.527-1.348-3.225-2.524-5.031-3.591
	c-0.225-0.133-0.443-0.286-0.691-0.378c-1.75-0.646-3.59-1.058-5.461-1.313c-1.459-0.198-2.953-0.212-4.434-0.301
	c-0.16-0.01-0.326,0.024-0.49,0.035c-0.492,0.034-0.984,0.091-1.479,0.094c-1.318,0.009-2.639-0.041-3.955,0.001
	c-1.014,0.031-2.021,0.159-3.031,0.257c-0.625,0.06-0.855,0.032-1-0.244c-0.461,0.24-0.395,1.536-0.66,2.286
	c0.277,0.053,0.656-0.051,0.932,0.007c0.102-0.157,0.186-0.056,0.537-0.097c0.406-0.048,0.822-0.085,1.213-0.185
	c1.188-0.302,2.391-0.278,3.604-0.187c0.602,0.046,1.207,0.09,1.811,0.086c1.127-0.01,2.256-0.121,3.377-0.069
	c1.48,0.066,2.959,0.225,4.432,0.392c0.84,0.096,1.684,0.233,2.492,0.447c1.578,0.419,2.896,1.203,4.037,2.212
	c0.57,0.503,1.158,0.999,1.797,1.437c1.059,0.727,1.988,1.561,2.672,2.538c0.924,1.315,1.838,2.656,2.521,4.069
	c0.943,1.957,2.082,3.847,2.82,5.881c0.57,1.575,1.109,4.669,1.34,6.337"/>
<path fill-rule="evenodd" clip-rule="evenodd" d="M437.573,115.12"/>
<path fill-rule="evenodd" clip-rule="evenodd" d="M362.142,100.095c0.398,0.672,0.385,1.348,0.24,2.031
	c-0.053,0.26-0.133,0.525-0.256,0.756c-0.475,0.893-0.746,1.838-0.826,2.842c-0.029,0.4-0.215,0.699-0.5,0.988
	c-0.395,0.398-0.26,0.453-1.557,0.521c-0.529-0.326-0.635-1.02-1.186-1.443c-0.135,0.105-0.293,0.195-0.402,0.326
	c-0.17,0.203-0.281,0.459-0.465,0.648c-1.223,1.273-1.826,2.883-2.473,4.475c-0.27,0.662-0.176,1.266,0.121,1.873
	c0.1,0.205,0.209,0.406,0.32,0.607c0.246,0.443,0.221,0.875-0.082,1.336c-0.166,0.061-0.396,0.109-0.59,0.221
	c-0.418,0.24-0.809,0.148-1.203-0.037c-0.287-0.135-0.482-0.334-0.572-0.664c-0.172-0.623-0.373-1.24-0.588-1.852
	c-0.201-0.57-0.133-1.129,0.023-1.689c0.396-1.416,1.074-2.691,1.939-3.871c0.811-1.109,1.631-2.211,2.445-3.318
	c0.041-0.057,0.051-0.139,0.086-0.238c-0.137-0.201-0.281-0.422-0.436-0.635c-0.156-0.217-0.344-0.414-0.479-0.643
	c-0.496-0.846-0.045-1.824,0.932-1.801c0.943,0.021,1.814-0.201,2.701-0.406C360.245,99.911,361.144,99.884,362.142,100.095z"/>
<path fill-rule="evenodd" clip-rule="evenodd" d="M562.737,121.3c-0.098,0.613-0.371,1.135-0.77,1.611
	c-0.23,0.275-0.498,0.359-0.807,0.264c-0.586-0.18-1.172-0.369-1.516-0.949c-0.074-0.127-0.197-0.227-0.355-0.404
	c-0.256,0.252-0.488,0.484-0.721,0.715c-0.459,0.449-0.963,0.367-1.48,0.125c-0.553-0.258-0.715-0.531-0.678-1.184
	c0.059-0.99,0.131-1.98,0.184-2.971c0.01-0.176-0.039-0.354-0.064-0.561c-0.646,0.279-0.783,0.775-0.834,1.326
	c-0.082,0.912-0.176,1.826-0.258,2.738c-0.066,0.729-0.385,1.309-0.996,1.715c-0.693,0.461-1.621,0-1.666-0.842
	c-0.012-0.221,0.078-0.445,0.105-0.668c0.078-0.635,0.361-1.256,0.115-1.967c-0.221-0.072-0.48-0.133-0.717-0.24
	c-0.697-0.314-0.9-0.934-0.541-1.609c0.205-0.385,0.479-0.682,0.938-0.771c0.217-0.043,0.424-0.139,0.678-0.227
	c0.025-0.516,0.059-1.004,0.07-1.494c0.01-0.457-0.006-0.914-0.01-1.367c0.154-0.23,0.283-0.473,0.455-0.672
	c0.426-0.496,0.914-0.525,1.387-0.084c0.193,0.182,0.363,0.393,0.516,0.609c0.152,0.215,0.27,0.455,0.404,0.688
	c0.861-0.365,1.271-1.031,1.301-1.951c0.012-0.432,0.123-0.834,0.383-1.184c0.42-0.564,1.107-0.643,1.58-0.137
	c0.402,0.43,0.66,0.932,0.502,1.564c-0.176,0.703-0.35,1.41-0.479,2.123c-0.123,0.672-0.188,1.355-0.281,2.057
	c0.475,0.092,0.941,0.094,1.32,0.277c0.35,0.172,0.605,0.535,0.934,0.842c0.295-0.215,0.596-0.512,0.957-0.672
	c0.336-0.146,0.734-0.146,1.16-0.223c0.135-0.281,0.268-0.596,0.43-0.895c0.449-0.818,1.24-1.016,2.037-0.523
	c0.48,0.295,0.813,0.678,0.805,1.287c-0.004,0.285-0.088,0.51-0.289,0.717c-0.316,0.322-0.613,0.662-0.908,1.004
	c-0.299,0.344-0.379,0.713-0.141,1.143c0.162-0.045,0.279-0.057,0.375-0.109c1.104-0.602,2.203-1.209,3.295-1.809
	c0.033-0.135,0.086-0.244,0.086-0.355c0.008-1.588,0.98-2.498,2.262-3.166c0.607-0.316,1.045-0.178,1.387,0.334
	c0.318,0.479,0.23,1.135-0.217,1.541c-0.141,0.129-0.309,0.225-0.451,0.354c-0.389,0.352-0.381,0.502,0.064,1.068
	c0.527-0.287,1.092-0.531,1.396-1.109c0.17-0.322,0.418-0.559,0.764-0.65c0.482-0.127,0.758-0.465,1.039-0.844
	c0.293-0.393,0.641-0.754,0.998-1.094c0.428-0.406,0.932-0.449,1.492-0.258c1.355,0.471,1.398,1.174,0.443,2.057
	c-0.223,0.207-0.488,0.367-0.729,0.555c-0.377,0.299-0.592,0.693-0.676,1.164c-0.121,0.688,0.279,1.195,0.986,1.256
	c0.357,0.029,0.666-0.092,0.975-0.264c0.428-0.238,0.846-0.531,1.352-0.482c0.307,0.229,0.383,0.523,0.32,0.838
	c-0.033,0.176-0.113,0.404-0.25,0.492c-0.922,0.598-1.791,1.313-2.936,1.471c-0.975,0.137-1.828-0.205-2.533-0.816
	c-0.346-0.297-0.498-0.82-0.768-1.293c-0.256-0.057-0.373,0.193-0.283,0.4c0.234,0.545,0.197,1.047-0.102,1.531
	c-0.361,0.59-0.768,1.109-1.443,1.418c-0.93,0.424-1.844,0.422-2.771,0.096c-0.666-0.232-0.785-0.646-0.385-1.248
	c0.166-0.25,0.398-0.459,0.6-0.688c0.119-0.135,0.24-0.268,0.342-0.379c-0.102-0.256-0.264-0.246-0.396-0.172
	c-0.301,0.166-0.625,0.318-0.867,0.551c-0.906,0.861-2.137,1.164-3.139,1.859c-0.223,0.152-0.59,0.146-0.887,0.133
	c-1.049-0.049-1.545-0.432-2.123-1.576c0.111-0.922,0.111-0.922-0.799-1.123C561.987,120.735,562.272,121.081,562.737,121.3z"/>
<path fill-rule="evenodd" clip-rule="evenodd" d="M529.067,126.929c-0.371,0.191-0.736,0.121-1.094-0.055
	c-0.35-0.176-0.666-0.385-0.736-0.707c0.568-1.988,1.115-3.895,1.656-5.803c0.115-0.404,0.195-0.816,0.305-1.223
	c0.131-0.48,0.18-0.945,0.1-1.461c-0.143-0.918,0.43-1.533,1.357-1.605c0.598-0.049,1.184,0.285,1.434,0.914
	c0.279,0.711,0.482,1.449,0.719,2.174c0.188,0.574,0.379,1.148,0.551,1.672c0.287,0.08,0.35-0.064,0.41-0.201
	c0.537-1.182,1.08-2.361,1.6-3.553c0.182-0.416,0.373-0.852,0.434-1.295c0.094-0.688,0.436-1.113,1.104-1.381
	c0.111,0.055,0.256,0.1,0.369,0.186c0.264,0.199,0.73,0.23,0.734,0.648c0.004,0.477,0.145,0.961-0.143,1.438
	c-0.295,0.486-0.512,1.023-0.721,1.555c-0.254,0.639-0.469,1.289-0.879,1.855c-0.072,0.102-0.059,0.262-0.09,0.412
	c0.348,0.018,0.408-0.25,0.568-0.383c0.172-0.143,0.299-0.344,0.445-0.52c0.273-0.322,0.566-0.609,0.969-0.785
	c0.238-0.104,0.441-0.289,0.656-0.441c0.184-0.131,0.354-0.291,0.549-0.402c0.84-0.477,1.412-0.375,2.002,0.373
	c0.234,0.297,0.418,0.633,0.613,0.934c0.725-0.176,1.42-0.342,2.137-0.514c0.176-0.498,0.17-0.965,0.078-1.467
	c-0.111-0.619,0.152-1.066,0.66-1.328c1.023-0.523,2.027,0.039,2.137,1.219c0.029,0.334-0.039,0.676-0.064,1.061
	c0.365,0.012,0.699,0.023,1.008,0.035c0.568,0.736,0.576,0.936,0.098,1.5c-0.477,0.563-1.07,0.961-1.803,1.26
	c-0.105,0.592-0.248,1.184-0.309,1.785c-0.076,0.781-0.666,1.158-1.168,1.605c-0.096,0.084-0.291,0.096-0.434,0.078
	c-0.146-0.018-0.281-0.111-0.42-0.174c-0.656-0.291-0.76-0.465-0.664-1.133c0.033-0.227,0.092-0.449,0.129-0.676
	c0.039-0.221,0.066-0.441,0.109-0.734c-0.396-0.109-0.748-0.205-1.068-0.293c-0.391,0.24-0.703,0.459-0.736,0.891
	c-0.07,0.885-0.656,1.445-1.275,1.953c-0.404,0.332-0.848,0.633-1.404,0.732c-1.381,0.248-2.721-0.641-2.99-2.02
	c-0.064-0.328-0.109-0.662-0.178-1.094c-0.439,0.428-0.607,0.873-0.725,1.346c-0.197,0.797-0.656,1.459-1.117,2.113
	c-0.371,0.529-0.709,0.574-1.279,0.281c-0.545-0.279-0.844-0.678-0.971-1.311c-0.174-0.852-0.504-1.672-0.816-2.658
	c-0.176,0.225-0.293,0.311-0.324,0.422c-0.219,0.771-0.418,1.547-0.623,2.32c-0.01,0.037-0.037,0.078-0.031,0.109
	C530.124,125.544,529.581,126.229,529.067,126.929z M540.017,120.276c-0.377,0.348-0.678,0.635-0.99,0.912
	c-0.342,0.299-0.461,0.695-0.484,1.123c-0.006,0.098,0.064,0.26,0.137,0.285c0.127,0.041,0.297,0.037,0.42-0.016
	c0.131-0.059,0.246-0.18,0.338-0.297C539.874,121.722,540.118,121.095,540.017,120.276z"/>
<path fill-rule="evenodd" clip-rule="evenodd" d="M607.585,115.114c0.01,0.963-0.154,1.896-0.484,2.803
	c-0.223,0.609-0.473,1.213-0.66,1.834c-0.182,0.6-0.553,1.08-0.871,1.6c-0.455,0.744-1.184,0.967-1.945,1.039
	c-0.748,0.07-1.531,0.066-2.156-0.545c-0.113-0.955,0.225-1.814,0.631-2.631c0.748-1.504,1.49-3.016,2.512-4.361
	c0.041-0.053,0.027-0.145,0.055-0.311c-0.305,0.121-0.576,0.207-0.826,0.336c-1.279,0.664-1.967,0.158-2.766-0.561
	c-0.197-0.178-0.279-0.539-0.313-0.826c-0.027-0.252,0.059-0.531,0.145-0.779c0.188-0.539,0.525-0.938,1.131-1.006
	c0.592-0.066,1.049,0.139,1.305,0.709c0.025,0.055,0.115,0.08,0.234,0.16c0.059-0.178,0.176-0.348,0.152-0.496
	c-0.092-0.563,0.123-0.953,0.574-1.27c0.539-0.379,1.094-0.268,1.637-0.057c0.158,0.061,0.285,0.242,0.383,0.396
	c0.18,0.285,0.326,0.592,0.523,0.955c0,0,0.762,0.838,0.729,3.016"/>
<path fill-rule="evenodd" clip-rule="evenodd" d="M607.573,115.12"/>
<path fill-rule="evenodd" clip-rule="evenodd" d="M590.54,119.259c-0.502,0.1-0.729,0.129-0.947,0.189
	c-1.045,0.287-1.77-0.27-2.404-0.963c-0.182-0.199-0.262-0.564-0.254-0.852c0.012-0.488,0.088-0.971,0.332-1.432
	c0.455-0.857,1.063-1.58,1.752-2.244c0.082-0.078,0.178-0.145,0.271-0.209c0.852-0.582,1.918-0.736,2.408,0.688
	c0.621,0.314,1.225,0.619,1.885,0.951c0.09-0.232,0.203-0.506,0.305-0.783c0.236-0.645,0.742-0.957,1.371-1.084
	c0.645-0.129,1.355,0.063,1.564,0.955c0.078,0.332,0.184,0.658,0.283,0.982c0.008,0.031,0.053,0.049,0.082,0.072
	c0.611-0.348,0.639-0.346,0.709-0.977c0.039-0.363,0.133-0.676,0.412-0.906c0.113-0.092,0.26-0.166,0.4-0.197
	c0.252-0.055,1.248,0.418,1.406,0.656c0.305,0.467,0.33,0.969-0.023,1.389c-0.514,0.609-1.086,1.17-1.65,1.732
	c-0.158,0.156-0.41,0.219-0.574,0.373c-0.729,0.684-1.52,0.57-2.34,0.227c-0.139-0.059-0.283-0.105-0.428-0.152
	c-0.033-0.012-0.074,0-0.164,0.002c-0.688,0.525-1.012,1.27-1.021,2.15c-0.01,0.904-0.256,1.746-0.695,2.514
	c-0.457,0.801-1.078,1.453-1.984,1.793c-0.889,0.33-1.727,0.143-2.559-0.172c-0.281-0.107-0.396-0.395-0.35-0.664
	c0.076-0.445,0.146-0.92,0.359-1.307c0.406-0.73,0.908-1.406,1.375-2.102C590.161,119.741,590.278,119.604,590.54,119.259z
	 M590.083,116.204c-0.162,0.199-0.344,0.383-0.479,0.596c-0.123,0.197-0.008,0.461,0.203,0.563c0.248,0.121,0.566-0.004,0.641-0.258
	C590.556,116.739,590.45,116.448,590.083,116.204z"/>
<path fill-rule="evenodd" clip-rule="evenodd" d="M619.585,109.538c-0.563,0.375-1.084,0.502-1.656,0.166
	c-0.334-0.193-0.523-0.465-0.457-0.842c0.088-0.486,0.191-0.975,0.352-1.439c0.582-1.697,1.189-3.383,1.787-5.072
	c0.051-0.143,0.09-0.293,0.158-0.428c0.262-0.506,0.832-0.705,1.365-0.488c0.865,0.352,1.074,1.055,0.662,1.936
	c-0.533,1.137-1.004,2.301-1.35,3.514C620.194,107.761,619.886,108.622,619.585,109.538z"/>
<path fill-rule="evenodd" clip-rule="evenodd" d="M617.675,114.954c-0.334,0.1-0.551,0.168-0.768,0.23
	c-0.146,0.041-0.295,0.113-0.439,0.109c-0.398-0.006-0.76-0.119-0.961-0.506c-0.152-0.293,0-0.717,0.344-1.012
	c0.512-0.441,1.029-0.521,1.588-0.244c0.48,0.24,0.59,0.57,0.367,1.121C617.763,114.759,617.716,114.862,617.675,114.954z"/>
<path fill-rule="evenodd" clip-rule="evenodd" d="M609.032,109.146c0.43-0.627,0.881-1.182,1.635-1.42
	c0.535-0.172,1.389,0.23,1.553,0.762c0.102,0.324,0.053,0.645-0.189,0.887c-0.295,0.299-0.621,0.563-0.982,0.887
	c-0.078,0.596,0.125,1.105,0.604,1.549c0.281,0.258,0.547,0.568,0.713,0.906c0.408,0.824,0.088,2.404-0.566,3.064
	c-0.561,0.564-2.514,0.846-3.203,0.461c-0.512-0.285-0.637-0.539-0.529-1.131c0.148-0.818,0.449-1.559,1.121-2.1
	c0.078-0.063,0.133-0.154,0.23-0.271c-0.133-0.207-0.273-0.402-0.391-0.611C608.47,111.136,608.335,110.163,609.032,109.146"/>
</svg>
