<?xml version="1.0" encoding="utf-8"?>
<!-- Generator: Adobe Illustrator 16.0.0, SVG Export Plug-In . SVG Version: 6.00 Build 0)  -->
<!DOCTYPE svg PUBLIC "-//W3C//DTD SVG 1.1//EN" "http://www.w3.org/Graphics/SVG/1.1/DTD/svg11.dtd">
<svg version="1.1" id="Layer_1" xmlns="http://www.w3.org/2000/svg" xmlns:xlink="http://www.w3.org/1999/xlink" x="0px" y="0px"
	 width="420px" height="380px" viewBox="0 0 420 380" style="enable-background:new 0 0 420 380;" xml:space="preserve" opacity="0.2">
<g>
	<path style="fill-rule:evenodd;clip-rule:evenodd;" d="M340.702,234.895c-0.212-3.795-1.712-7.549-2.601-11.322
		c-0.303-1.281-0.789-2.559-1.221-3.832c-0.979-2.875-2.977-5.561-4.68-8.299c-0.991-1.594-2.05-3.16-3.833-4.346
		c0.558-1.693,1.343-3.223,1.51-4.828c0.175-1.684,0.959-3.275,0.409-5.102c-0.49-1.629-0.222-3.299-0.959-4.961
		c-0.753-1.696-1.384-3.407-2.164-5.351c2.179-0.451,2.947-1.944,4.058-3.221c1.022-1.176,0.523-2.356-1.384-3.152
		c-1.479-0.617-3.107-1.063-4.702-1.518c-1.037-0.294-2.135-0.468-3.385-0.733c0.05-0.785,0.064-1.446,0.138-2.098
		c0.232-2.082,0.672-4.145,0.686-6.245c0.014-2.244-0.086-4.497,0.016-6.741c0.192-4.212-1.26-8.456-1.974-12.686
		c-0.071-0.425-0.348-0.945-0.788-1.258c-1.365-0.974-2.825-1.893-4.305-2.788c-2.533-1.529-5.571-2.318-8.618-3.077
		c-1.199-0.299-2.359-0.448-3.632-0.36c-2.287,0.157-4.628,0.173-6.959,0.158c-3.662-0.022-6.74,1.062-10.088,1.629
		c-0.5,0.085-0.918,0.36-1.32,0.589c-1.693,0.966-3.445,1.895-5.033,2.935c-3.738,2.449-5.591,5.517-5.031,9.309
		c0.379,2.567,0.826,5.134,1.197,7.7c0.198,1.365,0.45,2.718,1.23,4.047c0.209,0.355,0.292,0.744,0.366,1.12
		c0.342,1.74,0.552,3.484,1.021,5.216c0.444,1.637-0.161,2.768-2.31,3.424c-1.793,0.548-3.051,1.532-4.271,2.513
		c-1.513,1.219-1.165,2.644,0.833,3.801c0.354,0.204,0.779,0.352,1.184,0.509c1.399,0.549,2.804,1.091,4.348,1.69
		c-0.189,0.325-0.362,0.652-0.568,0.967c-1.559,2.382-2.751,4.857-3.562,7.465c-1.274,4.1-1.333,8.238,0.418,12.512
		c0.15,0.363,0.161,0.746,0.224,1.055c-2.04,1.637-4.127,3.148-5.934,4.807c-1.811,1.662-3.403,3.443-4.98,5.221
		c-1.636,1.846-3.033,3.797-4.729,5.611c-1.625,1.74-0.861,2.023-2.846,3.631c-0.24-0.123-1.411,1.732-1.426,1.766
		c-1.069,2.445-1.479,3.298-2.323,4.541c-0.491,3.228,0.239-0.362-1.55,4.308c-0.397,0.748-0.43,1.065-0.684,1.849
		c-1.107,3.396-2.078,3.698-2.693,5.989c-1.678,6.245-0.751,7.046-0.969,12.616c0.057,0.031,0.113,0.053,0.17,0.088
		c0.055,0.898,0.113,1.869,0.168,2.84c0.124,2.182,0.188,4.361,0.392,6.547c0.118,1.279,0.481,2.566,0.693,3.85
		c0.248,1.5,1.267,2.469,3.673,2.594c0.625,0.031,1.174,0.602,1.866,0.289c0.511-0.705,0.998-1.412,1.526-2.104
		c0.557-0.727,0.695-1.482,0.499-2.361c-0.423-1.889-0.771-3.781-0.965-5.668c-0.228-2.189-0.275-4.373-0.372-6.559
		c-0.235-5.303,0.274-10.496,2.206-15.498c2.22-5.75,5.325-11.219,9.101-16.477c2.893-4.025,6.341-7.799,10.465-11.254
		c0.654-0.547,1.245-1.16,2.48-1.352c0.316,0.193,0.732,0.373,0.989,0.621c2.58,2.475,6.042,4.332,9.767,5.811
		c5.311,2.105,10.906,3.576,16.83,2.523c0.621-0.111,1.318-0.08,1.961-0.16c0.639-0.078,1.344-0.127,1.862-0.344
		c2.066-0.869,4.094-1.779,6.093-2.713c1.41-0.658,2.509-1.51,3.236-2.59c0.305-0.451,0.682-0.941,1.25-1.221
		c1.098-0.533,1.527-1.316,2.066-2.109c0.598-0.875,0.834-1.961,2.448-2.551c0.311,0.387,0.65,0.695,0.815,1.031
		c3.17,6.445,5.709,12.934,6.087,19.564c0.021,0.375,0.153,0.758,0.258,1.133c0.796,2.877,1.193,5.744,0.966,8.598
		c-0.031,0.369-0.09,0.76,0.048,1.123c0.605,1.609,0.425,3.174,0.239,4.73c-0.451,3.783-0.771,7.58-1.804,11.287
		c-0.502,1.805-0.654,3.672-1.756,5.34c-0.126,0.193-0.072,0.445-0.151,0.656c-0.706,1.906-1.021,3.908-2.363,5.654
		c-0.291,0.377-0.432,0.818-0.597,1.24c-1.074,2.758-1.888,5.582-3.778,8.115c-0.419,0.562-0.479,1.275-0.605,1.936
		c-0.192,1.016,0.697,1.592,2.253,1.482c1.351-0.096,2.458-0.461,3.363-1.127c2.552-1.883,2.677-4.412,3.755-6.875
		c1.068-2.447,3.409-4.689,4.432-7.148c0.32-0.771,0.76-1.516,0.997-2.303c0.935-3.094,0.438-5.756,1.357-8.852
		c0.214-0.719,0.517-5.154,1.028-5.758 M287.689,151.428c2.17-1.352,4.887-2.011,7.77-2.43c1.69-0.244,3.441-0.521,5.193-0.453
		c4.052,0.157,7.613,1.292,10.77,3.354c1.986,1.299,3.447,2.538,3.203,4.387c-0.075,0.574,0.266,1.205,0.41,1.809
		c0.49,2.042,0.861,4.08,0.403,6.082c-0.1,0.435-0.085,0.893-0.069,1.345c0.107,3.234,0.244,6.471,0.338,9.705
		c0.021,0.736-0.089,1.463-0.146,2.321c-8.193-0.177-16.172-0.274-23.977-0.162c-1.064-0.635-1.293-1.346-1.12-1.994
		c0.575-2.164-0.253-4.365-0.657-6.542c-0.8-4.312-1.506-8.619-1.832-12.925c-0.069-0.898-0.423-1.809-0.506-2.708
		C287.414,152.623,287.605,152.036,287.689,151.428z M302.556,219.523c-2.771-0.043-5.354-0.643-7.837-1.562
		c-5.018-1.855-8.592-4.684-11.339-7.986c-0.732-0.879-1.081-1.889-1.538-2.848c-0.564-1.182-1.064-2.369-1.581-3.557
		c-0.099-0.223-0.243-0.465-0.209-0.674c0.269-1.607,0.367-3.229,0.11-4.881c1.279-4.436,3.523-8.556,6.956-12.305
		c2.185-2.388,5.483-3.483,9.762-3.424c3.117,0.042,6.253,0.215,9.382,0.35c1.895,0.082,3.794,0.199,5.803,0.307
		c2.142,2.1,5.154,3.713,6.915,6c1.357,1.759,2.53,3.528,2.905,5.442c0.059,0.291,0.119,0.668-0.093,0.863
		c-1.016,0.93-2.32,1.646-4.03,1.986c-0.582,0.117-1.426-0.398-1.382-0.824c0.022-0.219,0.062-0.443,0.166-0.646
		c1.181-2.289-0.304-4.225-2.712-6.033c-0.552-0.415-1.11-0.835-1.738-1.192c-2.19-1.24-4.607-1.402-6.578-0.05
		c-0.9,0.62-1.529,1.378-1.792,2.251c-0.676,2.238-0.608,4.441,2.001,6.477c1.401,1.094,2.985,1.801,5.093,1.611
		c0.431-0.039,0.884-0.01,0.898-0.01c1.674,0.625,2.977,1.123,4.292,1.602c1.835,0.666,3.25,0.291,4.486-0.52
		c0.506-0.33,1.033-0.648,1.795-1.127c0.224,0.492,0.463,0.77,0.441,1.016c-0.144,1.637-0.376,3.246-1.281,4.752
		c-0.919,1.535-1.532,3.172-2.392,4.727c-1.432,2.592-3.282,5.016-6.028,7.031C310.302,218.305,306.99,219.592,302.556,219.523z
		 M312.633,194.189c-0.039,0.648-0.472,1.102-1.275,1.402c-0.896,0.334-1.646,0.256-2.414-0.291
		c-1.885-1.338-2.082-3.137-0.496-4.522c0.74-0.644,2.011-0.583,2.838,0.146C312.428,191.932,312.673,193.045,312.633,194.189z"/>
	<path style="fill-rule:evenodd;clip-rule:evenodd;" d="M293.807,209.486c-0.437-0.178-1.257-0.465-2.008-0.824
		c-1.122-0.535-1.352-1.385-0.351-1.885c1.509-0.756,3.097-1.479,4.816-2.008c1.983-0.613,3.555,0.152,4.754,1.496
		c0.205,0.229,0.231,0.623,0.089,0.857c-0.491,0.805-1.124,1.566-2.452,1.852C297.237,209.281,295.881,209.752,293.807,209.486z"/>
	<path style="fill-rule:evenodd;clip-rule:evenodd;" d="M305.998,205.514c1.726,0.631,3.468,1.238,5.157,1.918
		c0.268,0.107,0.47,0.58,0.388,0.812c-0.256,0.723-0.801,1.375-1.891,1.604c-2.402,0.502-4.756,0.352-6.909-0.992
		c-1.128-0.703-1.306-1.76-0.327-2.393C303.346,205.859,304.392,205.389,305.998,205.514z"/>
</g>
</svg>
