<?xml version="1.0" encoding="utf-8"?>
<!-- Generator: Adobe Illustrator 16.0.0, SVG Export Plug-In . SVG Version: 6.00 Build 0)  -->
<!DOCTYPE svg PUBLIC "-//W3C//DTD SVG 1.1//EN" "http://www.w3.org/Graphics/SVG/1.1/DTD/svg11.dtd">
<svg version="1.1" id="Layer_1" xmlns="http://www.w3.org/2000/svg" xmlns:xlink="http://www.w3.org/1999/xlink" x="0px" y="0px"
	 width="420px" height="380px" viewBox="0 0 420 380" style="enable-background:new 0 0 420 380;" xml:space="preserve" opacity="0.2">
<path style="fill-rule:evenodd;clip-rule:evenodd;" d="M92.728,275.1c1.197,2.023,1.159,4.055,0.727,6.111
	c-0.164,0.781-0.4,1.58-0.772,2.279c-1.429,2.684-2.249,5.529-2.484,8.553c-0.094,1.201-0.647,2.104-1.509,2.975
	c-1.184,1.197-0.783,1.359-4.684,1.568c-1.594-0.982-1.91-3.068-3.57-4.346c-0.402,0.318-0.879,0.59-1.209,0.982
	c-0.514,0.609-0.85,1.381-1.399,1.953c-3.683,3.832-5.496,8.674-7.443,13.467c-0.81,1.994-0.528,3.811,0.362,5.637
	c0.301,0.619,0.633,1.225,0.967,1.828c0.738,1.334,0.664,2.633-0.25,4.023c-0.5,0.18-1.191,0.328-1.772,0.662
	c-1.257,0.725-2.435,0.451-3.62-0.107c-0.863-0.408-1.453-1.01-1.725-2c-0.517-1.879-1.121-3.736-1.768-5.574
	c-0.604-1.719-0.402-3.398,0.07-5.086c1.191-4.262,3.232-8.1,5.834-11.652c2.443-3.336,4.913-6.652,7.361-9.986
	c0.125-0.17,0.152-0.416,0.258-0.721c-0.412-0.604-0.844-1.27-1.307-1.91c-0.47-0.652-1.037-1.242-1.44-1.932
	c-1.495-2.549-0.136-5.49,2.804-5.422c2.84,0.066,5.463-0.607,8.132-1.225C87.018,274.543,89.723,274.463,92.728,275.1z"/>
</svg>
