<?xml version="1.0" encoding="utf-8"?>
<!-- Generator: Adobe Illustrator 16.0.0, SVG Export Plug-In . SVG Version: 6.00 Build 0)  -->
<!DOCTYPE svg PUBLIC "-//W3C//DTD SVG 1.1//EN" "http://www.w3.org/Graphics/SVG/1.1/DTD/svg11.dtd">
<svg version="1.1" id="Layer_1" xmlns="http://www.w3.org/2000/svg" xmlns:xlink="http://www.w3.org/1999/xlink" x="0px" y="0px"
	 width="420px" height="380px" viewBox="0 0 420 380" style="enable-background:new 0 0 420 380;" xml:space="preserve" opacity="0.2">
<path style="fill-rule:evenodd;clip-rule:evenodd;" d="M148.914,216.785c0,0,0.913,8.616,0.436,11.015
	c-0.551,2.76-1.359,3.597-3.701,5.61c-1.463,1.258-3.115,2.489-4.998,3.367c-2.506,1.168-5.211,2.546-8.02,2.83
	c-6.473,0.652-11.529-2.369-12.812-7.11c-0.614-2.271-1.024-4.575-1.439-6.874c-0.121-0.67,0.062-1.369,0.119-2.236
	c0.11,0.028,0-0.62,0.107-0.59c-0.021-0.112,0.034-0.797,0.034-0.926l0.148-0.625c0-0.404,0,0.214,0.277-1.233
	c1.145-2.541,0.469-1.606,2.061-3.75c4.546,0.144,9.329,0.293,13.74,0.43c1.975,0.032,0.494,0.003,0.911,0.003l1.233,0.033
	c0.476,0,2.636-0.155,2.938,0.059C142.918,216.787,148.621,213.8,148.914,216.785 M154.057,212.735
	c-3.92-0.293-10.094,1.086-14.316,0.771c-0.007-0.03-0.012-0.072-0.017-0.113c-1.522,0.005-3.044,0.011-4.566,0.021
	c-0.007,0.048-0.013,0.093-0.018,0.142c-2.008,0-3.866,0.005-5.722,0c-1.87-0.007-3.74-0.026-5.608-0.04
	c-4.38,0.045-6.36,0.048-10.741,0.062c-0.001,0.125,0.04,0.438-0.014,0.548c-0.67,1.378-0.148-1.036,0,2.776
	c0.273,7.076,0.023,0.805,0.103,4.077c0.021,0.829-0.075,0.467,0.037,1.288c0.29,2.124,0.751,4.235,0.993,6.36
	c0.076,0.663-0.057,1.502-0.56,2.008c-1.177,1.187-2.573,2.266-3.991,3.305c-4.686,3.441-6.169,7.914-6.366,12.434
	c-0.29,6.662,0.121,13.356,0.634,20.021c0.226,2.932,1.334,5.84,2.239,8.726c0.486,1.552,1.563,2.909,4.548,3.33
	c-0.186-0.996,1.633-0.941,1.438-1.708c-0.631-2.46-1.847-4.516-2.057-6.991c-0.576-6.753-1.154-10.099-1.439-16.862
	c-0.062-1.474-0.208-6.372,0.206-7.814c0.337-1.175,0.086-3.523,0.862-4.995c1.184,1.43,2.016,2.338,1.172,3.536
	c-0.861,1.226-0.2,2.021,1.531,2.209c2.729,0.298,3.693,1.626,4.107,3.398c0.514,2.192,2.407,3.264,5.287,3.773
	c3.119,0.553,5.812,1.5,6.047,4.42c0.148,1.856,1.949,3.193,3.873,4.286c1.684,0.957,3.622,0.896,5.273,0.048
	c1.672-0.859,2.158-1.982,1.477-3.396c-0.16-0.337-0.236-0.697-0.32-0.952c1.105-1.397,2.517-1.312,4.31-1.067
	c3.311,0.453,5.414-1.077,5.103-3.445c-0.055-0.411-0.197-0.814-0.361-1.466c1.291,0,2.271,0.055,3.236-0.014
	c1.109-0.079,2.26-0.149,3.287-0.433c1.684-0.461,2.796-1.216,1.95-2.77c-0.285-0.525-0.347-1.34,0.016-1.791
	c1.127-1.399,2.507-2.689,4.035-4.278c0.509,0.728,0.977,1.163,1.134,1.654c1.014,3.152,2.395,6.283,2.841,9.483
	c1.261,9.055,2.763,18.061,6.112,26.851c0.58,1.52,1.15,0.352,3.188,1.36c-0.066-3.184-0.454-3.611-1.003-6.706
	c-1.01-5.698-2.591-11.364-3.064-17.084c-0.647-7.841-3.239-17.369-7.038-24.549c-1.233-2.33-4.787-7.038-8.467-7.898
	 M131.461,258.143c1.391,0.117,2.194,0.185,3.122,0.262C133.283,259.886,133.283,259.886,131.461,258.143z M158.357,239.569
	c-2.646,3.274-4.016,7.226-9.035,9.249c-0.537,0.217-1.046,0.508-1.467,0.835c-2.062,1.604-4.629,2.299-7.516,2.294
	c-1.966,3.025-1.966,3.025-7.779,4.079c-4.043-2.61-8.824-5.021-12.379-8.181c-3.547-3.153-5.867-7.054-8.926-10.878
	c1.042-1.026,0.469-0.462,2.135-2.105c0.34,0.605,1.442,1.445,1.617,1.779c1.499,2.839,3.035,6.343,8.637,7.197
	c6.937,1.06,12.953-0.345,19.111-3.699c3.094-1.686,6.018-3.552,8.881-5.451c0.758-0.501,1.004-1.422,1.684-2.45
	c2.84,2.004,4.376,4.228,5.115,6.789C158.484,239.199,158.474,239.426,158.357,239.569z"/>
<path style="fill-rule:evenodd;clip-rule:evenodd;" d="M153.1,215.064 M147.133,215.005 M154.057,212.735
	c1.273-3.018,2.748-6.129,3.911-9.333c3.274-9.026,6.147-18.179,9.714-27.11c2.341-5.864,3.326-11.482,2.353-17.801
	c-1.209-7.852-5.192-14.082-11.433-19.039c-5.552-4.409-12.539-5.91-19.733-3.29c-9.057,3.3-16.87,8.418-23.831,14.54
	c-3.717,3.268-6.383,7.302-7.224,11.867c-1.556,8.445-2.339,17.002-1.598,25.568c0.631,7.286,2.617,14.333,5.938,21.035
	c0.753,1.52,1.083,2.927,0.914,4.405l8.255,0.514c0.283-0.142,0.574-0.236,0.846-0.236c7.552-0.005,15.104,0.079,22.658,0.159
	c0.226,0.002,0.448,0.211,0.798,0.384 M148.246,138.921c2.463-0.65,4.768,0.015,6.469,1.474
	c6.429,5.514,10.901,11.914,10.277,20.335c-0.033,0.454-0.223,0.897-0.414,1.63c-6.135-0.993-12.209-1.975-18.653-3.018
	C146.717,152.369,147.475,145.698,148.246,138.921z M115.995,156.07c6.655-7.223,14.529-13.079,24.207-16.812
	c0.451-0.173,0.987-0.168,1.904-0.314c1.43,6.837-0.332,13.257-1.521,19.461c-9.278,1.717-18.141,3.36-27.192,5.036
	C112.938,160.435,114.141,158.083,115.995,156.07z M164.939,169.275c-4.184,12.086-8.215,24.222-12.76,36.199
	c-2.227,5.868-1.323,6.145-9.777,5.492c-7.269-0.561-14.588-0.663-21.887-0.756c-2.033-0.026-3.066-0.569-3.845-2.196
	c-3.86-8.078-5.985-16.498-6.032-25.276c-0.021-3.86,0.579-7.718,0.771-11.583c0.088-1.758,0.817-2.823,2.76-3.319
	c6.893-1.764,13.754-3.637,20.658-5.363c1.324-0.329,2.797-0.181,5.06-0.297c-1.329,6.373-2.46,12.004-3.679,17.622
	c-1.67,7.708-3.46,15.396-5.061,23.116c-0.32,1.544-0.021,3.192-0.004,4.923c2.556-0.229,3.172-1.628,3.571-3.141
	c1.322-5.02,2.679-10.03,3.884-15.071c1.917-8.024,3.72-16.07,5.576-24.106c0.773-3.348,0.872-3.491,4.656-3.033
	c4.271,0.516,8.542,1.096,12.759,1.878C165.428,165.076,166.053,166.06,164.939,169.275z"/>
</svg>
