<?xml version="1.0" encoding="utf-8"?>
<!-- Generator: Adobe Illustrator 16.0.0, SVG Export Plug-In . SVG Version: 6.00 Build 0)  -->
<!DOCTYPE svg PUBLIC "-//W3C//DTD SVG 1.1//EN" "http://www.w3.org/Graphics/SVG/1.1/DTD/svg11.dtd">
<svg version="1.1" id="Layer_1" xmlns="http://www.w3.org/2000/svg" xmlns:xlink="http://www.w3.org/1999/xlink" x="0px" y="0px"
	 width="420px" height="380px" viewBox="0 0 420 380" style="enable-background:new 0 0 420 380;" xml:space="preserve" opacity="0.2">
<path style="fill-rule:evenodd;clip-rule:evenodd;" d="M249.198,86.073c-0.535,0.067-0.935-2.536-0.977-3.073
	c-0.314-4.065,0.22-1.424-0.314-4.065c-0.441-2.177-0.973-4.373-1.788-6.421c-0.724-1.813-0.852-3.44-0.036-5.192
	c1.026-2.205,1.575-4.498,1.336-6.99c-0.079-0.814,0.273-1.676,0.446-2.512c0.138-0.668,0.501-1.357,0.422-1.991
	c-0.599-4.715-1.399-9.466-4.257-13.319c-1.924-2.593-2.18-5.636-3.358-8.147c2.954-3.934,4.626-7.906,3.843-12.57
	c2.628-1.934,2.725-2.942,0.227-4.929c-2.312-1.838-4.863-3.29-7.732-4.08c-1.848-0.509-3.707-1.027-5.492-1.727
	c-3.686-1.446-7.395-2.589-11.406-2.574c-2.574,0.009-5.146-0.402-7.722-0.468c-2.822-0.072-5.683-0.235-8.467,0.127
	c-4.376,0.572-8.719,1.471-13.047,2.376c-5.798,1.211-11.58,2.503-17.345,3.869c-3.893,0.921-7.742,2.041-11.618,3.046
	c-1.622,0.421-2.823,1.428-3.806,2.761c-0.561,0.764-0.592,1.548-0.094,2.394c1.251,2.127,2.55,4.232,3.666,6.434
	c0.84,1.656,1.768,3.394,2.044,5.195c0.388,2.52,0.257,5.134,0.239,7.708c-0.006,1.081,0.143,1.986,0.799,2.878
	c0.475,0.644,0.92,1.485,0.963,2.263c0.156,2.744,0.227,5.501,0.158,8.249c-0.106,4.355,0.411,8.608,1.984,12.644
	c1.49,3.819,3.229,7.534,4.824,11.309c0.312,0.735,0.475,1.537,0.822,2.703c-1.613,0.086-1.918-0.148-2.912,0.46
	c-0.932,0.571-3.256,0.761-4.371,0.718c1.066,2.103,0.343,3.256,0.836,5.682c1.146-0.05,3.504-0.541,4.628-0.714
	c3.543-0.547,5.972,0.267,8.124,3.276c2.266,3.167,5.316,5.754,7.454,8.993c2.651,4.019,6.136,6.689,10.241,8.772
	c1.33,0.675,2.503,1.667,3.785,2.452c1.711,1.045,3.352,2.514,5.209,2.946c5.852,1.36,11.789,2.473,17.837,1.587
	c2.049-0.299,4.028-1.172,6.077-1.396c5.704-0.622,9.178-4.907,13.188-8.295c0.789-0.667,1.228-1.815,1.724-2.798
	c0.691-1.368,1.188-2.846,1.947-4.169c0.839-1.464,1.223-2.987,1.21-4.66c-0.009-1.205-0.05-2.414,0.054-3.61
	c0.154-1.826-0.039,0.648,0.154-1.826c0.026-0.341-0.435-0.879-0.094-0.928C248.535,85.956,248.331,88.488,249.198,86.073z
	 M165.165,25.877c-0.535-0.607-1.058-1.228-1.728-2.008c0.657-0.337,0.996-0.574,1.37-0.694c4.854-1.542,9.658-3.29,14.583-4.541
	c6.063-1.541,12.209-2.764,18.354-3.93c3.921-0.744,7.896-1.229,11.867-1.642c1.371-0.142,2.797,0.312,4.2,0.452
	c1.654,0.165,3.32,0.466,4.968,0.387c3.282-0.155,6.452,0.053,9.566,1.319c3.093,1.256,6.3,2.21,9.425,3.386
	c1.155,0.435,2.219,1.125,3.684,1.885c-1.516,1.784-2.745,3.479-4.245,4.864c-0.535,0.495-1.758,0.429-2.607,0.274
	c-1.049-0.19-2.061-0.679-3.04-1.144c-4.194-1.991-8.601-2.704-13.164-2.235c-4.396,0.452-8.769,1.127-13.163,1.57
	c-5.306,0.535-10.632,0.859-15.935,1.412c-2.469,0.257-4.962,0.631-7.345,1.321c-3.641,1.053-7.309,1.558-11.072,1.788
	C168.45,28.49,166.696,27.617,165.165,25.877z M224.12,36.162c-0.809-0.176-1.646-0.21-2.426-0.304
	c-1.361-1.628-1.481-3.095-0.188-4.884c0.589-0.815,0.432-2.203,0.641-3.504c1.581-0.298,3.289,0.019,4.952,0.576
	c1.98,0.665,3.923,1.45,5.9,2.126c1.408,0.482,2.361,1.388,2.398,2.937c0.038,1.643,0.456,3.34-1.418,4.557
	c-3.095,2.011-5.957,4.393-9.492,5.624c-1.947,0.678-3.899,1.253-6.239,1.551c0.417-1.055,0.704-1.827,1.024-2.581
	c1.121-2.633,1.127-2.63,3.922-2.187c0.083,0.013,0.163,0.038,0.246,0.049c1.596,0.213,2.672-0.28,2.883-1.322
	C226.56,37.626,225.657,36.497,224.12,36.162z M215.271,30.94c-1.057-0.004-2.109,0.372-3.172,0.486
	c-0.808,0.086-1.507-0.181-1.581-1.179c-0.063-0.858,0.248-1.557,1.143-1.688c2.178-0.318,4.363-0.571,6.894-0.896
	C217.925,29.932,217.091,30.949,215.271,30.94z M211.608,45.758c-2.46,1.015-4.994,1.355-7.758,1.047
	c1.922-2.289,2.739-2.504,5.123-1.672C209.824,45.43,210.73,45.555,211.608,45.758z M205.612,31.753
	c-1.179,0.764-2.505,0.86-3.768,0.164c-0.567-0.312-1.042-0.804-1.989-1.556c2.005-0.886,3.642-0.904,5.263-0.84
	c0.391,0.016,1.055,0.472,1.076,0.767C206.23,30.772,205.981,31.513,205.612,31.753z M217.445,52.747
	c4.83-0.748,9.376-2.31,13.987-3.759c1.384-0.435,2.514-1.201,3.348-2.523c0.711-1.128,1.647-2.141,3.41-2.612
	c0.379,1.04,0.944,1.902,0.971,2.78c0.112,3.854,0.221,7.721,0.029,11.567c-0.121,2.446-0.577,4.832-1.793,7.141
	c-1.605,3.048-3.951,4.841-6.99,5.792c-1.66,0.52-3.424,0.777-5.16,0.937c-12.379,1.143-23.859-1.511-34.277-8.679
	c-2.008-1.382-4.164-2.531-6.232-3.82c-3.701-2.306-7.298-6.613-8.572-10.41c0.824,0.067,1.531,0.056,2.211,0.19
	c5.237,1.033,10.468,2.111,15.705,3.145C201.854,54.031,209.605,53.96,217.445,52.747z M170.089,36.812
	c-0.193-1.284-0.836-2.496-1.412-4.135c1.715,0.124,3.001-0.004,4.153,0.341c3.472,1.044,6.849,0.313,10.093-0.687
	c3.815-1.175,7.705-1.348,11.591-1.716c0.686-0.064,1.61,0.048,2.068,0.479c0.907,0.854,1.478,2.083,2.354,2.982
	c0.785,0.804,1.796,1.374,3.207,2.417c-1.131,0.354-1.691,0.564-2.268,0.702c-0.889,0.212-1.824,0.272-2.668,0.6
	c-0.475,0.183-1.07,0.74-1.12,1.186c-0.045,0.412,0.474,1.099,0.908,1.318c1.543,0.779,3.069,1.844,4.949,1.014
	c0.175-0.077,0.454,0.099,0.85,0.198c-0.641,0.871-1.463,1.572-1.707,2.447c-0.218,0.78,0.202,1.75,0.395,2.974
	c-3.155-0.36-6.358-0.558-9.521-1.175c-4.82-0.941-9.631-1.931-14.447-2.898c-0.081-0.017-0.164-0.027-0.246-0.035
	C173.571,42.478,170.741,41.107,170.089,36.812z M241.757,80.071c-0.128,4.031-0.146,8.104-0.757,12.071
	c-0.821,5.333-3.324,9.793-7.862,12.85c-6.738,4.539-13.871,6.206-21.879,4.183c-5.42-1.368-9.867-4.465-14.471-7.359
	c-0.895-0.562-1.558-1.536-2.287-2.358c-3.035-3.421-6.059-6.852-9.077-10.288c-2.21-2.518-3.703-5.479-5.019-8.565
	c-1.874-4.399-3.952-8.713-5.682-13.171c-1.013-2.612-1.605-5.413-2.215-8.169c-0.283-1.281-0.442-2.691,0.423-4.252
	c0.583,0.743,1.03,1.297,1.462,1.864c2.136,2.803,4.802,5.025,7.648,6.958c3.963,2.689,8.037,5.207,12.124,7.693
	c5.438,3.311,11.386,5.398,17.524,6.609c5.399,1.066,10.944,0.877,16.457,0.617c4.488-0.212,8.735-1.101,13.023-4.229
	C241.437,76.885,241.808,78.485,241.757,80.071z"/>
<g>
	<path style="fill-rule:evenodd;clip-rule:evenodd;" d="M260.473,125.048c1.569,0.258,3.164,0.459,4.702,0.79
		c1.27,0.273,1.9,0.996,1.917,1.947c0.018,0.966-0.907,1.484-2.016,1.646c-3.913,0.569-7.834,1.159-11.793,1.491
		c-1.401,0.117-2.985-0.374-4.368-0.788c-1.452-0.434-2.161-1.4-2.023-2.522c0.147-1.186,1.398-1.746,2.848-2.085
		c0.396-0.092,0.836-0.132,1.256-0.133c3.146-0.01,6.292-0.005,9.439-0.005C260.447,125.274,260.459,125.162,260.473,125.048z"/>
	<path style="fill-rule:evenodd;clip-rule:evenodd;" d="M260.926,119.597c-1.37,0.276-2.722,0.617-4.115,0.814
		c-1.905,0.27-3.849,0.625-5.763,0.593c-3.014-0.053-5.139-1.949-4.584-3.769c0.393-1.287,1.306-1.868,3.17-1.995
		c1.781-0.121,3.566-0.219,5.349-0.341c2.626-0.18,5.144,0.071,7.368,1.129c0.743,0.354,1.44,0.875,1.863,1.434
		c1.146,1.516,0.237,2.486-2.182,2.449c-0.341-0.006-0.68-0.054-1.018-0.082C260.984,119.752,260.956,119.674,260.926,119.597z"/>
	<path style="fill-rule:evenodd;clip-rule:evenodd;" d="M299.083,143.119c-1.254-0.176-2.533-0.278-3.74-0.547
		c-1.503-0.334-2.547-1.463-2.527-2.503c0.02-1.099,1.017-2.128,2.561-2.472c0.881-0.196,1.858-0.39,2.747-0.313
		c3.294,0.285,6.586,0.626,9.845,1.069c1.131,0.153,2.299,0.546,3.192,1.059c0.531,0.305,0.853,1.094,0.725,1.595
		c-0.095,0.375-1.01,0.835-1.644,0.915C306.55,142.375,302.833,142.728,299.083,143.119z"/>
	<path style="fill-rule:evenodd;clip-rule:evenodd;" d="M256.658,141.12c-2.116-0.167-4.231-0.343-6.348-0.498
		c-1.466-0.108-2.535-0.686-3.429-1.457c-1.769-1.527-0.844-3.54,1.868-3.958c0.81-0.125,1.722-0.117,2.533,0.006
		c3.338,0.504,6.665,1.049,9.975,1.644c0.794,0.142,1.622,0.433,2.229,0.82c1.932,1.23,1.5,2.643-0.976,3.119
		c-1.215,0.235-2.526,0.239-3.798,0.286c-0.672,0.025-1.354-0.08-2.031-0.127C256.674,141.01,256.666,141.065,256.658,141.12z"/>
	<path style="fill-rule:evenodd;clip-rule:evenodd;" d="M276.818,120.567c-1.298-0.31-2.858-0.597-4.315-1.055
		c-1.279-0.403-1.958-1.693-1.638-2.657c0.315-0.946,1.462-1.701,2.981-1.668c2.807,0.063,5.63,0.156,8.401,0.452
		c1.454,0.154,3.224,0.562,3.372,1.884c0.15,1.349-1.605,1.84-2.975,2.186C280.902,120.147,279,120.263,276.818,120.567z"/>
	<path style="fill-rule:evenodd;clip-rule:evenodd;" d="M304.432,126.051c1.596,0.326,3.317,0.64,5.005,1.032
		c0.965,0.224,1.539,0.757,1.588,1.512c0.057,0.837-0.554,1.422-1.563,1.73c-2.079,0.635-4.284,0.916-6.519,0.65
		c-1.596-0.189-2.788-0.941-3.406-2.014c-0.398-0.689,0.375-1.978,1.492-2.343C301.996,126.303,303.135,126.254,304.432,126.051z"/>
	<path style="fill-rule:evenodd;clip-rule:evenodd;" d="M293.608,131.143c-1.188-0.291-2.423-0.423-3.383-0.863
		c-1.811-0.829-1.529-2.94,0.33-3.895c1.701-0.875,5.816-0.543,6.963,1.136c0.924,1.356,0.795,2.166-1.029,2.888
		C295.626,130.752,294.606,130.897,293.608,131.143z"/>
	<path style="fill-rule:evenodd;clip-rule:evenodd;" d="M283.438,137.288c2.372,0.014,4.465,1.144,4.431,2.394
		c-0.042,1.496-1.929,2.643-4.388,2.667c-2.239,0.021-4.437-1.334-4.393-2.711C279.134,138.186,280.825,137.272,283.438,137.288z"/>
	<path style="fill-rule:evenodd;clip-rule:evenodd;" d="M272.698,141.452c-0.885-0.122-1.652-0.176-2.374-0.337
		c-1.63-0.366-2.479-1.363-2.226-2.514c0.269-1.226,1.374-2.108,3.043-2.024c1.385,0.07,2.872,0.35,4.062,0.843
		c2.122,0.88,1.956,2.628-0.214,3.477C274.268,141.179,273.407,141.285,272.698,141.452z"/>
	<path style="fill-rule:evenodd;clip-rule:evenodd;" d="M273.431,130.43c-1.785,0.002-3.35-1.154-3.367-2.492
		c-0.02-1.368,1.614-2.493,3.639-2.506c2.43-0.016,4.604,1.143,4.672,2.489C278.44,129.207,276.036,130.426,273.431,130.43z"/>
	<path style="fill-rule:evenodd;clip-rule:evenodd;" d="M308.707,118.965c-0.243,0.358-0.362,0.754-0.7,0.993
		c-1.26,0.891-2.903,1.107-4.517,0.832c-1.574-0.269-2.655-1.073-2.954-2.288c-0.272-1.102,0.332-1.913,1.762-2.365
		c1.852-0.586,5.146,0.27,5.998,1.594C308.536,118.107,308.573,118.547,308.707,118.965z"/>
	<path style="fill-rule:evenodd;clip-rule:evenodd;" d="M283.427,125.964c1.122,0.389,2.352,0.674,3.34,1.193
		c1.119,0.589,1.168,1.445,0.376,2.279c-0.967,1.019-2.418,1.274-4.038,1.22c-1.579-0.052-2.488-0.767-3.051-1.7
		C279.179,127.506,280.849,126.097,283.427,125.964z"/>
	<path style="fill-rule:evenodd;clip-rule:evenodd;" d="M293.448,116.001c1.92,0.019,3.497,1.239,3.417,2.642
		c-0.057,0.992-1.111,1.582-2.853,1.596c-1.809,0.016-3.42-0.996-3.47-2.177C290.494,116.93,291.827,115.986,293.448,116.001z"/>
</g>
<path style="fill-rule:evenodd;clip-rule:evenodd;" d="M112.914,241.303c0.003-3.143-5.049-6.828-10.558-23.979
	c-0.543-1.69-3.584-9.814-4.113-11.53c-0.772-2.509-2.277-9.618-3.016-12.064c-0.855-2.841-0.764-6.528-1.561-9.079
	c-0.315-1.012-0.625-1.992-0.931-2.934c-2.864-8.837-2.71-13.501-2.719-14.171c-0.031-2.423,1.482-14.169,2.468-20.001
	c0.749-4.426,2.91-9.692,3.704-12.426c1.25-4.306,0.972-3.028,3.016-10.069c1.005-3.464,1.637-7.667,3.562-10.833
	c3.146-5.17,2.571-9.617,7.171-14.257c2.938-2.964,5.304-5.621,12.021-7.266c5.199-1.273,10.82-1.611,16.224-2.013
	c2.423-0.181,4.827-0.476,7.249-0.649c4.219-0.302,8.441-0.562,12.666-0.816c2.429-0.147,4.857-0.326,7.291-0.361
	c1.105-0.016,3.091-0.354,4.197-0.369L168.706,83c-1.613,0.101-3.226,0.198-4.843,0.266c-2.64,0.111-5.308-0.052-7.945,0.071
	c-5.176,0.244-10.335,0.651-15.513,0.9c-6.151,0.294-28.336,0.938-33.227,3.52c-5.857,3.092-10.055,12.834-12.226,18.507
	c-5.347,13.974-3.06,9.412-6.58,18.918c-1.222,3.296-0.631,2.585-2.466,11.948c-2.034,10.384-3.68,19.462-4.249,29.319
	c-0.548,9.461-0.325,12.383,3.014,21.246c0.944,2.503,2.761,12.217,6.168,21.39c2.723,7.334,3.524,6.625,11.378,21.659
	c2.828,5.414,5.049,16.159,5.058,17.888"/>
<path style="fill-rule:evenodd;clip-rule:evenodd;" d="M350.972,173.097c0.79,7.793-1.164,14.576-3.085,23.761
	c0.483-0.09-3.941,12.392-6.854,24.015c-2.369,9.46-2.353,8.958-1.63,10.857c0.536,1.41,1.536,8.117,6.087-1.26
	c0.702-1.447,8.71-25.92,10.486-33.313c1.337-6.375,3.146-6.169,2.879-13.71c-0.118-3.38,1.341-5.698,0.651-9.013
	c-1.513-7.267-1.149-7.126-2.571-10.929c-1.619-4.334-0.531-10.983-2.334-15.266c-1.273-3.03-2.582-6.052-3.969-9.047
	c-1.812-3.907-3.72-7.784-5.586-11.673c-0.465-0.97-0.854-1.971-1.41-2.903c-1.492-2.497-2.951-5.014-4.614-7.429
	c-2.283-3.318-4.566-6.652-7.188-9.777c-1.555-1.854-3.783-3.3-5.667-4.964c-4.597-4.055-9.701-7.597-15.14-10.807
	c-0.676-0.4-1.335-0.862-2.082-1.138c-5.266-1.943-10.806-3.185-16.44-3.952c-4.391-0.597-8.888-0.637-13.34-0.906
	c-0.487-0.029-0.985,0.074-1.478,0.107c-1.482,0.101-2.967,0.272-4.449,0.282c-3.971,0.026-7.945-0.122-11.906,0.002
	c-3.051,0.095-6.088,0.48-9.125,0.772c-1.883,0.182-2.572,0.098-3.008-0.734c-1.388,0.724-1.188,4.624-1.99,6.883
	c0.834,0.156,1.976-0.154,2.803,0.018c0.311-0.473,0.563-0.166,1.618-0.29c1.227-0.145,2.478-0.255,3.652-0.555
	c3.575-0.909,7.194-0.837,10.847-0.562c1.81,0.137,3.635,0.272,5.449,0.257c3.39-0.028,6.791-0.362,10.167-0.208
	c4.456,0.202,8.907,0.677,13.335,1.181c2.529,0.288,5.071,0.703,7.503,1.347c4.749,1.259,8.717,3.62,12.155,6.657
	c1.715,1.513,3.482,3.007,5.404,4.324c3.188,2.185,5.983,4.695,8.045,7.638c2.78,3.962,5.533,7.998,7.586,12.249
	c2.845,5.891,6.269,11.58,8.49,17.704c1.721,4.741,3.339,14.053,4.035,19.071"/>
</svg>
