<?xml version="1.0" encoding="utf-8"?>
<!-- Generator: Adobe Illustrator 16.0.0, SVG Export Plug-In . SVG Version: 6.00 Build 0)  -->
<!DOCTYPE svg PUBLIC "-//W3C//DTD SVG 1.1//EN" "http://www.w3.org/Graphics/SVG/1.1/DTD/svg11.dtd">
<svg version="1.1" id="Layer_1" xmlns="http://www.w3.org/2000/svg" xmlns:xlink="http://www.w3.org/1999/xlink" x="0px" y="0px"
	 width="420px" height="380px" viewBox="0 0 420 380" style="enable-background:new 0 0 420 380;" xml:space="preserve" opacity="0.2">
<g>
	<path style="fill-rule:evenodd;clip-rule:evenodd;" d="M249.748,274.668c0.496-2.707,1.872-5.279,4.025-7.039
		c-0.164-3.654,0.38-7.324,0.771-10.961c0.614-5.711,1.319-11.449,1.921-17.191c-0.258-0.33-0.449-0.691-0.523-1.086
		c-0.327-1.75-0.493-3.486-0.577-5.234c-0.696-0.652-1.136-1.475-1.1-2.412c0.003-0.082,0.011-0.164,0.015-0.248
		c-0.219-1.068-0.432-2.137-0.581-3.211c-0.405-2.92-1.239-5.736-2.285-8.553c-1.264-3.398-3.108-6.654-3.692-10.236
		c-0.186-1.143-0.814-2.332-1.615-3.289c-1.244-1.482-1.415-3.027-0.91-4.633c1.062-3.379,1.459-6.838,1.75-10.29
		c0.428-5.088,0.225-10.197-0.493-15.257c-0.332-2.341-1.578-4.586-2.066-6.924c-0.643-3.074-2.128-5.829-4.253-8.322
		c-2.105-2.473-4.209-5.046-6.876-7.071c-3.56-2.704-7.539-5.104-12.573-5.79c-0.381-0.052-0.74-0.22-1.107-0.342
		c-6.072-2.02-12.148-1.428-18.174,0.101c-2.85,0.723-5.153,2.191-6.76,4.278c-4.107,5.334-7.376,10.991-9.389,17.109
		c-0.86,2.614-1.784,5.218-2.523,7.856c-0.59,2.106-1.147,4.243-1.366,6.391c-0.619,6.084-0.169,12.126,1.498,18.093
		c0.29,1.039,0.493,2.094,0.688,2.928c-2.576,2.609-4.17,5.338-5.801,8.041c-1.475,2.449-1.834,5.188-2.846,7.75
		c-2.903,7.365-4.004,14.994-5.222,22.611c-0.464,2.9-0.849,5.809-1.208,8.719c-0.173,1.4-0.22,2.811-0.292,4.219
		c-0.077,1.514-0.123,3.033-0.171,4.549c-0.088,2.816-0.285,5.635-0.219,8.445c0.067,2.924,0.326,5.846,0.643,8.756
		c0.116,1.059,0.558,2.109,1.007,3.119c0.212,0.473,0.694,1.023,1.226,1.217c1.764,0.643,3.592,1.273,5.703,0.506
		c0-1.26,0.168-2.459-0.03-3.615c-0.648-3.762-1.085-7.547-0.886-11.332c0.199-3.789-1.443-7.531-0.285-11.32
		c-0.352-2.947,0.334-5.84,0.775-8.736c0.787-5.16,1.625-10.318,2.584-15.457c1.023-5.477,3.164-10.721,5.264-15.965
		c0.473-1.178,1.201-2.27,2.466-3.248c0.467,0.561,0.814,0.887,1.04,1.262c2.647,4.43,6.639,7.75,11.97,10.01
		c4.826,2.045,9.918,2.814,15.279,2.176c2.079-0.248,4.13-0.68,6.174-1.094c2.941-0.596,5.924-1.154,7.764-3.459
		c0.201-0.252,0.642-0.367,0.946-0.574c3.369-2.256,6.691-4.555,9.408-7.381c0.363-0.379,0.626-1.004,1.759-0.697
		c0.122,0.387,0.292,0.879,0.433,1.377c0.71,2.533,1.283,5.096,2.144,7.59c2.451,7.123,4.118,14.359,4.351,21.756
		c0.17,5.412-0.129,10.838-0.291,16.254c-0.118,3.91-0.757,7.766-2.12,11.531c-0.337,0.93-0.608,1.902-0.671,2.867
		c-0.062,0.941-0.102,1.99,1.323,2.615c0.997-0.104,2.083-0.525,3.263-0.283C249.222,275.225,249.463,274.932,249.748,274.668z
		 M237.766,193.217c-0.162,3.229-0.714,6.486-1.588,9.637c-0.604,2.178-1.98,4.229-3.148,6.281
		c-1.891,3.324-4.869,5.955-8.572,7.896c-5.551,2.906-11.523,3.543-17.626,1.205c-6.574-2.521-10.657-6.83-12.813-12.494
		c-1.258-3.303-2.771-6.547-3.348-9.996c-0.951-5.689-1.882-11.409-0.461-17.128c1.449-5.836,3.47-11.558,5.982-17.148
		c0.631-1.405,1.552-2.721,2.631-4.579c2.532,1.823,4.675,3.223,6.613,4.794c2.467,2,5.201,3.634,8.297,4.897
		c4.234,1.733,8.371,3.634,12.666,5.256c3.332,1.258,6.842,2.198,10.537,3.364c0.252,1.305,0.71,2.673,0.748,4.05
		C237.814,183.907,237.998,188.571,237.766,193.217z"/>
	<path style="fill-rule:evenodd;clip-rule:evenodd;" d="M205.39,194.664c-0.013,0.15-0.004-0.395,0.08-0.928
		c0.381-2.414,2.251-3.873,5.052-3.443c2.134,0.326,4.059,0.35,6.137-0.17c1.872-0.469,3.543,0.511,5.185,1.117
		c0.456,0.165,0.902,0.899,0.855,1.338c-0.132,1.278-0.142,2.724-0.901,3.749c-0.823,1.113-2.325,1.996-3.752,2.652
		c-0.785,0.363-2.067,0.209-3.049,0.02c-2.061-0.396-4.104-0.697-6.225-0.527c-0.129,0.01-0.263,0.012-0.393,0.004
		C205.8,198.326,205.034,197.549,205.39,194.664z"/>
</g>
</svg>
