<?xml version="1.0" encoding="utf-8"?>
<!-- Generator: Adobe Illustrator 16.0.0, SVG Export Plug-In . SVG Version: 6.00 Build 0)  -->
<!DOCTYPE svg PUBLIC "-//W3C//DTD SVG 1.1//EN" "http://www.w3.org/Graphics/SVG/1.1/DTD/svg11.dtd">
<svg version="1.1" id="Layer_1" xmlns="http://www.w3.org/2000/svg" xmlns:xlink="http://www.w3.org/1999/xlink" x="0px" y="0px"
	 width="420px" height="380px" viewBox="0 0 420 380" style="enable-background:new 0 0 420 380;" xml:space="preserve" opacity="0.2">
<path style="fill-rule:evenodd;clip-rule:evenodd;" d="M184.819,338.329c-0.293,1.844-1.117,3.414-2.312,4.846
	c-0.693,0.832-1.502,1.084-2.433,0.797c-1.759-0.543-3.526-1.115-4.558-2.859c-0.227-0.383-0.596-0.682-1.072-1.217
	c-0.769,0.76-1.469,1.457-2.171,2.15c-1.382,1.355-2.898,1.105-4.454,0.379c-1.664-0.777-2.15-1.602-2.037-3.562
	c0.174-2.982,0.389-5.963,0.55-8.943c0.029-0.525-0.118-1.064-0.196-1.684c-1.945,0.838-2.354,2.33-2.506,3.988
	c-0.252,2.748-0.531,5.496-0.779,8.244c-0.197,2.191-1.156,3.936-2.996,5.16c-2.09,1.389-4.879-0.002-5.016-2.533
	c-0.036-0.664,0.234-1.338,0.318-2.014c0.234-1.908,1.085-3.775,0.344-5.92c-0.665-0.217-1.442-0.398-2.156-0.721
	c-2.097-0.945-2.709-2.811-1.628-4.844c0.616-1.158,1.442-2.053,2.823-2.322c0.654-0.127,1.276-0.42,2.039-0.68
	c0.076-1.555,0.179-3.023,0.211-4.498c0.029-1.375-0.016-2.756-0.028-4.117c0.464-0.695,0.851-1.42,1.369-2.023
	c1.28-1.494,2.753-1.58,4.175-0.252c0.582,0.545,1.093,1.182,1.553,1.834c0.456,0.648,0.809,1.369,1.213,2.068
	c2.596-1.096,3.832-3.102,3.916-5.873c0.039-1.299,0.371-2.506,1.152-3.559c1.264-1.701,3.334-1.934,4.756-0.414
	c1.213,1.293,1.988,2.803,1.512,4.709c-0.528,2.117-1.051,4.242-1.441,6.389c-0.369,2.025-0.564,4.082-0.846,6.193
	c1.431,0.273,2.834,0.283,3.975,0.836c1.056,0.514,1.826,1.607,2.81,2.529c0.892-0.645,1.796-1.539,2.883-2.02
	c1.009-0.441,2.212-0.441,3.494-0.668c0.403-0.848,0.801-1.795,1.292-2.693c1.351-2.465,3.73-3.061,6.132-1.578
	c1.446,0.891,2.445,2.039,2.418,3.873c-0.012,0.859-0.26,1.537-0.868,2.16c-0.953,0.967-1.846,1.994-2.735,3.021
	c-0.896,1.033-1.139,2.146-0.42,3.441c0.488-0.139,0.839-0.174,1.128-0.33c3.319-1.812,6.631-3.639,9.915-5.445
	c0.104-0.406,0.264-0.736,0.264-1.068c0.022-4.783,2.949-7.523,6.803-9.531c1.831-0.953,3.149-0.537,4.176,1.006
	c0.959,1.439,0.695,3.414-0.652,4.641c-0.421,0.385-0.93,0.676-1.354,1.061c-1.173,1.059-1.147,1.514,0.193,3.217
	c1.585-0.867,3.281-1.602,4.2-3.34c0.514-0.969,1.257-1.684,2.299-1.957c1.454-0.381,2.283-1.4,3.13-2.539
	c0.882-1.186,1.928-2.27,3.002-3.291c1.289-1.227,2.808-1.355,4.49-0.775c4.083,1.412,4.213,3.533,1.339,6.189
	c-0.673,0.619-1.473,1.102-2.194,1.67c-1.136,0.896-1.785,2.086-2.033,3.5c-0.365,2.068,0.841,3.598,2.965,3.779
	c1.078,0.092,2.005-0.273,2.938-0.793c1.283-0.715,2.543-1.6,4.062-1.449c0.926,0.689,1.153,1.574,0.968,2.52
	c-0.103,0.533-0.344,1.219-0.751,1.484c-2.775,1.799-5.393,3.949-8.836,4.426c-2.935,0.408-5.507-0.619-7.625-2.455
	c-1.042-0.898-1.502-2.471-2.314-3.896c-0.768-0.168-1.121,0.586-0.852,1.209c0.709,1.641,0.596,3.146-0.303,4.609
	c-1.091,1.771-2.311,3.336-4.344,4.264c-2.802,1.275-5.554,1.27-8.347,0.293c-2.001-0.701-2.36-1.949-1.156-3.758
	c0.502-0.756,1.197-1.385,1.807-2.068c0.359-0.406,0.723-0.807,1.029-1.145c-0.306-0.768-0.796-0.736-1.196-0.516
	c-0.903,0.502-1.878,0.961-2.612,1.658c-2.728,2.59-6.429,3.502-9.445,5.596c-0.669,0.461-1.775,0.443-2.669,0.402
	c-3.158-0.148-4.647-1.303-6.388-4.748c0.33-2.771,0.33-2.771-2.407-3.377C182.564,336.626,183.424,337.667,184.819,338.329z"/>
<path style="fill-rule:evenodd;clip-rule:evenodd;" d="M83.478,355.272c-1.119,0.572-2.217,0.363-3.293-0.17
	c-1.055-0.525-2.004-1.154-2.219-2.127c1.711-5.984,3.36-11.721,4.988-17.463c0.345-1.217,0.586-2.461,0.915-3.682
	c0.394-1.449,0.543-2.846,0.301-4.396c-0.429-2.762,1.29-4.615,4.085-4.836c1.799-0.145,3.564,0.857,4.312,2.756
	c0.843,2.135,1.453,4.357,2.167,6.541c0.565,1.729,1.137,3.455,1.654,5.029c0.867,0.244,1.052-0.191,1.237-0.604
	c1.613-3.559,3.25-7.109,4.812-10.691c0.549-1.256,1.125-2.564,1.306-3.898c0.282-2.072,1.314-3.352,3.321-4.156
	c0.334,0.162,0.77,0.301,1.113,0.559c0.791,0.598,2.195,0.693,2.207,1.951c0.014,1.432,0.438,2.895-0.429,4.328
	c-0.884,1.463-1.535,3.078-2.17,4.676c-0.764,1.922-1.409,3.885-2.642,5.59c-0.217,0.301-0.179,0.785-0.27,1.238
	c1.042,0.055,1.229-0.756,1.706-1.15c0.522-0.432,0.899-1.037,1.344-1.566c0.82-0.973,1.704-1.834,2.914-2.361
	c0.716-0.311,1.327-0.869,1.975-1.33c0.557-0.396,1.063-0.879,1.653-1.213c2.529-1.432,4.25-1.125,6.027,1.125
	c0.705,0.895,1.26,1.906,1.844,2.807c2.182-0.523,4.277-1.025,6.436-1.543c0.525-1.5,0.512-2.906,0.234-4.418
	c-0.34-1.859,0.455-3.209,1.987-3.994c3.076-1.574,6.103,0.117,6.429,3.666c0.092,1.004-0.115,2.033-0.195,3.193
	c1.1,0.037,2.108,0.072,3.037,0.105c1.708,2.219,1.732,2.816,0.294,4.516c-1.436,1.691-3.226,2.893-5.43,3.791
	c-0.315,1.781-0.747,3.566-0.925,5.375c-0.229,2.352-2.008,3.484-3.518,4.832c-0.287,0.254-0.879,0.287-1.308,0.234
	c-0.437-0.055-0.844-0.336-1.263-0.523c-1.972-0.875-2.287-1.398-1.996-3.41c0.1-0.682,0.272-1.354,0.389-2.033
	c0.113-0.664,0.197-1.33,0.325-2.213c-1.189-0.324-2.252-0.615-3.212-0.877c-1.176,0.719-2.117,1.377-2.219,2.678
	c-0.209,2.662-1.977,4.352-3.836,5.879c-1.217,1.002-2.557,1.906-4.228,2.205c-4.159,0.744-8.192-1.926-9.005-6.078
	c-0.193-0.988-0.325-1.992-0.534-3.291c-1.324,1.285-1.829,2.629-2.179,4.051c-0.594,2.398-1.979,4.391-3.364,6.361
	c-1.118,1.59-2.136,1.727-3.853,0.846c-1.639-0.844-2.535-2.043-2.922-3.947c-0.521-2.564-1.516-5.033-2.453-8
	c-0.532,0.674-0.885,0.934-0.979,1.268c-0.656,2.322-1.258,4.656-1.877,6.988c-0.029,0.111-0.111,0.23-0.092,0.33
	C86.658,351.099,85.023,353.165,83.478,355.272z M116.433,335.249c-1.133,1.045-2.041,1.91-2.982,2.74
	c-1.027,0.904-1.385,2.094-1.457,3.385c-0.018,0.289,0.195,0.779,0.412,0.854c0.381,0.127,0.893,0.115,1.262-0.047
	c0.396-0.172,0.745-0.537,1.021-0.893C116.005,339.595,116.739,337.708,116.433,335.249z"/>
<path style="fill-rule:evenodd;clip-rule:evenodd;" d="M319.811,319.706c0.031,2.902-0.461,5.713-1.454,8.436
	c-0.673,1.84-1.425,3.652-1.989,5.521c-0.546,1.809-1.666,3.25-2.623,4.816c-1.366,2.238-3.561,2.908-5.854,3.127
	c-2.253,0.215-4.607,0.199-6.492-1.641c-0.34-2.873,0.676-5.463,1.899-7.92c2.253-4.523,4.484-9.074,7.563-13.127
	c0.12-0.158,0.08-0.434,0.162-0.934c-0.917,0.367-1.736,0.621-2.486,1.012c-3.852,1.998-5.922,0.475-8.325-1.688
	c-0.593-0.535-0.841-1.621-0.939-2.488c-0.086-0.758,0.178-1.596,0.437-2.344c0.56-1.621,1.579-2.822,3.403-3.025
	c1.779-0.201,3.154,0.412,3.925,2.129c0.074,0.168,0.345,0.246,0.708,0.484c0.175-0.535,0.525-1.047,0.454-1.49
	c-0.273-1.697,0.372-2.873,1.729-3.822c1.626-1.141,3.293-0.809,4.932-0.174c0.471,0.182,0.855,0.732,1.147,1.195
	c0.54,0.859,0.983,1.779,1.575,2.875c0,0,2.296,2.52,2.193,9.078"/>
<path style="fill-rule:evenodd;clip-rule:evenodd;" d="M319.775,319.728"/>
<path style="fill-rule:evenodd;clip-rule:evenodd;" d="M268.51,332.185c-1.513,0.297-2.194,0.387-2.854,0.568
	c-3.147,0.867-5.327-0.812-7.234-2.898c-0.55-0.602-0.79-1.701-0.769-2.562c0.036-1.471,0.268-2.92,1.003-4.311
	c1.366-2.58,3.196-4.752,5.27-6.752c0.246-0.238,0.534-0.438,0.819-0.631c2.562-1.752,5.772-2.219,7.25,2.072
	c1.869,0.945,3.684,1.859,5.67,2.861c0.273-0.699,0.615-1.521,0.921-2.359c0.707-1.938,2.23-2.881,4.124-3.262
	c1.943-0.391,4.079,0.189,4.71,2.877c0.235,0.996,0.555,1.977,0.85,2.957c0.027,0.09,0.162,0.146,0.248,0.217
	c1.843-1.051,1.926-1.041,2.135-2.939c0.121-1.098,0.398-2.033,1.242-2.727c0.338-0.281,0.778-0.5,1.204-0.594
	c0.758-0.166,3.756,1.256,4.23,1.975c0.917,1.4,0.997,2.914-0.068,4.178c-1.546,1.832-3.266,3.521-4.968,5.213
	c-0.477,0.475-1.236,0.66-1.728,1.123c-2.191,2.061-4.572,1.721-7.043,0.684c-0.419-0.178-0.854-0.318-1.287-0.459
	c-0.101-0.033-0.224,0-0.493,0.004c-2.07,1.584-3.045,3.826-3.074,6.475c-0.03,2.725-0.774,5.256-2.096,7.568
	c-1.377,2.41-3.244,4.371-5.973,5.393c-2.673,0.996-5.198,0.43-7.699-0.516c-0.846-0.322-1.195-1.186-1.056-1.996
	c0.23-1.34,0.44-2.773,1.085-3.934c1.219-2.199,2.734-4.232,4.138-6.324C267.367,333.636,267.719,333.222,268.51,332.185z
	 M267.131,322.989c-0.487,0.598-1.035,1.15-1.44,1.795c-0.369,0.59-0.025,1.385,0.614,1.693c0.746,0.361,1.703-0.014,1.928-0.781
	C268.554,324.599,268.236,323.722,267.131,322.989z"/>
<path style="fill-rule:evenodd;clip-rule:evenodd;" d="M355.935,302.923c-1.696,1.129-3.264,1.51-4.989,0.502
	c-1.003-0.586-1.576-1.4-1.372-2.533c0.263-1.465,0.575-2.934,1.056-4.336c1.751-5.105,3.579-10.18,5.379-15.264
	c0.154-0.434,0.27-0.887,0.478-1.291c0.786-1.52,2.504-2.121,4.109-1.471c2.603,1.061,3.234,3.18,1.993,5.826
	c-1.604,3.424-3.021,6.926-4.064,10.576C357.766,297.573,356.836,300.165,355.935,302.923z"/>
<path style="fill-rule:evenodd;clip-rule:evenodd;" d="M350.185,319.228c-1.009,0.301-1.659,0.502-2.313,0.689
	c-0.438,0.125-0.884,0.344-1.321,0.334c-1.198-0.021-2.29-0.363-2.894-1.525c-0.455-0.879,0.002-2.156,1.035-3.047
	c1.54-1.326,3.101-1.566,4.777-0.732c1.449,0.723,1.778,1.717,1.108,3.373C350.446,318.64,350.304,318.952,350.185,319.228z"/>
<path style="fill-rule:evenodd;clip-rule:evenodd;" d="M324.167,301.745c1.298-1.893,2.652-3.557,4.923-4.279
	c1.611-0.514,4.177,0.697,4.675,2.293c0.307,0.98,0.157,1.941-0.569,2.674c-0.889,0.895-1.871,1.693-2.959,2.668
	c-0.234,1.793,0.378,3.324,1.818,4.662c0.843,0.777,1.645,1.707,2.146,2.727c1.225,2.482,0.261,7.236-1.709,9.225
	c-1.684,1.699-7.562,2.545-9.64,1.387c-1.543-0.857-1.917-1.621-1.594-3.404c0.449-2.463,1.353-4.689,3.375-6.322
	c0.236-0.188,0.401-0.463,0.694-0.812c-0.401-0.623-0.822-1.211-1.175-1.84C322.477,307.733,322.069,304.808,324.167,301.745"/>
</svg>
