<?xml version="1.0" encoding="utf-8"?>
<!-- Generator: Adobe Illustrator 16.0.0, SVG Export Plug-In . SVG Version: 6.00 Build 0)  -->
<!DOCTYPE svg PUBLIC "-//W3C//DTD SVG 1.1//EN" "http://www.w3.org/Graphics/SVG/1.1/DTD/svg11.dtd">
<svg version="1.1" xmlns="http://www.w3.org/2000/svg" xmlns:xlink="http://www.w3.org/1999/xlink" x="0px" y="0px" width="420px"
	 height="380px" viewBox="0 0 420 380" enable-background="new 0 0 420 380" xml:space="preserve">
<g id="Layer_1">
	<path d="M287.516,113.726c-0.445-3.349-1.156-6.673-1.832-9.997c-0.209-1.035-0.596-2.057-1.029-3.045
		c-0.951-2.165-1.875-4.348-3.016-6.443c-1.137-2.091-2.426-4.132-3.83-6.103c-0.994-1.396-2.264-2.654-3.451-3.944
		c-3.766-4.089-8.449-7.246-13.797-9.712c-4.785-2.208-9.65-4.275-14.783-5.853c-1.811-0.557-3.65-1.073-5.385-1.771
		c-2.703-1.086-5.508-1.731-8.486-1.812c-4.311-0.118-8.625-0.347-12.934-0.295c-9.076,0.11-18.152,0.335-27.227,0.585
		c-3.512,0.098-7.031,0.279-10.52,0.623c-5.98,0.59-11.841,1.745-17.648,3.083c-4.046,0.934-8.038,2.083-12.139,2.79
		c-4.486,0.774-8.705,2.128-12.886,3.603c-4.604,1.623-9.079,3.48-13.517,5.43c-5.669,2.491-10.988,5.372-16.104,8.606
		c-3.391,2.142-6.313,4.697-9.486,7.025c-1.791,1.315-3.467,2.798-4.48,4.69c-1.41,2.629-2.875,5.24-4.219,7.893
		c-1.838,3.629-3.784,7.25-3.375,11.368c0.018,0.19-0.016,0.387-0.052,0.577c-0.784,4.276-1.011,8.596-1.343,12.904
		c-0.09,1.16,0.012,2.289,0.785,3.347c0.324,0.447,0.301,1.093,0.381,1.652c0.217,1.525,0.229,3.089,0.641,4.572
		c0.861,3.085,2.001,6.113,2.896,9.19c1.369,4.712,3.693,9.064,6.688,13.167c0.533,0.732,1.267,1.359,1.934,2.016
		c1.259,1.236,2.723,2.357,3.769,3.709c2.412,3.121,5.868,5.016,9.737,6.514c0.824,0.318,1.627,0.684,2.414,1.063
		c0.828,0.4,1.966,0.445,2.427,1.477c-2.54,2.588-5.204,5.074-8.428,7.076c-0.999,0.617-2.022,1.248-3.356,1.295
		c-1.266,0.045-2.027,0.801-2.744,1.551c-0.902,0.94-0.807,2.02,0.304,2.817c0.594,0.428,1.322,0.738,2.032,1.023
		c2.24,0.904,4.661,0.811,7.025,0.701c6.453-0.301,12.9-0.705,19.301-1.066c2.145,0.885,4.295,1.734,6.404,2.654
		c2.209,0.961,4.363,2.014,6.566,2.984c2.341,1.033,5.754,1.637,8.483,1.654c3.852,0.021,7.697-0.002,11.485,0.85
		c1.847,0.418,3.818,0.705,5.711,0.633c2.707-0.105,5.469-0.361,8.07-0.977c4.198-0.992,8.527-0.957,12.771-1.555
		c5.143-0.721,10.342-1.146,15.514-1.723c2.356-0.264,4.733-0.473,7.048-0.91c4.081-0.775,8.144-1.643,12.171-2.602
		c1.947-0.465,3.807-1.205,5.682-1.869c1.566-0.553,3.064-1.262,4.656-1.75c2.674-0.819,5.303-1.659,7.633-3.112
		c2.352-1.469,5.355-2.146,7.145-4.324c0.369-0.451,1.023-0.773,1.617-1.041c1.242-0.563,2.166-1.365,2.949-2.346
		c0.439-0.553,0.98-1.076,1.59-1.496c2.85-1.963,4.875-4.545,7.195-6.896c2.557-2.59,4.58-5.508,6.596-8.414
		c1.727-2.486,3.566-4.953,4.906-7.592c3.057-6.011,5.838-12.125,8.723-18.199c0.168-0.354,0.404-0.73,0.393-1.092
		c-0.053-1.688,0.666-3.211,1.25-4.772c0.553-1.475,0.838-2.97,0.846-4.547c0.012-2.504,0.355-5.005,0.436-7.512
		C287.693,117.961,287.793,115.821,287.516,113.726z M276.918,129.761c-1.285,4.887-2.656,9.768-4.672,14.483
		c-0.412,0.964-0.982,1.882-1.59,2.779c-0.125,0.547-0.318,1.013-0.634,1.754c-0.109,0.256-0.243,0.497-0.372,0.744
		c-0.321,0.617-0.779,1.119-1.317,1.507c-0.296,0.693-0.577,1.353-0.856,2.011c-0.199,0.035-0.373,0.073-0.538,0.106
		c-0.106,0.413-0.245,0.82-0.454,1.209c-0.301,0.561-0.688,1.067-1.09,1.563c-0.144,1.49-0.905,2.873-2.371,3.731
		c-0.087,0.051-0.186,0.079-0.275,0.124c0.172,0.264,0.331,0.533,0.455,0.815c0.113,0.254-0.205,0.719-0.467,0.992
		c-0.16,0.168-0.613,0.258-0.887,0.203c-0.136-0.027-0.267-0.06-0.394-0.097c-0.2,0.535-0.427,1.062-0.692,1.578
		c0.074,0.024,0.156,0.05,0.229,0.074c0.244,1.018-2.584,4.682-5.539,7.328c-0.047-0.052-0.075-0.104-0.111-0.156
		c-0.575,0.751-1.187,1.48-1.82,2.184c0.037,0.06,0.07,0.115,0.109,0.177c-0.467,0.555-0.975,1.16-1.492,1.775
		c-0.118-0.071-0.223-0.124-0.317-0.17c-0.004,0.003-0.007,0.007-0.011,0.011c-1.727,1.679-4.055,3.467-6.406,4.23
		c0.376,0.15,0.761,0.292,1.145,0.451c-3.479,3.623-11.148,7.77-18.621,10.068c-0.152-0.074-0.322-0.163-0.487-0.248
		c-0.475,0.472-1.063,0.873-1.778,1.165c-0.7,0.286-1.422,0.473-2.155,0.605c-0.008,0.046-0.015,0.083-0.023,0.134
		c-1.011,0.209-2.062,0.426-3.319,0.685c-0.616,0.271-1.328,0.435-2.164,0.421c-0.642-0.01-1.277,0.01-1.911,0.048
		c0.005,0.168-0.009,0.352-0.04,0.552c-2.184,0.454-4.423,0.919-6.878,1.429c-0.572,0.237-1.188,0.404-1.838,0.472
		c-4.063,0.419-8.15,0.729-12.224,1.141c-0.512,0.19-1.065,0.296-1.772,0.188c-1.419,0.156-2.835,0.326-4.247,0.524
		c-0.147,0.05-0.342,0.097-0.6,0.189c-0.002-0.033-0.008-0.065-0.011-0.099c-0.558,0.081-1.116,0.16-1.673,0.25
		c-6.612,1.071-13.479,2.329-20.182,1.526c-4.048-0.484-13.547-0.184-17.707-3.507c-2.905-1.115-6.007-1.782-9.016-2.657
		c-1.498-0.438-1.49-0.457-2.801-2.114h-20.084c0.132-1.271,1.338-1.645,1.98-2.342c0.697-0.76,1.476-1.467,2.202-2.207
		s1.442-1.49,2.146-2.248c0.69-0.742,1.359-1.496,1.953-2.156c0.152,0.006,0.284,0.024,0.405,0.049
		c0.089-0.242,0.185-0.485,0.312-0.729c0.228-0.436,0.501-0.834,0.769-1.237c0.046-0.103,0.102-0.202,0.152-0.303
		c-0.036,0-0.063-0.009-0.101-0.009c-0.234,0.002-0.483-0.734-0.844-1.318c0,0,0,0,0.001,0c-3.706-0.347-7.394-1.346-10.203-3.199
		c-1.059-0.698-1.903-1.5-2.551-2.36c0.041,0.32,0.081,0.634,0.125,0.971c-2.307-0.932-4.393-2.67-6.649-5.473
		c0.098-0.061,0.2-0.107,0.301-0.159c-0.556-0.38-1.05-0.853-1.44-1.397c-0.785-0.553-1.386-1.336-1.782-2.21
		c-0.145,0.101-0.295,0.206-0.457,0.316c-0.426-0.537-0.928-0.943-1.107-1.434c-0.938-2.572-1.797-5.166-2.68-7.756
		c-0.818-2.402-1.731-4.787-2.422-7.217c-0.797-2.804-1.879-5.637-1.97-8.477c-0.153-4.782-1.199-9.582,0.168-14.391
		c0.55-1.933,0.343-3.999,0.819-6.004c0.904-3.789,2.047-7.48,4.197-10.912c0.854-1.361,1.56-2.792,2.453-4.131
		c1.633-2.447,3.631-4.648,6.059-6.213c0.179,0.021,0.342,0.042,0.514,0.063c1.679-2.246,4.4-3.778,7.193-4.472
		c-0.056-0.191-0.108-0.379-0.151-0.561c0.431-0.733,0.88-1.263,1.856-1.138c0.16-0.184,0.32-0.37,0.48-0.554
		c0.613-0.419,1.184-0.899,1.849-1.246c7.346-3.828,14.978-7.165,22.953-9.96c1.331-0.467,2.597-0.755,3.886-0.75
		c1.973-2.003,4.97-2.147,7.783-2.197c0.661-0.407,1.564-0.703,2.771-0.924c0.061,0.109,0.129,0.228,0.189,0.34
		c0.017-0.008,0.035-0.017,0.049-0.024c0.921-0.517,1.92-0.801,2.958-0.902c-0.011-0.07-0.022-0.138-0.03-0.215
		c11.615-3.033,23.562-3.925,35.832-4.172c0.007,0.119,0.013,0.229,0.02,0.344c0.054-0.006,0.108-0.015,0.162-0.021l-0.001-0.008
		c0.113-0.011,0.225-0.023,0.337-0.035c0.119-0.012,0.239-0.026,0.358-0.037c2.008-0.213,3.959-0.471,5.942-0.238
		c6.63-0.436,13.252-0.809,19.89-0.628c2.37,0.064,4.778,0.227,7.083,0.67c3.859,0.744,7.652,1.739,11.465,2.653
		c0.539,0.129,1.057,0.357,1.545,0.596c3.443,1.678,7.08,3,10.717,4.341c2.049,0.756,4.088,1.672,5.621,3.185
		c0.662,0.653,1.479,1.197,2.244,1.771c3.441,2.577,6.078,5.714,8.391,9.024c1.701,2.435,2.798,5.118,3.883,8.117
		c0.29,0.5,0.465,1.033,0.521,1.582c0.27,0.55,0.438,1.136,0.516,1.734c0.102,0.07,0.178,0.133,0.221,0.209
		c0.145,0.254,0.246,0.541,0.285,0.823c0.549,3.918,1.816,7.771,1.715,11.745C277.787,120.935,278.063,125.404,276.918,129.761z"/>
	<polygon fill-rule="evenodd" clip-rule="evenodd" points="219.506,173.839 219.49,173.986 219.719,173.923 	"/>
	<path fill-rule="evenodd" clip-rule="evenodd" d="M345.719,184.236c-1.92-0.857-3.48-1.102-5.023-1.35
		c-4.783-0.77-9.586-1.449-14.359-2.266c-2.547-0.436-5.064-1.018-7.555-1.648c-1.348-0.34-2.637-0.564-3.99-0.146
		c-1.715,0.525-3.311,0.002-4.971-0.313c-3.145-0.594-5.281-1.973-6.072-4.742c-0.234-0.82-0.832-1.578-1.328-2.336
		c-0.955-1.459-1.455-3.025-1.691-4.668c-0.633-4.402-1.797-8.713-3.152-12.99c-0.146-0.466-0.311-0.933-0.402-1.406
		c-0.572-2.969,1.746-5.296,5.316-5.357c1.137-0.02,2.213-0.034,3.211,0.648c4.221,2.881,9.201,4.065,14.484,4.51
		c2.268,0.19,4.459,0.566,6.506,1.48c0.693,0.308,1.482,0.484,2.25,0.648c4.279,0.906,8.572,1.771,12.848,2.693
		c1.865,0.402,3.688,0.941,5.549,1.357c4.057,0.908,8.131,1.748,12.359,1.822c4.504,0.076,8.664,1.389,12.818,2.664
		c1.715,0.523,3.375,0.936,5.225,1.076c1.732,0.131,3.629,0.279,5.041,1.467c1.201,1.012,1.5,1.615,0.613,2.777
		c-1.236,1.619-1.529,3.348-1.646,5.217c-0.074,1.215-0.637,2.422-1.113,3.596c-0.705,1.73-1.531,3.424-2.295,5.137
		c-0.201,0.449-0.518,0.904-0.527,1.361c-0.047,2.402-1.896,3.643-4.15,4.443c-1.898,0.672-3.563,1.576-5.332,2.604
		c0.699,1.622,0.98,3.241,2.334,4.524c0.635,0.6,1.295,1.01,2.26,1.152c2.234,0.328,4.461,0.699,6.674,1.119
		c1.766,0.336,3.563,0.639,5.242,1.186c2.363,0.768,4.736,1.342,7.277,1.227c1.736-0.08,2.773,0.537,3.256,1.969
		c0.213,0.635,0.713,1.195,1.004,1.814c0.289,0.617,0.639,1.258,0.688,1.904c0.162,2.203,0.182,4.416,0.309,6.623
		c0.047,0.764,0.24,1.525,0.385,2.283c0.127,0.666,0.404,1.326,0.404,1.99c0.002,2.629,0.75,5.145,1.361,7.699
		c0.855,3.578,1.402,7.211,2.043,10.826c0.371,2.092,0.879,4.188,0.953,6.293c0.131,3.645-0.043,7.295-0.063,10.943
		c-0.027,5.131,0.32,10.217,2.598,15.061c0.408,0.867,0.375,1.766-0.322,2.473c-1.979,1.994-4.332,3.408-7.631,3.051
		c-1.678-0.184-2.561-0.789-2.559-2.219c0.002-2.119-0.414-4.203-0.516-6.305c-0.23-4.814-0.418-9.625-0.113-14.455
		c0.336-5.309-0.129-10.594-1.5-15.813c-0.643-2.439-1.02-4.93-1.482-7.4c-0.645-3.426-1.283-6.852-1.871-10.283
		c-0.229-1.332-0.289-2.688-0.465-4.025c-0.326-2.471-1.172-4.736-3.717-6.246c-0.73-0.434-1.492-0.881-2.318-1.139
		c-3.193-1.002-6.502-1.6-10.02-1.975c-0.365,0.523-0.764,0.975-1.018,1.477c-2.598,5.133-4.459,10.506-7.182,15.609
		c-1.582,2.965-2.668,6.119-3.291,9.383c-0.375,1.979-1.217,3.889-1.01,5.938c-1.324,2.367-2.035,4.883-2.572,7.449
		c-0.053,0.248-0.346,0.512-0.607,0.672c-0.842,0.508-0.877,1.262-1.07,2.025c-0.854,3.363-0.338,6.73-0.141,10.096
		c0.096,1.635,0.219,3.27,0.361,4.902c0.141,1.629,0.377,3.254,0.467,4.883c0.125,2.307,0.188,4.619,0.201,6.928
		c0.006,0.969-0.719,1.723-1.754,1.922c-1.188,0.229-2.467,0.225-3.695,0.154c-0.469-0.027-1.063-0.439-1.316-0.813
		c-0.561-0.826-1.162-1.705-1.354-2.621c-0.676-3.225-1.018-6.471-1.092-9.764c-0.092-4.041-0.635-8.074-1.025-12.107
		c-0.092-0.955-0.467-1.895-0.5-2.85c-0.029-0.852,0.236-1.713,0.396-2.727c-0.32-0.303-0.695-0.635-1.039-0.99
		c-0.617-0.633-0.898-1.352-0.545-2.15c1.014-2.291,0.412-4.521-0.076-6.824c-0.947-4.461-1.586-8.969-2.441-13.441
		c-0.598-3.133-1.354-6.242-2.016-9.365c-0.201-0.941-0.281-1.902-0.49-2.842c-0.117-0.527-0.387-1.031-0.609-1.605
		c-0.525,0.148-0.877,0.176-1.127,0.326c-3.469,2.082-6.189,4.801-8.861,7.561c-0.857,0.887-1.727,1.771-2.5,2.711
		c-0.508,0.615-1.006,1.291-1.252,2.006c-1.504,4.355-2.391,8.818-3.074,13.314c-0.566,3.729-1.148,7.451-1.695,11.182
		c-0.572,3.918-1.09,7.842-1.67,11.758c-0.637,4.295-1.289,8.586-1.986,12.873c-0.344,2.119-0.504,4.213,0.213,6.305
		c0.121,0.35,0.018,0.756,0.018,1.121c-1.057,0.682-2.02,1.316-3.002,1.932c-1.764,1.102-4.744,0.904-6.266-0.426
		c-0.52-0.453-0.688-1.086-0.328-1.605c1.213-1.756,1.043-3.717,1.314-5.617c0.342-2.391,0.709-4.781,1.082-7.168
		c0.611-3.914,1.582-7.818,1.754-11.748c0.152-3.486,1.186-6.838,1.412-10.307c0.219-3.352,1.248-6.66,1.605-10.014
		c0.559-5.225,2.262-10.229,3.725-15.281c0.271-0.932,0.703-1.83,1.076-2.74c0.662-1.607,1.977-2.627,3.988-2.695
		c1.529-0.051,2.518-0.619,3.418-1.59c1.844-1.988,4.275-3.424,6.635-4.928c1.717-1.092,3.576-2.051,4.725-3.697
		c0.33-0.475,0.92-0.887,1.5-1.154c1.543-0.707,2.172-1.91,2.658-3.219c0.752-2.033,1.418-4.079,1.176-6.245
		C343.469,187.089,343.738,185.517,345.719,184.236z M359.361,212.986c0.988-0.354,1.102-1.221,1.273-1.896
		c0.717-2.832,1.738-5.561,3.146-8.201c0.314-0.586,0.521-1.336,0.389-1.951c-0.346-1.594-0.814-3.18-1.406-4.721
		c-0.84-2.191-1.832-4.342-2.766-6.504c-0.234-0.543-0.422-1.113-0.764-1.604c-0.273-0.395-0.695-0.893-1.15-0.982
		c-2.057-0.408-3.984-1.295-6.01-1.408c-1.033,0.82-0.734,1.748-0.898,2.572c-0.547,2.749-0.883,5.543-1.715,8.225
		c-0.939,3.031-1.012,6.07-0.719,9.111c0.324,3.346,1.182,6.656,1.502,10c0.32,3.373,1.469,6.611,1.863,9.965
		c0.045,0.377,0.193,0.756,0.369,1.105c0.184,0.359-0.1,0.98,0.855,1.072c0.201-0.324,0.455-0.631,0.588-0.973
		c0.85-2.191,1.689-4.387,2.488-6.592c0.162-0.449,0.137-0.943,0.197-1.416C358.158,217.104,359.164,214.982,359.361,212.986z
		 M317.871,171.029c0.99,0.35,1.695,0.641,2.434,0.848c1.504,0.418,3.113,0.639,4.521,1.217c2.18,0.895,4.49,1.301,6.805,1.738
		c2.98,0.561,5.969,1.096,8.951,1.646c2.1,0.389,4.205,0.75,6.291,1.18c5.383,1.111,10.998,1.314,16.23,3.014
		c0.951,0.311,1.928,0.578,2.918,0.777c0.869,0.174,1.77,0.262,2.662,0.316c0.867,0.055,1.529-0.297,1.928-0.963
		c1.865-3.119,3.303-6.328,3.174-9.92c-0.039-1.096-0.428-1.879-1.691-2.223c-3.877-1.059-7.721-2.203-11.824-2.543
		c-5.182-0.43-10.311-1.113-15.352-2.295c-4.25-1-8.561-1.816-12.869-2.627c-2.863-0.537-5.768-0.92-8.654-1.365
		c-0.102-0.018-0.219,0.027-0.328,0.045c-0.178,0.113-0.453,0.197-0.52,0.348C321.018,163.718,319.512,167.224,317.871,171.029z
		 M307.65,155.748c1.412,4.18,0.918,8.391,2.973,12.332c0.377-0.271,0.754-0.41,0.846-0.635c1.252-3.064,2.41-6.152,3.434-9.279
		C312.828,156.658,310.678,155.843,307.65,155.748z"/>
	<path fill-rule="evenodd" clip-rule="evenodd" d="M91.879,275.738c-1.45-0.115-2.676,0.984-4.164,0.154
		c-1.441-2.15-1.049-4.596-0.768-6.965c0.355-2.986,0.521-5.955,0.203-8.943c-0.052-0.48-0.129-0.975-0.047-1.443
		c0.771-4.42,0.074-8.861,0.277-13.291c0.1-2.195-0.525-4.408-0.605-6.619c-0.17-4.641-0.932-9.205-2.126-13.725
		c-0.444-1.684-1.094-3.309-1.802-4.85c-1.372-0.316-2.214,0.203-2.991,0.738c-0.966,0.664-1.858,1.406-2.778,2.119
		c-2.201,1.711-4.804,2.891-7.444,3.998c-1.001,0.42-2.208,0.482-2.938,1.344c-0.117,0.137-0.377,0.234-0.587,0.26
		c-1.679,0.215-3.372,0.623-5.042,0.566c-3.644-0.129-7.174-0.877-10.54-2.092c-1.448-0.521-2.849-1.141-4.378-1.76
		c-1.35,2.395-2.432,4.766-2.689,7.373c-0.043,0.455-0.321,0.891-0.502,1.334c-0.889,2.17-1.738,4.307-1.898,6.676
		c-0.142,2.078-1.025,4.119-1.583,6.176c-0.179,0.656-0.479,1.305-0.529,1.967c-0.358,4.613-0.675,9.232-0.973,13.852
		c-0.037,0.57,0.097,1.15,0.163,1.727c0.347,2.939-0.256,5.881,0.211,8.639c-0.793,0.721-1.489,0.355-2.113,0.309
		c-2.127-0.158-2.986-0.879-3.266-2.646c-0.061-0.381-0.031-0.77-0.072-1.154c-0.073-0.672,0.014-1.41-0.285-2.004
		c-1.166-2.303-0.835-4.674-0.762-7.066c0.074-2.418,0.29-4.805,0.726-7.193c0.397-2.186,0.603-4.396,0.935-6.592
		c0.175-1.145,0.355-2.295,0.682-3.412c1.876-6.451,3.797-12.891,5.707-19.336c0.082-0.279,0.222-0.547,0.311-0.826
		c0.377-1.203,0.131-2.215-0.918-3.189c-2.564-2.379-4.073-5.287-5.533-8.232c-1-2.014-1.281-4.119-1.389-6.215
		c-0.316-6.188,0.182-12.348,1.891-18.385c1.432-5.063,3.411-9.979,6.162-14.648c0.4-0.68,0.92-1.338,1.523-1.898
		c1.99-1.85,4.02-3.666,6.084-5.457c1.395-1.207,2.932-2.162,5.131-1.512c0.828,0.244,1.531-0.143,2.221-0.5
		c1.812-0.938,3.777-1.238,5.88-1.066c0.899,0.072,1.834,0.141,2.714,0.016c2.566-0.363,4.949,0.141,7.291,0.932
		c1.578,0.533,3.154,1.074,4.715,1.646c3.805,1.395,7.01,3.602,9.922,5.99c2.405,1.975,4.587,4.33,5.85,6.988
		c0.838,1.762,1.479,3.602,2.504,5.316c0.248,0.412,0.492,0.994,0.34,1.387c-0.713,1.859,0.213,3.623,0.353,5.42
		c0.202,2.612-0.046,5.141-0.483,7.733c-0.457,2.689-1.396,5.258-2.146,7.863c-0.719,2.502-1.889,4.949-3.225,7.268
		c-1.039,1.807-1.217,3.346-0.236,5.209c1.441,2.74,1.982,5.729,2.502,8.684c0.402,2.285,0.582,4.598,0.859,6.896
		c0.07,0.574-0.037,1.221,0.243,1.707c0.993,1.725,0.684,3.582,1.007,5.373c1.003,5.566,0.469,11.133,0.264,16.701
		c-0.167,4.531-0.326,9.063-0.488,13.596c-0.008,0.191-0.076,0.396-0.025,0.574C93.675,272.857,93.109,274.254,91.879,275.738z
		 M88.16,194.082c0.064-2.797-0.098-5.491-1.205-8.071c-0.814-1.896-1.671-3.781-2.543-5.662c-1.998-4.307-4.842-7.936-9.73-10.418
		c-4.287-2.178-8.723-3.084-13.611-2.863c-1.299,0.059-2.402,0.342-3.432,1.057c-0.672,0.465-1.541,0.762-2.369,1.018
		c-3.049,0.945-5.615,2.463-7.499,4.699c-3.321,3.941-5.419,8.4-6.94,13.02c-1.158,3.521-1.783,7.165-1.938,10.834
		c-0.135,3.199,0.496,6.344,1.371,9.436c0.582,2.061,1.373,4.152,2.996,5.775c3.924,3.926,8.343,7.314,14.344,8.898
		c2.139,0.566,4.278,0.736,6.373,0.371c2.99-0.523,5.787-1.506,8.421-2.943c4.07-2.225,7.37-5.1,10.558-8.117
		c0.846-0.801,1.497-1.668,1.8-2.74c0.688-2.432,1.284-4.895,2.217-7.26C87.893,198.779,88.168,196.418,88.16,194.082z"/>
	<path fill-rule="evenodd" clip-rule="evenodd" d="M360.537,71.237c1.184,0.208,2.379,0.418,3.656,0.642
		c0.346,1.697-0.48,2.963-1.502,4.085c-1.178,1.293-2.539,2.466-3.844,3.671c-0.84,0.773-1.723,1.509-2.795,2.444
		c0.582,0.216,0.939,0.469,1.285,0.459c3.047-0.091,6.111,0.356,9.146-0.295c1.246-0.268,2.104,0.806,1.57,1.879
		c-0.637,1.289-1.775,2.23-3.152,2.948c-3.574,1.858-7.021,3.909-10.957,5.224c-0.414,0.14-0.809,0.324-1.361,0.547
		c-0.434,3.151,1.414,5.91,1.797,8.957c2.523,0,4.656,0,6.684,0c0.68,0.709,0.326,1.199-0.207,1.598
		c-0.928,0.697-1.906,1.346-2.98,2.097c0.182,0.566,0.225,1.164,0.549,1.618c1.063,1.495,0.908,3.011-0.006,4.411
		c-1.148,1.76-2.322,3.571-3.881,5.061c-1.822,1.744-2.912,3.844-4.957,5.831c0.822,0.081,1.23,0.073,1.602,0.17
		c0.516,0.136,1.174,0.234,1.475,0.55c1.459,1.533,2.656,4.041,0.742,6.412c-0.574,0.713-1.135,1.445-1.604,2.21
		s-0.816,1.582-1.25,2.438c0.119,0.226,0.201,0.511,0.391,0.724c2.092,2.333,2.299,4.212,0.619,6.628
		c-0.455,0.654-1.029,1.273-1.67,1.802c-0.242,0.2-0.924,0.238-1.229,0.09c-0.232-0.113-0.369-0.721-0.221-0.967
		c0.354-0.59,0.951-1.071,1.363-1.641c1.91-2.646,1.066-4.796-2.264-6.078c-1.223-0.471-2.406-1.052-3.504-1.708
		c-0.986-0.592-1.434-1.491-1.129-2.546c0.35-1.213,0.744-2.418,1.115-3.628c0.459-1.485,1.088-2.949,0.061-4.482
		c-0.229-0.339,0-0.915,0.066-1.378c0.064-0.447,0.188-0.891,0.316-1.479c-1.078-0.146-1.971-0.207-2.822-0.397
		c-1.195-0.266-2.414-0.531-3.531-0.966c-4.271-1.667-5.838-4.897-6.578-8.536c-0.309-1.515-0.563-3.052-0.627-4.586
		c-0.057-1.335,0.074-2.696,0.34-4.014c0.215-1.068,0.252-2.038-0.064-3.115c-0.57-1.949-1.008-3.943-0.492-5.983
		c0.117-0.46-0.037-0.968,0.051-1.438c0.406-2.168-0.953-3.453-2.996-4.395c-0.996-0.46-2.021-0.873-3.031-1.315
		c-0.402-0.177-0.795-0.371-1.189-0.559c-3.072-1.463-3.449-2.339-1.225-4.371c0.227-0.206,0.469-0.454,0.547-0.715
		c0.801-2.695,3.203-4.42,5.43-6.152c5.277-4.103,11.467-6.846,18.434-8.295c0.879-0.183,1.744-0.419,2.785-0.671
		c0.254-0.632,0.535-1.328,0.781-1.941c1.217-0.485,2.094-0.164,2.943,0.428c1.396,0.973,2.826,1.914,4.242,2.868
		c0.088,0.06,0.18,0.117,0.27,0.178C360.4,67.348,360.855,68.26,360.537,71.237z M344.619,110.774
		c-1.174,0.56-2.324,1.164-3.539,1.652c-0.293,0.116-0.861-0.074-1.182-0.268c-0.189-0.114-0.277-0.567-0.168-0.778
		c0.773-1.491,1.621-2.952,2.41-4.437c0.121-0.229,0.049-0.531,0.076-0.92c-0.678-0.149-1.299-0.286-1.938-0.428
		c-1.201,1.142-1.623,2.453-1.945,3.744c-0.65,2.598,0.014,3.597,3.063,5.039c1.049-0.846,2.137-1.668,3.127-2.569
		c0.209-0.189,0.061-0.664,0.078-1.008c0.258,0.012,0.516,0.024,0.773,0.035C345.123,110.817,344.871,110.795,344.619,110.774z
		 M343.162,67.142c-0.324-0.044-0.701-0.201-0.965-0.113c-4.77,1.58-9.256,3.566-12.805,6.793c-0.971,0.883-2.176,1.636-2.699,2.828
		c0.186,0.108,0.309,0.227,0.367,0.207c2.496-0.834,4.988-1.681,7.463-2.52c0.994-1.041,1.9-2.152,3-3.1
		c1.186-1.021,2.561-1.882,3.84-2.824c0.586-0.432,1.143-0.893,1.707-1.345c0.217-0.128,0.436-0.258,0.654-0.387
		c-0.094-0.03-0.262-0.093-0.268-0.085C343.348,66.773,343.258,66.958,343.162,67.142z M362.398,73.108
		c-2.777-0.503-4.953-0.448-7.145,0.323c-1.984,0.696-4.063,1.202-6.096,1.797c-1.818,0.532-3.646,1.042-5.441,1.627
		c-0.566,0.185-1.037,0.577-1.738,0.982c1.521,0.683,2.92,0.536,4.24,0.705c2.807,0.358,3.42,0.963,3.412,3.386
		c-0.002,0.256,0.121,0.514,0.193,0.794c1.869,0.65,3.342,0.257,4.646-0.919c1.4-1.261,2.889-2.452,4.271-3.727
		c0.996-0.917,1.947-1.883,2.785-2.906C361.938,74.668,362.043,73.986,362.398,73.108z M332.432,88.272
		c1.568,1.237,2.781,2.228,4.039,3.174c0.992,0.746,2.094,0.881,3.1,0.245c1.91-1.208,3.783-2.473,4.004-4.746
		c0.043-0.436,0.035-0.986,0.729-1.191c0.41,0.189,0.82,0.378,1.469,0.678c-0.064-0.73-0.109-1.257-0.16-1.855
		c-2.201,0.171-4.219,0.349-6.238,0.48c-2.014,0.13-4.01,0.33-6.07,0.638C332.98,86.645,332.709,87.451,332.432,88.272z
		 M352.387,64.564c-1.063,1.475-2.061,2.859-3.055,4.247c-0.648,0.905-1.305,1.806-1.926,2.726
		c-0.264,0.392-0.656,0.809-0.014,1.412c2.842,0.029,5.684-0.609,8.51-1.245c0.732-0.166,1.408-0.606,2.033-1.009
		c1.129-0.727,1.328-1.635,0.416-2.482C356.67,66.649,354.744,65.337,352.387,64.564z M365.512,84.369
		c-0.439-0.221-0.619-0.389-0.803-0.392c-3.166-0.055-6.334-0.092-9.502-0.123c-0.338-0.003-0.684,0.032-1.008,0.104
		c-1.066,0.232-1.793,1.061-1.461,1.953c0.492,1.327,0.529,2.638,0.348,3.99c-0.045,0.339,0.068,0.693,0.113,1.074
		C358.135,89.649,363.557,86.748,365.512,84.369z M332.207,103.717c-0.094,3.507,0.633,6.688,2.191,9.718
		c1.18,2.294,3.41,3.525,6.213,4.028c0.816,0.148,1.736,0.463,2.633-0.281c-0.666-1.023-2.057-1.112-3.037-1.667
		c-3.363-1.911-4.053-3.212-3.148-6.566c0.176-0.65,0.541-1.262,0.795-1.899c0.275-0.697,0.521-1.401,0.799-2.148
		C336.48,104.501,334.502,104.139,332.207,103.717z M349.711,65.936c-4.311,1.192-7.756,3.291-10.873,5.79
		c-0.795,0.638-1.613,1.281-2.016,2.494c2.727-0.103,5.105-0.507,7.438-0.976C346.111,70.763,347.91,68.349,349.711,65.936z
		 M343.059,83.647c-0.293-1.926-1.506-2.636-3.238-2.705c-1.787-0.07-3.582,0.032-5.334,0.056c-0.588,1.119-1.115,2.048-0.516,3.323
		C336.945,84.102,339.832,83.887,343.059,83.647z M342.219,101.306c1.971-1.469,4.525-2.108,6.113-4.022
		c-1.111-0.989-2.324-1.635-3.672-1.146c-1.307,0.473-2.459,1.307-3.572,2.091c-0.779,0.546-0.793,1.262-0.168,2.061
		C341.205,100.656,341.695,100.907,342.219,101.306z M356.906,107.899c-2.289,2.609-4.291,4.89-6.428,7.323
		c0.494,0.491,1.057,1.049,1.646,1.635c2.619-1.486,3.754-3.703,4.918-5.891C357.514,110.079,357.566,109.16,356.906,107.899z
		 M351.662,111.222c-1.064-0.404-1.668-0.832-1.957-0.711c-2.307,0.952-4.521,2.039-5.848,3.975
		c1.188,1.572,1.188,1.572,3.516,2.093C347.77,114.482,348.859,112.689,351.662,111.222z M326.375,80.597
		c2.295,0.125,4.314-0.658,6.4-1.605c0.152-0.836,1.029-1.63,0.244-2.703c-2.549,0.395-4.721,1.38-6.771,2.547
		C325.396,79.321,325.756,79.992,326.375,80.597z M334.158,99.52c1.889-0.783,3.816-1.51,5.646-2.382
		c0.51-0.244,0.813-0.885,1.076-1.394c0.373-0.718-0.059-1.298-0.973-1.494c-0.799-0.172-1.592-0.224-2.221,0.312
		C336.102,95.907,334.561,97.289,334.158,99.52z M332.932,96.911c1.232-1.023,2.521-2.033,3.484-3.392
		c-1.063-1.272-1.824-2.726-4.119-2.814c-0.566,1.449-0.318,2.885-0.248,4.295C332.08,95.625,331.902,96.38,332.932,96.911z
		 M349.016,131.912c1.09-1.271,2.539-2.292,3.266-3.789c0.502-1.034,0.283-1.562-1.049-2.951c-0.975,1.28-1.947,2.535-2.893,3.804
		C347.568,130.014,347.74,130.957,349.016,131.912z M346.75,93.699c0.359-1.681,0.707-3.163,0.984-4.655
		c0.123-0.666-0.098-1.236-1.002-1.514c-1.221,2.185-2.361,4.223-3.535,6.324C344.721,94.721,345.855,94.461,346.75,93.699z
		 M335.059,100.951c1.084,1.186,2.338,1.809,3.701,2.303c0.887,0.32,1.525,0.035,1.959-0.521c-0.77-1.171-1.514-2.303-2.346-3.57
		C337.313,99.467,336.105,99.912,335.059,100.951z M342.854,75.169c-2.945-0.125-4.982,0.496-7.076,0.706
		c-0.092,0.009-0.168,0.116-0.533,0.384c-0.098,0.455-0.246,1.153-0.475,2.216C337.459,77.315,340.189,77.159,342.854,75.169z
		 M332.373,81.63c-1.713-0.304-2.85-0.23-3.656,0.879c-0.383,0.525-1.066,0.669-1.809,0.42c-0.389-0.13-0.877-0.309-0.777,0.534
		c1.887,0.282,3.697,1.201,5.879,0.601C332.129,83.268,332.24,82.525,332.373,81.63z M342.311,79.802
		c1.316,1.354,2.232,2.296,3.111,3.201c0.311,0.015,0.553,0.083,0.744,0.024c0.518-0.156,1.014-0.366,1.654-0.605
		c-0.061-0.583,0.109-1.29-0.23-1.646c-0.447-0.469-1.258-0.805-1.979-0.937C344.752,79.683,343.822,79.802,342.311,79.802z
		 M350.82,103.623c-1.74-0.016-3.076,0.058-4.336,0.498c-0.365,0.126-0.781,0.499-0.84,0.804c-0.051,0.271,0.277,0.725,0.59,0.885
		c0.645,0.332,1.391,0.521,2.09,0.766C349.479,105.85,350.188,105.036,350.82,103.623z M350.197,107.956
		c1.738-0.596,3.275-1.303,4.365-2.478c-0.279-0.81-0.455-1.56-1.717-1.612C351.945,105.197,350.498,106.254,350.197,107.956z
		 M346.65,108.016c-0.494-0.362-0.777-0.648-1.139-0.817c-0.371-0.172-0.818-0.229-1.238-0.34c-1.471,0.932-1.953,2.22-2.516,3.654
		C344.43,109.839,344.43,109.839,346.65,108.016z M350.561,118.03c-0.424-0.417-0.82-0.804-1.346-1.319
		c-1.365,1.243-2.512,2.309-2.752,4.139C348.369,120.249,349.596,119.409,350.561,118.03z M345.855,130.186
		c0.908-1.458,1.816-2.917,2.854-4.585c-0.666,0-1.41-0.176-1.602,0.027c-1.205,1.275-2.053,2.692-1.557,4.419
		C345.566,130.104,345.732,130.132,345.855,130.186z M350.912,86.732c-0.943,0.519-1.338,1.231-1.063,2.105
		c0.209,0.658,0.453,1.42,1.553,1.509C351.779,88.421,351.779,88.421,350.912,86.732z M335.891,79.651
		c1.445-0.096,2.443-0.147,3.434-0.246c0.115-0.012,0.289-0.304,0.262-0.443c-0.029-0.156-0.225-0.367-0.4-0.414
		C337.963,78.218,337.057,78.741,335.891,79.651z M351.396,102.237c-2.359-0.611-2.359-0.611-3.4,0.36
		C349.281,102.461,350.338,102.35,351.396,102.237z M354.605,107.196c-1.168,0.822-1.873,1.319-2.852,2.007
		c0.693,0.254,1.172,0.572,1.359,0.476C353.934,109.26,354.678,108.724,354.605,107.196z M351.613,99.27
		c0.475-0.779,0.289-1.433-0.424-2.049C350.559,98.26,350.559,98.26,351.613,99.27z M350.445,84.844
		c-0.787-0.611-1.477-0.655-2.049-0.063c-0.553,0.572-0.152,1.002,0.59,1.392C349.459,85.744,349.945,85.3,350.445,84.844z
		 M348.693,91.045c-0.08,0.736-0.195,1.109-0.127,1.456c0.033,0.168,0.41,0.288,0.629,0.429c0.137-0.229,0.428-0.495,0.371-0.683
		C349.469,91.924,349.152,91.649,348.693,91.045z M340.781,92.817c1.5,0.195,1.533,0.19,1.215-1.356
		C341.564,91.945,341.197,92.352,340.781,92.817z M331.09,85.457c-0.248,0.206-0.617,0.429-0.582,0.5
		c0.119,0.233,0.387,0.411,0.598,0.609c0.207-0.178,0.535-0.338,0.576-0.542C331.711,85.884,331.342,85.686,331.09,85.457z
		 M350.088,94.562c-0.143-0.208-0.246-0.356-0.348-0.505c-0.191,0.163-0.506,0.311-0.535,0.494
		c-0.029,0.176,0.232,0.389,0.365,0.585C349.75,94.937,349.928,94.739,350.088,94.562z M357.291,102.865
		c-0.156,0.246-0.277,0.438-0.4,0.631c0.193,0.083,0.434,0.271,0.572,0.227c0.275-0.089,0.496-0.304,0.738-0.465
		C357.943,103.146,357.686,103.035,357.291,102.865z M345.148,100.906c1.48,0.008,1.48,0.008,1.676-1.024
		C346.223,100.249,345.762,100.532,345.148,100.906z M343.814,104.505c-0.014-0.066-0.012-0.189-0.041-0.194
		c-0.205-0.039-0.42-0.054-0.631-0.076c0.018,0.12,0.033,0.24,0.049,0.36C343.398,104.566,343.607,104.537,343.814,104.505z
		 M348.209,109.549c-0.176-0.052-0.346-0.125-0.525-0.148c-0.07-0.008-0.16,0.093-0.242,0.146c0.111,0.088,0.236,0.259,0.33,0.249
		C347.928,109.775,348.064,109.639,348.209,109.549z M345.998,74.832c-0.082-0.063-0.186-0.189-0.246-0.177
		c-0.193,0.042-0.371,0.136-0.555,0.208c0.076,0.07,0.176,0.21,0.223,0.198C345.623,75.009,345.807,74.913,345.998,74.832z"/>
	<path fill-rule="evenodd" clip-rule="evenodd" fill="#FFFFFF" d="M255.244,158.687c0.322-0.031,0.648-0.102,0.963-0.076
		c0.17,0.012,0.324,0.184,0.484,0.287c-0.191,0.08-0.385,0.223-0.578,0.223c-0.311,0.004-0.623-0.086-0.938-0.137
		C255.199,158.884,255.223,158.785,255.244,158.687z"/>
	<polygon fill-rule="evenodd" clip-rule="evenodd" fill="#FFFFFF" points="219.506,173.839 219.719,173.923 219.49,173.986 	"/>
	<path fill-rule="evenodd" clip-rule="evenodd" fill="#FFFFFF" d="M254.691,161.775c0.08-0.061,0.18-0.184,0.236-0.172
		c0.189,0.043,0.365,0.135,0.547,0.209c-0.08,0.061-0.178,0.186-0.234,0.174C255.049,161.941,254.873,161.849,254.691,161.775z"/>
	<path fill-rule="evenodd" clip-rule="evenodd" d="M362.625,173.197c0.035-1.512,1.352-3.172,2.844-3.584
		c1.51-0.416,4.219,0.457,5.059,1.732c0.781,1.191,0.645,2.406-0.27,3.537c-1.055,1.303-2.525,2.072-4.355,1.656
		C363.189,175.921,362.566,175.32,362.625,173.197z"/>
	<path fill-rule="evenodd" clip-rule="evenodd" d="M359.432,213.041c-2.617,1.354-3.143,3.418-2.723,5.801
		c-0.564,0.701-1.127,1.402-1.689,2.104c-2.07,0.105-2.33-0.029-2.658-1.357c-0.23-0.939-0.473-1.879-0.715-2.816
		c-0.119-0.469-0.35-0.934-0.363-1.404c-0.07-2.5-0.213-5.004-0.082-7.496c0.098-1.834,0.326-3.646-0.303-5.361
		c0.611-1.115,1.541-1.836,2.451-2.535c1.926-1.482,5.875-0.82,6.998,1.195c0.262,0.471,0.262,1.146,0.1,1.664
		c-0.49,1.572-1.08,3.125-1.705,4.666C357.953,209.451,358.121,211.291,359.432,213.041z"/>
	<path fill-rule="evenodd" clip-rule="evenodd" fill="#BE1E2D" d="M366.27,171.269c0.912-0.16,2.063,0.217,2.484,0.818
		c0.424,0.605,0.215,1.883-0.453,2.395c-0.623,0.479-1.369,0.561-2.156,0.295c-0.904-0.307-1.537-0.855-1.5-1.695
		C364.699,171.833,364.988,171.492,366.27,171.269z"/>
</g>
<g id="Layer_2">
</g>
<g id="Layer_4">
</g>
<g id="Layer_3">
</g>
</svg>
